<?xml version="1.0" encoding="UTF-8"?>
<svg width="383px" height="100px" viewBox="0 0 383 100" version="1.1" xmlns="http://www.w3.org/2000/svg" xmlns:xlink="http://www.w3.org/1999/xlink">
    <!-- Generator: Sketch 52.6 (67491) - http://www.bohemiancoding.com/sketch -->
    <title>web</title>
    <desc>Created with Sketch.</desc>
    <defs>
        <linearGradient x1="-0.828432076%" y1="61.1993986%" x2="100.380146%" y2="40.3561003%" id="linearGradient-1">
            <stop stop-color="#FFE6B0" offset="0%"></stop>
            <stop stop-color="#FCC6A6" offset="55%"></stop>
            <stop stop-color="#EE9A22" offset="100%"></stop>
        </linearGradient>
    </defs>
    <g id="Page-1" stroke="none" stroke-width="1" fill="none" fill-rule="evenodd">
        <g id="Desktop" transform="translate(-889.000000, -515.000000)">
            <g id="web" transform="translate(889.000000, 515.000000)">
                <path d="M372.19,90.71 C368.6,90.88 365.02,91.18 361.46,91.53 C357.9,91.88 354.33,92.23 350.77,92.53 C347.21,92.83 343.65,93.1 340.09,93.33 C336.53,93.56 332.96,93.71 329.4,93.8 C325.84,93.89 322.27,93.92 318.71,93.87 C316.93,93.87 315.15,93.8 313.37,93.74 L308,93.6 L302.62,93.46 L297.24,93.4 C290.06,93.36 282.883333,93.4633333 275.71,93.71 C268.54,93.98 261.38,94.31 254.22,94.77 C247.06,95.23 239.92,95.77 232.78,96.32 C225.64,96.87 218.51,97.59 211.38,98.14 C207.81,98.41 204.24,98.66 200.67,98.81 L198,98.93 C197.11,98.93 196.21,98.93 195.32,98.99 C194.43,99.05 193.54,98.99 192.64,98.99 C191.74,98.99 190.86,98.99 189.96,98.99 C182.82,98.86 175.69,98.28 168.58,97.48 C165.02,97.08 161.47,96.62 157.92,96.15 L147.28,94.69 C140.17,93.75 133.04,92.89 125.86,92.38 C118.678067,91.8683422 111.472175,91.7815242 104.28,92.12 L104.12,92.12 C104.12,92.12 139.99,95.47 147.12,96.12 L157.8,97.2 C161.37,97.57 164.93,97.95 168.5,98.3 C175.63,99.02 182.78,99.61 189.95,99.86 L192.64,99.94 C193.54,99.94 194.44,99.94 195.33,99.94 C196.22,99.94 197.13,99.94 198.03,99.94 L200.72,99.94 C204.31,99.94 207.89,99.75 211.48,99.58 C225.8,98.94 240.08,97.96 254.37,97.26 C268.66,96.56 282.95,96.19 297.24,96.26 C304.39,96.19 311.49,96.49 318.72,96.47 C322.32,96.47 325.91,96.36 329.51,96.19 C333.11,96.02 336.69,95.76 340.26,95.44 C347.43,94.82 354.54,93.83 361.63,92.89 C368.72,91.95 375.81,90.89 382.96,91.17 L382.96,90.91 C379.380954,90.5583513 375.779634,90.4914745 372.19,90.71 Z" id="Path" fill="url(#linearGradient-1)"></path>
                <path d="M141.43,16.85 L141.43,21.52 C141.43,21.7 141.36,21.8 141.21,21.82 C141.06,21.84 140.96,21.75 140.89,21.57 C140.82,21.39 140.77,21.3 140.66,21.06 C140.524321,20.7783553 140.367191,20.5075575 140.19,20.25 C139.969142,19.917183 139.721665,19.6028198 139.45,19.31 C139.150362,18.9804594 138.814963,18.6853076 138.45,18.43 C138.042086,18.1509533 137.597986,17.928903 137.13,17.77 C136.606519,17.5868219 136.054491,17.4987683 135.5,17.51 C135.264184,17.5019671 135.029258,17.5428239 134.81,17.63 C134.642915,17.7095437 134.495932,17.825763 134.38,17.97 C134.269813,18.1191051 134.19152,18.2893081 134.15,18.47 C134.107971,18.6609018 134.08122,18.8548488 134.07,19.05 L134.07,36.05 C134.049361,36.5000837 134.164323,36.9459979 134.4,37.33 C134.611256,37.6351746 134.87951,37.896637 135.19,38.1 C135.460851,38.2780975 135.757723,38.4130397 136.07,38.5 C136.36,38.57 136.57,38.62 136.71,38.64 C136.795338,38.6523614 136.873405,38.6949432 136.93,38.76 C137.006619,38.8137639 137.035701,38.9134761 137,39 C136.988144,39.0645556 136.956724,39.1239043 136.91,39.17 C136.839244,39.2263233 136.75031,39.2547823 136.66,39.25 L125.91,39.25 C125.816431,39.2563307 125.723825,39.2278367 125.65,39.17 C125.603276,39.1239043 125.571856,39.0645556 125.56,39 C125.558686,38.9360662 125.584049,38.8744716 125.63,38.83 C125.689089,38.7628064 125.771084,38.7200264 125.86,38.71 L126.49,38.57 C126.804798,38.4813662 127.104723,38.3465685 127.38,38.17 C127.685078,37.963409 127.94949,37.7023869 128.16,37.4 C128.395677,37.0159979 128.510639,36.5700837 128.49,36.12 L128.49,31 C128.49,30.1 128.49,29.18 128.49,28.23 C128.49,27.28 128.49,26.35 128.49,25.43 L128.49,19.81 C128.49,19.53 128.49,19.25 128.49,18.98 C128.479866,18.7269024 128.429224,18.4770659 128.34,18.24 C128.252002,18.0248342 128.10241,17.8404539 127.91,17.71 C127.65501,17.5640659 127.363395,17.4946338 127.07,17.51 C126.512293,17.4994935 125.95711,17.5875104 125.43,17.77 C124.962014,17.928903 124.517914,18.1509533 124.11,18.43 C123.746691,18.6874049 123.411508,18.9823658 123.11,19.31 C122.841358,19.6053914 122.594067,19.9195174 122.37,20.25 C122.193606,20.5099424 122.033305,20.7804493 121.89,21.06 C121.808046,21.2261502 121.734617,21.3963712 121.67,21.57 C121.6,21.75 121.49,21.83 121.35,21.82 C121.21,21.81 121.13,21.7 121.13,21.52 L121.13,16.85 C121.13,16.64 121.25,16.53 121.48,16.53 L141.11,16.53 C141.31,16.53 141.43,16.64 141.43,16.85 Z" id="Path" fill="#FFFFFF"></path>
                <path d="M160.8,38.73 C160.877086,38.7432872 160.947499,38.7820143 161,38.84 C161.023551,38.8907335 161.023551,38.9492665 161,39 C160.985567,39.0578304 160.954235,39.1100508 160.91,39.15 C160.850147,39.1968151 160.775972,39.2215403 160.7,39.22 L152.3,39.22 C152.224028,39.2215403 152.149853,39.1968151 152.09,39.15 C152.045765,39.1100508 152.014433,39.0578304 152,39 C151.976449,38.9492665 151.976449,38.8907335 152,38.84 C152.04838,38.782075 152.115677,38.7431138 152.19,38.73 C152.348793,38.7030983 152.505762,38.6663609 152.66,38.62 C152.898581,38.548735 153.124619,38.4407767 153.33,38.3 C153.576647,38.1326081 153.784633,37.9143927 153.94,37.66 C154.134681,37.3345638 154.228631,36.9587644 154.21,36.58 L154.21,29.34 C154.21,28.87 154.16,28.34 154.1,27.88 C154.044719,27.4096854 153.916516,26.9508519 153.72,26.52 C153.520061,26.1209293 153.224646,25.7774229 152.86,25.52 C152.407924,25.2397366 151.881252,25.1037089 151.35,25.13 C150.818223,25.0984378 150.289982,25.2348708 149.84,25.52 C149.493297,25.7595604 149.217065,26.0875865 149.04,26.47 C148.86582,26.8553049 148.760883,27.2682833 148.73,27.69 C148.73,28.12 148.67,28.51 148.67,28.84 L148.67,36.59 C148.652945,36.9673289 148.743089,37.341774 148.93,37.67 C149.088751,37.9250368 149.30013,38.143235 149.55,38.31 C149.755381,38.4507767 149.981419,38.558735 150.22,38.63 C150.370941,38.6760351 150.524562,38.7127707 150.68,38.74 C150.757086,38.7532872 150.827499,38.7920143 150.88,38.85 C150.899149,38.9016146 150.899149,38.9583854 150.88,39.01 C150.865567,39.0678304 150.834235,39.1200508 150.79,39.16 C150.728498,39.2036564 150.655396,39.2280239 150.58,39.23 L142.14,39.23 C142.064028,39.2315403 141.989853,39.2068151 141.93,39.16 C141.885765,39.1200508 141.854433,39.0678304 141.84,39.01 C141.816449,38.9592665 141.816449,38.9007335 141.84,38.85 C141.88838,38.792075 141.955677,38.7531138 142.03,38.74 C142.188793,38.7130983 142.345762,38.6763609 142.5,38.63 C142.737802,38.5567279 142.963547,38.4489096 143.17,38.31 C143.416647,38.1426081 143.624633,37.9243927 143.78,37.67 C143.974681,37.3445638 144.068631,36.9687644 144.05,36.59 L144.05,17.66 C144.062768,17.531937 143.976226,17.4151047 143.85,17.39 L143.6,17.34 L143.13,17.22 L142.63,17.1 L142.35,17.04 C142.21,17.04 142.13,16.93 142.13,16.81 C142.13,16.69 142.2,16.61 142.37,16.57 C142.81,16.47 143.28,16.33 143.79,16.16 C144.3,15.99 144.79,15.79 145.33,15.57 C145.87,15.35 146.33,15.11 146.82,14.86 C147.31,14.61 147.73,14.35 148.12,14.1 C148.208647,14.0326947 148.319092,14.00063 148.43,14.01 C148.53,14.01 148.59,14.11 148.59,14.27 L148.59,25.27 C148.838156,25.0404941 149.105835,24.8330432 149.39,24.65 C149.707929,24.4513499 150.042521,24.2807078 150.39,24.14 C150.799164,23.9873489 151.220724,23.8702488 151.65,23.79 C152.157677,23.6942068 152.673371,23.6473255 153.19,23.65 C153.971368,23.6337876 154.750552,23.7383535 155.5,23.96 C156.058018,24.1300479 156.580025,24.4012204 157.04,24.76 C157.432239,25.0754414 157.752699,25.4709025 157.98,25.92 C158.198579,26.3495134 158.356742,26.8071772 158.45,27.28 C158.550903,27.7436045 158.607822,28.2156982 158.62,28.69 C158.62,29.15 158.62,29.59 158.62,29.99 L158.62,36.56 C158.601369,36.9387644 158.695319,37.3145638 158.89,37.64 C159.045367,37.8943927 159.253353,38.1126081 159.5,38.28 C159.705381,38.4207767 159.931419,38.528735 160.17,38.6 C160.376017,38.6607867 160.586749,38.704271 160.8,38.73 Z" id="Path" fill="#FFFFFF"></path>
                <path d="M166,30.31 C165.82,30.31 165.73,30.41 165.73,30.6 C165.713863,31.588395 165.814561,32.5752352 166.03,33.54 C166.192567,34.2568634 166.491312,34.9358296 166.91,35.54 C167.282459,36.0454651 167.782994,36.4424417 168.36,36.69 C168.995957,36.9432777 169.675522,37.0689971 170.36,37.06 C170.882738,37.0644598 171.403816,37.0005856 171.91,36.87 C172.320052,36.7668352 172.718716,36.6227801 173.1,36.44 C173.41201,36.3192925 173.71311,36.1720881 174,36 C174.148493,35.8935831 174.30572,35.799916 174.47,35.72 C174.577314,35.6311028 174.732686,35.6311028 174.84,35.72 C174.93,35.81 174.93,35.96 174.84,36.15 L174.61,36.54 C174.458029,36.7796446 174.287507,37.0070077 174.1,37.22 C173.84458,37.5143806 173.563471,37.7854495 173.26,38.03 C172.890175,38.3309022 172.487638,38.5891967 172.06,38.8 C171.550401,39.0534144 171.013612,39.2480002 170.46,39.38 C169.805152,39.5376308 169.133535,39.6148668 168.46,39.61 C167.436055,39.6176625 166.419337,39.4380424 165.46,39.08 C164.537193,38.7673987 163.696466,38.2513426 163,37.57 C162.331966,36.868908 161.820658,36.0337714 161.5,35.12 C161.134942,34.0724625 160.955583,32.9692313 160.97,31.86 C160.946626,30.6570909 161.171295,29.4622619 161.63,28.35 C162.020923,27.3868184 162.60258,26.5126332 163.34,25.78 C164.029803,25.1049665 164.845154,24.5715911 165.74,24.21 C166.610143,23.855587 167.540451,23.6722417 168.48,23.67 C169.265681,23.6577358 170.047455,23.782955 170.79,24.04 C171.41571,24.2531667 172.000688,24.5710162 172.52,24.98 C172.990882,25.3412489 173.399596,25.7769855 173.73,26.27 C174.033454,26.7181324 174.294578,27.1935122 174.51,27.69 C174.715753,28.1096038 174.879871,28.5483691 175,29 C175.068472,29.3290628 175.105306,29.6639216 175.11,30 C175.122562,30.0893705 175.083926,30.1782333 175.01,30.23 C174.918511,30.2809206 174.814578,30.3051716 174.71,30.3 L166,30.31 Z M165.81,29.2 C165.81,29.35 165.81,29.42 166.02,29.42 L166.35,29.42 L167.05,29.42 L167.93,29.42 L168.83,29.42 L169.57,29.42 L169.96,29.42 C170.169482,29.3978517 170.367766,29.3143635 170.53,29.18 C170.741914,28.9913641 170.849884,28.712131 170.82,28.43 C170.815694,28.0498617 170.772129,27.6711852 170.69,27.3 C170.597913,26.8802484 170.453448,26.473731 170.26,26.09 C170.076629,25.7115404 169.821977,25.3720047 169.51,25.09 C169.204995,24.8192398 168.807608,24.676037 168.4,24.69 C168.074208,24.6812992 167.754548,24.779656 167.49,24.97 C167.225662,25.165231 167.001552,25.409715 166.83,25.69 C166.641585,26.0060497 166.487382,26.3412752 166.37,26.69 C166.245017,27.0323749 166.14476,27.3832757 166.07,27.74 C165.99,28.09 165.93,28.4 165.89,28.69 C165.85,28.98 165.84,29.06 165.83,29.2 L165.81,29.2 Z" id="Shape" fill="#FFFFFF" fill-rule="nonzero"></path>
                <path d="M140.68,64.88 C141.744316,65.1214415 142.759132,65.5442814 143.68,66.13 C144.405723,66.5978687 145.036742,67.1983541 145.54,67.9 C145.991755,68.5380284 146.31447,69.2581915 146.49,70.02 C146.670242,70.7869248 146.760848,71.5721802 146.76,72.36 C146.757519,73.3848418 146.571236,74.40093 146.21,75.36 C145.822819,76.3415962 145.201432,77.213598 144.4,77.9 C143.438028,78.6994951 142.321405,79.2918503 141.12,79.64 C139.494822,80.1026852 137.809321,80.3184293 136.12,80.28 L121.55,80.28 C121.431411,80.2886916 121.313817,80.253057 121.22,80.18 C121.155628,80.1228574 121.113192,80.0450591 121.1,79.96 C121.092594,79.8705656 121.125614,79.7825122 121.19,79.72 C121.274019,79.6429495 121.377948,79.5909849 121.49,79.57 C121.67,79.57 121.95,79.48 122.33,79.38 C122.742996,79.2726723 123.135091,79.0969058 123.49,78.86 C123.886682,78.5966853 124.226685,78.2566819 124.49,77.86 C124.80787,77.3594109 124.961679,76.7721376 124.93,76.18 L124.93,54.54 C124.958922,53.9512929 124.805248,53.3680275 124.49,52.87 C124.232109,52.4689135 123.891087,52.1278908 123.49,51.87 C123.130746,51.6410525 122.739946,51.4658661 122.33,51.35 C121.95,51.25 121.67,51.18 121.49,51.15 C121.375323,51.1452415 121.267308,51.0948344 121.19,51.01 C121.127332,50.9423239 121.094848,50.8520913 121.1,50.76 C121.113192,50.6749409 121.155628,50.5971426 121.22,50.54 C121.313817,50.466943 121.431411,50.4313084 121.55,50.44 L137,50.44 C138.318076,50.4083888 139.632353,50.5942119 140.89,50.99 C141.832834,51.3024161 142.693853,51.8217605 143.41,52.51 C144.043444,53.1426621 144.516577,53.9175023 144.79,54.77 C145.063423,55.6641912 145.19832,56.5949764 145.19,57.53 C145.188356,58.2026134 145.114601,58.873112 144.97,59.53 C144.831691,60.2318982 144.58186,60.9071156 144.23,61.53 C143.861607,62.1769112 143.392378,62.7609155 142.84,63.26 C142.1916,63.8261384 141.463902,64.2944252 140.68,64.65 C140.59,64.65 140.55,64.74 140.57,64.8 C140.59,64.86 140.59,64.85 140.68,64.88 Z M132.27,62.93 C132.24398,63.2955267 132.36657,63.6560862 132.61,63.93 C132.873654,64.1929065 133.238718,64.3279801 133.61,64.3 C134.046359,64.2890677 134.476933,64.1975283 134.88,64.03 C135.397808,63.8238904 135.847966,63.4776151 136.18,63.03 C136.645695,62.3863415 136.985029,61.660165 137.18,60.89 C137.479201,59.7074751 137.613804,58.489321 137.58,57.27 C137.58,56.62 137.58,55.96 137.51,55.27 C137.478454,54.6532796 137.360642,54.0440223 137.16,53.46 C136.99358,52.960138 136.704824,52.5098166 136.32,52.15 C135.893947,51.7906656 135.346443,51.6081645 134.79,51.64 C134.34066,51.6201905 133.894489,51.7239513 133.5,51.94 C133.152119,52.1480795 132.881738,52.4641095 132.73,52.84 C132.540378,53.3235896 132.422465,53.832301 132.38,54.35 C132.32,54.95 132.29,55.64 132.29,56.44 L132.27,62.93 Z M135.21,79.05 C135.718481,79.0652047 136.220974,78.9369822 136.66,78.68 C137.06826,78.4311196 137.41112,78.0882605 137.66,77.68 C137.92563,77.2657133 138.127863,76.8140596 138.26,76.34 C138.39925,75.8486575 138.499561,75.3471047 138.56,74.84 C138.61,74.34 138.65,73.84 138.67,73.41 C138.69,72.98 138.67,72.56 138.67,72.23 C138.686778,71.2762039 138.596209,70.3235473 138.4,69.39 C138.26822,68.7159562 138.028468,68.0676125 137.69,67.47 C137.438165,67.0199507 137.098032,66.625397 136.69,66.31 C136.076752,65.8319755 135.335485,65.5466053 134.56,65.49 L133.73,65.49 C133.337369,65.4686666 132.951305,65.5973546 132.65,65.85 C132.376092,66.1082875 132.229782,66.4740621 132.25,66.85 L132.25,73.85 C132.245838,74.5751005 132.285912,75.2997797 132.37,76.02 C132.42728,76.5923657 132.582896,77.150555 132.83,77.67 C133.234253,78.5985245 134.179817,79.1714721 135.19,79.1 L135.21,79.05 Z" id="Shape" fill="#FFFFFF" fill-rule="nonzero"></path>
                <path d="M160.84,59.83 C161.372504,59.8184741 161.903178,59.8962162 162.41,60.06 C162.781705,60.197173 163.121849,60.4080622 163.41,60.68 C163.671284,60.9323788 163.866956,61.2447678 163.98,61.59 C164.101191,61.943996 164.162038,62.3158394 164.16,62.69 C164.194088,63.3153451 163.94862,63.923519 163.49,64.35 C162.979203,64.7615489 162.335207,64.9714703 161.68,64.94 C161.209784,64.9658795 160.741821,64.8584212 160.33,64.63 C160.026836,64.4416449 159.748065,64.2166124 159.5,63.96 L158.87,63.28 C158.684601,63.0854643 158.428706,62.9737358 158.16,62.97 C157.871745,62.9834394 157.592225,63.0731619 157.35,63.23 C156.998853,63.4834414 156.725286,63.8297288 156.56,64.23 C156.259622,64.8631199 156.054086,65.5370111 155.95,66.23 C155.767579,67.2899666 155.683887,68.3645712 155.7,69.44 L155.7,77 C155.675455,77.4816995 155.778966,77.9613032 156,78.39 C156.170669,78.6969932 156.40612,78.9631551 156.69,79.17 C156.91882,79.3360856 157.176536,79.4581617 157.45,79.53 C157.634282,79.5830309 157.821202,79.6264231 158.01,79.66 C158.10662,79.6774659 158.194621,79.7267468 158.26,79.8 C158.306602,79.8595064 158.32813,79.9348558 158.32,80.01 C158.297446,80.0880775 158.252198,80.157691 158.19,80.21 C158.115599,80.2747987 158.0184,80.3071985 157.92,80.3 L147.55,80.3 C147.4516,80.3071985 147.354401,80.2747987 147.28,80.21 C147.217802,80.157691 147.172554,80.0880775 147.15,80.01 C147.14187,79.9348558 147.163398,79.8595064 147.21,79.8 C147.275379,79.7267468 147.36338,79.6774659 147.46,79.66 C147.648798,79.6264231 147.835718,79.5830309 148.02,79.53 C148.293464,79.4581617 148.55118,79.3360856 148.78,79.17 C149.06388,78.9631551 149.299331,78.6969932 149.47,78.39 C149.691034,77.9613032 149.794545,77.4816995 149.77,77 L149.77,64.52 C149.787986,64.3499283 149.669067,64.1957734 149.5,64.17 C149.391482,64.1561229 149.2844,64.1326988 149.18,64.1 L148.55,63.95 L147.9,63.79 C147.774452,63.7699726 147.65072,63.7398755 147.53,63.7 C147.34,63.7 147.24,63.56 147.23,63.41 C147.22,63.26 147.33,63.14 147.55,63.08 C148.182746,62.934357 148.807018,62.7540857 149.42,62.54 C150.09,62.31 150.77,62.05 151.42,61.77 C152.07,61.49 152.75,61.17 153.42,60.84 C154.005159,60.5391522 154.572742,60.2052801 155.12,59.84 C155.240173,59.757757 155.384799,59.7189548 155.53,59.73 C155.67,59.73 155.74,59.84 155.74,60.06 L155.74,63.23 C156.175119,62.1897006 156.909528,61.3021445 157.85,60.68 C158.743258,60.1129489 159.782029,59.8176462 160.84,59.83 Z" id="Path" fill="#FFFFFF"></path>
                <path d="M174.26,76.83 C174.23655,77.3317186 174.361787,77.8291896 174.62,78.26 C174.825342,78.5925931 175.097813,78.8786881 175.42,79.1 C175.69355,79.2845012 175.993678,79.4261346 176.31,79.52 L176.92,79.67 C177.017762,79.6841946 177.106813,79.7340634 177.17,79.81 C177.221136,79.8671005 177.243251,79.9445034 177.23,80.02 C177.20744,80.0956904 177.166169,80.164475 177.11,80.22 C177.031009,80.2835954 176.931252,80.3156602 176.83,80.31 L165.72,80.31 C165.618748,80.3156602 165.518991,80.2835954 165.44,80.22 C165.376989,80.1701627 165.334322,80.099051 165.32,80.02 C165.302468,79.9460318 165.321016,79.8681313 165.37,79.81 C165.439375,79.7366123 165.530543,79.6875218 165.63,79.67 L166.24,79.52 C166.553897,79.4279367 166.851002,79.2861368 167.12,79.1 C167.445234,78.8790863 167.721055,78.5930492 167.93,78.26 C168.188213,77.8291896 168.31345,77.3317186 168.29,76.83 L168.29,64.52 C168.307986,64.3499283 168.189067,64.1957734 168.02,64.17 C167.911482,64.1561229 167.8044,64.1326988 167.7,64.1 L167.07,63.95 L166.41,63.79 L166.05,63.7 C165.86,63.7 165.76,63.56 165.75,63.41 C165.74,63.26 165.85,63.14 166.07,63.08 C166.702746,62.934357 167.327018,62.7540857 167.94,62.54 C168.61,62.31 169.29,62.05 169.94,61.77 C170.59,61.49 171.27,61.17 171.94,60.84 C172.525159,60.5391522 173.092742,60.2052801 173.64,59.84 C173.760173,59.757757 173.904799,59.7189548 174.05,59.73 C174.19,59.73 174.26,59.84 174.26,60.06 L174.26,76.83 Z M174.44,51.9 C174.269526,51.4845124 174.01796,51.1071638 173.7,50.79 C173.373895,50.4685723 172.990668,50.2108267 172.57,50.03 C171.634402,49.6646486 170.595598,49.6646486 169.66,50.03 C169.220808,50.2184759 168.818048,50.4824699 168.47,50.81 C168.136852,51.134412 167.871689,51.521958 167.69,51.95 C167.499352,52.3851275 167.400624,52.8549398 167.4,53.33 C167.396814,53.8034268 167.488625,54.2726829 167.67,54.71 C167.836912,55.1244429 168.089022,55.4992015 168.41,55.81 C168.733556,56.1295464 169.117759,56.3811482 169.54,56.55 C169.988567,56.7415346 170.472301,56.8369187 170.96,56.83 C171.468302,56.8392163 171.972765,56.7403688 172.44,56.54 C172.875853,56.3597202 173.275593,56.1022608 173.62,55.78 C173.962001,55.4627617 174.234416,55.0779757 174.42,54.65 C174.611762,54.2152301 174.71054,53.7451812 174.71,53.27 C174.711852,52.7999364 174.620067,52.334211 174.44,51.9 Z" id="Shape" fill="#FFFFFF" fill-rule="nonzero"></path>
                <path d="M191.21,78 C192.56955,78.2179734 193.907821,78.5525411 195.21,79 C196.128456,79.3093445 196.992397,79.7615633 197.77,80.34 C198.354512,80.7688247 198.819311,81.3403557 199.12,82 C199.38401,82.6334037 199.516689,83.31381 199.51,84 C199.505683,84.4871541 199.421221,84.9702768 199.26,85.43 C199.083126,85.966835 198.812247,86.4679612 198.46,86.91 C198.043164,87.4358059 197.551229,87.8974165 197,88.28 C196.295995,88.7568707 195.532919,89.1400891 194.73,89.42 C193.697907,89.7828603 192.632856,90.0440992 191.55,90.2 C190.156607,90.4084271 188.748811,90.5054012 187.34,90.49 C185.963197,90.5000403 184.587131,90.4232211 183.22,90.26 C182.204505,90.1370818 181.201028,89.9296966 180.22,89.64 C179.516427,89.434395 178.843723,89.1350418 178.22,88.75 C177.765748,88.483572 177.357216,88.1459424 177.01,87.75 C176.74845,87.4310249 176.551457,87.0642103 176.43,86.67 C176.329016,86.3460576 176.275131,86.0092788 176.27,85.67 C176.273492,85.199905 176.397437,84.7385536 176.63,84.33 C176.883526,83.8668611 177.2229,83.4562183 177.63,83.12 C178.104783,82.7109955 178.637148,82.3740556 179.21,82.12 C179.874288,81.8333006 180.568624,81.6219807 181.28,81.49 C181.36,81.49 181.41,81.42 181.42,81.37 C181.43,81.32 181.42,81.26 181.32,81.2 C180.716102,80.8057511 180.196129,80.295973 179.79,79.7 C179.377981,79.0675667 179.168667,78.3245043 179.19,77.57 C179.183604,77.0684174 179.282394,76.5710614 179.48,76.11 C179.674431,75.6819467 179.953345,75.2975902 180.3,74.98 C180.680999,74.6434142 181.108781,74.36384 181.57,74.15 C182.092386,73.9120419 182.638867,73.7309993 183.2,73.61 C183.3,73.61 183.36,73.53 183.36,73.45 C183.36,73.37 183.36,73.33 183.22,73.3 C182.506909,73.0335352 181.833918,72.6701201 181.22,72.22 C180.642286,71.8096332 180.126953,71.3178773 179.69,70.76 C179.264124,70.2309713 178.926447,69.636659 178.69,69 C178.456441,68.359153 178.337953,67.6820781 178.34,67 C178.342606,66.0326192 178.593993,65.0821697 179.07,64.24 C179.577158,63.3536652 180.257294,62.5783099 181.07,61.96 C181.976136,61.2789662 182.99025,60.7550072 184.07,60.41 C185.276749,60.0309441 186.535143,59.8420164 187.8,59.85 C189.417228,59.8405012 191.017299,60.1816675 192.49,60.85 C192.647221,60.9432171 192.842779,60.9432171 193,60.85 C193.261605,60.6536438 193.471057,60.3961209 193.61,60.1 C193.717166,59.8426858 193.778099,59.5684842 193.79,59.29 C193.810684,59.0304114 193.810684,58.7695886 193.79,58.51 C193.752325,58.2953298 193.732258,58.0779395 193.73,57.86 C193.72505,57.3980432 193.888582,56.9501082 194.19,56.6 C194.54649,56.2090842 195.062255,56.0027781 195.59,56.04 C196.130704,56.0075167 196.658016,56.2162445 197.03,56.61 C197.386271,57.0299183 197.568702,57.5700574 197.54,58.12 C197.543826,58.5408104 197.455063,58.9573134 197.28,59.34 C197.112021,59.709674 196.882037,60.0478859 196.6,60.34 C196.30147,60.6361277 195.965247,60.8916573 195.6,61.1 C195.22717,61.319167 194.831483,61.4968908 194.42,61.63 C194.3,61.63 194.24,61.72 194.25,61.8 C194.26,61.88 194.25,61.94 194.35,61.96 C195.134624,62.5638917 195.782212,63.3273639 196.25,64.2 C196.708379,65.0509657 196.94564,66.0034481 196.94,66.97 C196.937427,67.9418436 196.682433,68.8963501 196.2,69.74 C195.691957,70.6257025 195.011964,71.4008945 194.2,72.02 C193.295668,72.699113 192.280716,73.2167383 191.2,73.55 C189.994894,73.9371659 188.735735,74.1295843 187.47,74.12 C187.135792,74.1191799 186.801908,74.0991468 186.47,74.06 C186.13813,74.0158316 185.80187,74.0158316 185.47,74.06 C185.149889,74.1048682 184.844924,74.2247981 184.58,74.41 C184.309674,74.5848167 184.150389,74.8882167 184.16,75.21 C184.15991,75.4993939 184.262696,75.7793965 184.45,76 C184.743223,76.3112757 185.106677,76.5478638 185.51,76.69 C186.215601,76.9671695 186.940961,77.1911286 187.68,77.36 C188.55,77.5 189.74,77.73 191.21,78 Z M188.21,89.25 C188.897725,89.2499099 189.583973,89.1863065 190.26,89.06 C190.92462,88.9472144 191.575077,88.7628066 192.2,88.51 C192.736473,88.296433 193.228263,87.9844005 193.65,87.59 C194.002214,87.265037 194.20481,86.809196 194.21,86.33 C194.218585,85.8850825 194.027858,85.4596154 193.69,85.17 C193.283008,84.813483 192.815691,84.5324151 192.31,84.34 C191.663924,84.0792847 190.994136,83.8816973 190.31,83.75 C189.58,83.59 188.83,83.45 188.06,83.32 C187.29,83.19 186.6,83.05 185.73,82.87 C184.85161,82.6971044 183.988758,82.4529642 183.15,82.14 C183.062453,82.1102829 182.967547,82.1102829 182.88,82.14 C182.359567,82.3268173 181.885481,82.623547 181.49,83.01 C181.068081,83.4478473 180.850251,84.0432497 180.89,84.65 C180.866795,85.3920726 181.084291,86.1217384 181.51,86.73 C181.937227,87.318331 182.490768,87.8035339 183.13,88.15 C183.857153,88.5497773 184.643863,88.8300214 185.46,88.98 C186.382049,89.160836 187.320499,89.2446262 188.26,89.23 L188.21,89.25 Z M187.59,60.96 C187.12414,60.9497465 186.671235,61.1137908 186.32,61.42 C185.926797,61.7768384 185.619161,62.2177838 185.42,62.71 C185.169415,63.3203507 184.991525,63.9580693 184.89,64.61 C184.65007,66.1507151 184.65007,67.7192849 184.89,69.26 C184.991525,69.9119307 185.169415,70.5496493 185.42,71.16 C185.619161,71.6522162 185.926797,72.0931616 186.32,72.45 C186.671235,72.7562092 187.12414,72.9202535 187.59,72.91 C188.053082,72.9216655 188.503358,72.7572792 188.85,72.45 C189.243203,72.0931616 189.550839,71.6522162 189.75,71.16 C190.00868,70.5517171 190.190094,69.9134082 190.29,69.26 C190.52993,67.7192849 190.52993,66.1507151 190.29,64.61 C190.190094,63.9565918 190.00868,63.3182829 189.75,62.71 C189.550839,62.2177838 189.243203,61.7768384 188.85,61.42 C188.519128,61.1171082 188.088531,60.9462929 187.64,60.94 L187.59,60.96 Z" id="Shape" fill="#FFFFFF" fill-rule="nonzero"></path>
                <path d="M223.73,79.67 C223.829457,79.6875218 223.920625,79.7366123 223.99,79.81 C224.02225,79.8762855 224.02225,79.9537145 223.99,80.02 C223.975678,80.099051 223.933011,80.1701627 223.87,80.22 C223.791009,80.2835954 223.691252,80.3156602 223.59,80.31 L212.53,80.31 C212.428748,80.3156602 212.328991,80.2835954 212.25,80.22 C212.190535,80.1671351 212.148662,80.0973468 212.13,80.02 C212.116749,79.9445034 212.138864,79.8671005 212.19,79.81 C212.253187,79.7340634 212.342238,79.6841946 212.44,79.67 L213.05,79.52 C213.363897,79.4279367 213.661002,79.2861368 213.93,79.1 C214.25759,78.8818962 214.533949,78.5953017 214.74,78.26 C214.998213,77.8291896 215.12345,77.3317186 215.1,76.83 L215.1,67.29 C215.1,66.67 215.03,66.03 214.95,65.38 C214.880298,64.756006 214.707978,64.1478157 214.44,63.58 C214.189512,63.0432939 213.799195,62.5838945 213.31,62.25 C212.712903,61.8745822 212.014338,61.6929552 211.31,61.73 C210.606401,61.6866366 209.906917,61.865005 209.31,62.24 C208.855846,62.5609619 208.493804,62.9954126 208.26,63.5 C208.029426,64.0088645 207.887387,64.5533474 207.84,65.11 C207.79,65.68 207.76,66.18 207.76,66.63 L207.76,76.83 C207.73655,77.3317186 207.861787,77.8291896 208.12,78.26 C208.325342,78.5925931 208.597813,78.8786881 208.92,79.1 C209.19355,79.2845012 209.493678,79.4261346 209.81,79.52 L210.42,79.67 C210.517762,79.6841946 210.606813,79.7340634 210.67,79.81 C210.716602,79.8695064 210.73813,79.9448558 210.73,80.02 C210.70744,80.0956904 210.666169,80.164475 210.61,80.22 C210.531009,80.2835954 210.431252,80.3156602 210.33,80.31 L199.25,80.31 C199.148748,80.3156602 199.048991,80.2835954 198.97,80.22 C198.906989,80.1701627 198.864322,80.099051 198.85,80.02 C198.832468,79.9460318 198.851016,79.8681313 198.9,79.81 C198.967423,79.7341049 199.059524,79.684512 199.16,79.67 L199.77,79.52 C200.083123,79.4259239 200.379923,79.2842694 200.65,79.1 C200.972379,78.8757166 201.247584,78.5903185 201.46,78.26 C201.714721,77.8281105 201.836462,77.3307104 201.81,76.83 L201.81,51.9 C201.833878,51.7317995 201.71793,51.5757147 201.55,51.55 C201.441482,51.5361229 201.3344,51.5126988 201.23,51.48 L200.6,51.33 L199.94,51.17 L199.58,51.09 C199.386667,51.0366667 199.286667,50.9366667 199.28,50.79 C199.28,50.63 199.38,50.52 199.6,50.47 C200.18,50.33 200.8,50.15 201.47,49.92 C202.14,49.69 202.82,49.44 203.47,49.15 C204.12,48.86 204.8,48.55 205.47,48.22 C206.055159,47.9191522 206.622742,47.5852801 207.17,47.22 C207.289466,47.1362318 207.434647,47.0972806 207.58,47.11 C207.72,47.11 207.79,47.22 207.79,47.44 L207.79,62 C208.123289,61.7047315 208.477551,61.4340215 208.85,61.19 C209.272122,60.9179042 209.72116,60.6900339 210.19,60.51 C210.729402,60.3102253 211.284708,60.1563455 211.85,60.05 C212.50951,59.9271428 213.179152,59.866875 213.85,59.87 C214.864653,59.8476663 215.876645,59.9825986 216.85,60.27 C217.576597,60.4963333 218.254786,60.8557734 218.85,61.33 C219.368271,61.745175 219.79117,62.2669775 220.09,62.86 C220.374924,63.4266195 220.58341,64.0285383 220.71,64.65 C220.831935,65.2599113 220.905497,65.8785022 220.93,66.5 C220.93,67.11 220.93,67.69 220.93,68.22 L220.93,76.87 C220.90655,77.3717186 221.031787,77.8691896 221.29,78.3 C221.496051,78.6353017 221.77241,78.9218962 222.1,79.14 C222.368998,79.3261368 222.666103,79.4679367 222.98,79.56 L223.73,79.67 Z" id="Path" fill="#FFFFFF"></path>
                <path d="M237.22,77.1 C237.49,76.97 237.68,76.98 237.8,77.1 C237.915028,77.250542 237.915028,77.459458 237.8,77.61 C237.534541,78.0915508 237.197348,78.5299017 236.8,78.91 C236.388722,79.3058623 235.924249,79.6424369 235.42,79.91 C234.88733,80.2040369 234.319446,80.4291744 233.73,80.58 C232.369985,80.9057537 230.949978,80.8851241 229.6,80.52 C228.864417,80.3473464 228.179473,80.0048741 227.6,79.52 C226.982071,78.9709742 226.499496,78.2864706 226.19,77.52 C225.797514,76.4863358 225.613972,75.3850831 225.65,74.28 L225.65,61.84 C225.656803,61.7931555 225.641095,61.7458484 225.607623,61.7123769 C225.574152,61.6789053 225.526845,61.6631972 225.48,61.67 L225,61.67 C224.780835,61.6899841 224.559884,61.6661894 224.35,61.6 C224.254818,61.5361107 224.204367,61.4235648 224.22,61.31 C224.234767,61.0830139 224.326479,60.8678449 224.48,60.7 C224.627934,60.5001272 224.861341,60.3815713 225.11,60.38 L225.6,60.38 C225.7,60.38 225.75,60.32 225.75,60.21 L225.75,54.92 C225.75,54.59 225.89,54.41 226.15,54.36 C226.551715,54.2812146 226.948945,54.1810725 227.34,54.06 C227.76,53.94 228.18,53.79 228.62,53.62 C229.06,53.45 229.48,53.27 229.9,53.07 C230.300661,52.8804314 230.691189,52.6701473 231.07,52.44 C231.21113,52.3670497 231.37887,52.3670497 231.52,52.44 C231.66,52.5 231.73,52.65 231.73,52.88 L231.73,60.28 C231.73,60.38 231.79,60.43 231.91,60.43 L236,60.43 C236.219084,60.4156024 236.439005,60.4392862 236.65,60.5 C236.73,60.5 236.77,60.64 236.77,60.79 C236.748937,61.0256272 236.637917,61.2440855 236.46,61.4 C236.288445,61.5975796 236.041591,61.7137459 235.78,61.72 L231.78,61.72 C231.738445,61.712915 231.696035,61.7264191 231.666227,61.7562268 C231.636419,61.7860346 231.622915,61.8284451 231.63,61.87 L231.63,75.44 C231.629237,75.7843574 231.70078,76.125039 231.84,76.44 C231.970417,76.7306232 232.157384,76.9923765 232.39,77.21 C232.61751,77.4276885 232.890858,77.5916972 233.19,77.69 C233.486098,77.7923412 233.796736,77.8463652 234.11,77.85 C234.711125,77.8512513 235.308612,77.7567336 235.88,77.57 C236.33724,77.4452855 236.785035,77.2882229 237.22,77.1 Z" id="Path" fill="#FFFFFF"></path>
                <path d="M244.4,68.57 C244.17,68.57 244.05,68.7 244.05,68.95 C244.026381,70.2547315 244.16069,71.5575292 244.45,72.83 C244.657285,73.7783756 245.051644,74.6758828 245.61,75.47 C246.095062,76.1383645 246.75146,76.6634827 247.51,76.99 C248.352573,77.3248102 249.253521,77.4880007 250.16,77.47 C250.85083,77.4788555 251.539897,77.3981842 252.21,77.23 C252.746118,77.091715 253.268332,76.9042536 253.77,76.67 C254.14267,76.4899641 254.503411,76.2862126 254.85,76.06 C255.047582,75.9190747 255.254751,75.7921 255.47,75.68 C255.626818,75.5809281 255.831719,75.6060179 255.96,75.74 C256.08,75.86 256.08,76.05 255.96,76.3 C255.868874,76.4783036 255.768745,76.6518608 255.66,76.82 C255.463233,77.1388923 255.239052,77.4400313 254.99,77.72 C254.646483,78.100064 254.275483,78.4543527 253.88,78.78 C253.392782,79.1719232 252.862736,79.5073951 252.3,79.78 C251.626057,80.1085053 250.918627,80.3633141 250.19,80.54 C249.325773,80.7486834 248.439015,80.8494515 247.55,80.84 C246.184571,80.8595236 244.827651,80.6220626 243.55,80.14 C242.393001,79.7053091 241.345154,79.0226724 240.48,78.14 C239.599995,77.2110233 238.919371,76.111815 238.48,74.91 C238.001165,73.527831 237.76765,72.0725918 237.79,70.61 C237.757654,69.0241459 238.05033,67.4484601 238.65,65.98 C239.175683,64.7196719 239.943516,63.5747171 240.91,62.61 C241.814313,61.715631 242.888842,61.0117465 244.07,60.54 C245.217091,60.0754389 246.442416,59.834447 247.68,59.83 C248.716839,59.8114931 249.748964,59.9739259 250.73,60.31 C251.54892,60.5974624 252.315606,61.0162687 253,61.55 C253.617748,62.0277204 254.154609,62.6017225 254.59,63.25 C254.981934,63.840179 255.316779,64.4663384 255.59,65.12 C255.832796,65.6820741 256.013856,66.2688447 256.13,66.87 C256.219917,67.3014168 256.273438,67.7396238 256.29,68.18 C256.299901,68.3028862 256.242505,68.421504 256.14,68.49 C256.023604,68.5524956 255.891713,68.580262 255.76,68.57 L244.4,68.57 Z M244.16,67.11 C244.16,67.31 244.22,67.4 244.43,67.4 L244.87,67.4 L245.79,67.4 L246.95,67.4 L248.13,67.4 L249.13,67.4 C249.303084,67.4131579 249.476916,67.4131579 249.65,67.4 C249.921482,67.3705059 250.178557,67.2628121 250.39,67.09 C250.677127,66.8414991 250.823073,66.4672788 250.78,66.09 C250.771852,65.5884338 250.711527,65.0890774 250.6,64.6 C250.481329,64.0484495 250.293159,63.5141837 250.04,63.01 C249.792475,62.5256335 249.452791,62.0942353 249.04,61.74 C248.636404,61.3886131 248.114854,61.2028552 247.58,61.22 C247.151768,61.2083862 246.731122,61.33458 246.38,61.58 C246.023183,61.848743 245.726786,62.1894296 245.51,62.58 C245.259132,62.9893956 245.054543,63.4254055 244.9,63.88 C244.74,64.35 244.61,64.81 244.5,65.26 C244.39,65.71 244.32,66.12 244.27,66.5 C244.22,66.88 244.18,66.92 244.16,67.11 Z" id="Shape" fill="#FFFFFF" fill-rule="nonzero"></path>
                <path d="M271.63,59.83 C272.165768,59.8186687 272.699698,59.8963927 273.21,60.06 C273.58099,60.1986329 273.920859,60.4093516 274.21,60.68 C274.467969,60.9350497 274.663106,61.2465845 274.78,61.59 C274.901191,61.943996 274.962038,62.3158394 274.96,62.69 C274.990142,63.3166955 274.74114,63.9245524 274.28,64.35 C273.773181,64.7617146 273.132198,64.9718146 272.48,64.94 C272.009549,64.9686722 271.540814,64.8610366 271.13,64.63 C270.824662,64.4447229 270.545514,64.2193865 270.3,63.96 L269.67,63.28 C269.48964,63.106012 269.250528,63.0060846 269,63 C268.711745,63.0134394 268.432225,63.1031619 268.19,63.26 C267.835534,63.5124587 267.558492,63.8587619 267.39,64.26 C267.098211,64.8956131 266.896275,65.5687326 266.79,66.26 C266.602599,67.3193396 266.51887,68.3944197 266.54,69.47 L266.54,77 C266.515455,77.4816995 266.618966,77.9613032 266.84,78.39 C267.010669,78.6969932 267.24612,78.9631551 267.53,79.17 C267.75882,79.3360856 268.016536,79.4581617 268.29,79.53 C268.54,79.6 268.73,79.64 268.84,79.66 C268.940476,79.674512 269.032577,79.7241049 269.1,79.8 C269.13225,79.8662855 269.13225,79.9437145 269.1,80.01 C269.085678,80.089051 269.043011,80.1601627 268.98,80.21 C268.905057,80.273843 268.808261,80.3061084 268.71,80.3 L258.35,80.3 C258.248748,80.3056602 258.148991,80.2735954 258.07,80.21 C258.03028,80.1465714 258.006281,80.0745748 258,80 C257.99187,79.9248558 258.013398,79.8495064 258.06,79.79 C258.123187,79.7140634 258.212238,79.6641946 258.31,79.65 L258.87,79.52 C259.143464,79.4481617 259.40118,79.3260856 259.63,79.16 C259.91388,78.9531551 260.149331,78.6869932 260.32,78.38 C260.532388,77.9485532 260.632151,77.4703794 260.61,76.99 L260.61,64.52 C260.633878,64.3517995 260.51793,64.1957147 260.35,64.17 C260.241482,64.1561229 260.1344,64.1326988 260.03,64.1 L259.4,63.95 L258.74,63.79 L258.38,63.7 C258.19,63.7 258.09,63.56 258.08,63.41 C258.07,63.26 258.18,63.14 258.4,63.08 C259.032746,62.934357 259.657018,62.7540857 260.27,62.54 C260.94,62.31 261.62,62.05 262.27,61.77 C262.92,61.49 263.6,61.17 264.27,60.84 C264.855159,60.5391522 265.422742,60.2052801 265.97,59.84 C266.089466,59.7562318 266.234647,59.7172806 266.38,59.73 C266.52,59.73 266.59,59.84 266.59,60.06 L266.59,63.23 C267.025119,62.1897006 267.759528,61.3021445 268.7,60.68 C269.575832,60.1235106 270.59233,59.8286221 271.63,59.83 Z" id="Path" fill="#FFFFFF"></path>
                <path d="M284,80.2 L284,72.32 C284,72.07 284.09,71.92 284.27,71.88 C284.448513,71.8488946 284.620054,71.9632548 284.66,72.14 C285.149257,73.256754 285.731297,74.3305158 286.4,75.35 C286.97632,76.2236968 287.677034,77.0086309 288.48,77.68 C289.2271,78.3044329 290.080789,78.7888677 291,79.11 C291.980382,79.4496717 293.012558,79.6154967 294.05,79.6 C294.667731,79.6045243 295.282194,79.5099915 295.87,79.32 C296.432099,79.1466584 296.948118,78.8493497 297.38,78.45 C297.82395,78.0215252 298.165734,77.4985951 298.38,76.92 C298.657542,76.206663 298.790124,75.4451628 298.77,74.68 C298.785714,73.9287513 298.631902,73.1836215 298.32,72.5 C298.013062,71.8769135 297.600264,71.3118543 297.1,70.83 C296.575185,70.3358172 295.990653,69.9091763 295.36,69.56 C294.71,69.2 294.05,68.87 293.36,68.56 C292.67,68.25 291.87,67.9 291.13,67.56 C290.409282,67.2034292 289.711285,66.8026656 289.04,66.36 C288.377975,65.9197339 287.767483,65.4065183 287.22,64.83 C286.650217,64.2395858 286.174655,63.5650296 285.81,62.83 C285.476796,62.1930936 285.211986,61.5226877 285.02,60.83 C284.839293,60.1446745 284.748531,59.4387481 284.75,58.73 C284.753125,57.6498666 284.939086,56.5780565 285.3,55.56 C285.686142,54.4771821 286.307749,53.4935402 287.12,52.68 C288.05732,51.7643617 289.174103,51.0527531 290.4,50.59 C292.000816,50.0076533 293.697204,49.7328385 295.4,49.78 C296.49091,49.7643677 297.580385,49.8649346 298.65,50.08 C299.4295,50.2394458 300.195208,50.4601302 300.94,50.74 C301.428625,50.9298079 301.900309,51.1606317 302.35,51.43 C302.543465,51.5450867 302.727388,51.6755048 302.9,51.82 C303.060616,51.9191673 303.16172,52.0914186 303.17,52.28 L303.17,56.28 C303.174536,56.3750135 303.142306,56.4681242 303.08,56.54 C303.026592,56.5968277 302.956593,56.6353269 302.88,56.65 C302.803113,56.6588588 302.725505,56.6412206 302.66,56.6 C302.571285,56.5608837 302.505088,56.4836543 302.48,56.39 C302.191669,55.7017659 301.857589,55.0336054 301.48,54.39 C300.680338,52.996973 299.411434,51.9336455 297.9,51.39 C296.934838,51.0604817 295.919694,50.9014424 294.9,50.92 C293.616023,50.8412605 292.346222,51.2243291 291.32,52 C290.444275,52.7430659 289.966901,53.8532397 290.03,55 C290.017864,55.6384176 290.140534,56.272215 290.39,56.86 C290.666425,57.4475109 291.081714,57.9588999 291.6,58.35 C292.298339,58.8973157 293.056521,59.3636314 293.86,59.74 C294.86,60.21 296,60.74 297.43,61.31 C298.701459,61.810405 299.929035,62.4158307 301.1,63.12 C302.093945,63.7091488 302.993948,64.4439824 303.77,65.3 C304.484207,66.0984435 305.034626,67.0293993 305.39,68.04 C305.767645,69.1640416 305.950277,70.3443888 305.93,71.53 C305.940571,72.784248 305.702662,74.0281736 305.23,75.19 C304.767682,76.3446159 304.037631,77.3728561 303.1,78.19 C302.036749,79.0939074 300.802143,79.7741308 299.47,80.19 C297.799016,80.702833 296.057665,80.9491869 294.31,80.92 C293.051272,80.9199187 291.797738,80.7586061 290.58,80.44 C289.34,80.12 288.15,79.77 287,79.44 L286.47,79.26 C286.292227,79.2025481 286.106813,79.1722076 285.92,79.17 C285.617319,79.1459759 285.323275,79.2779188 285.14,79.52 C284.956194,79.7857509 284.801947,80.0707724 284.68,80.37 C284.631316,80.5507607 284.455291,80.6666793 284.27,80.64 C284.12,80.57 284,80.43 284,80.2 Z" id="Path" fill="#FFFFFF"></path>
                <path d="M315.47,76.83 C315.44655,77.3317186 315.571787,77.8291896 315.83,78.26 C316.036051,78.5953017 316.31241,78.8818962 316.64,79.1 C316.908998,79.2861368 317.206103,79.4279367 317.52,79.52 L318.13,79.67 C318.229457,79.6875218 318.320625,79.7366123 318.39,79.81 C318.438984,79.8681313 318.457532,79.9460318 318.44,80.02 C318.425678,80.099051 318.383011,80.1701627 318.32,80.22 C318.241009,80.2835954 318.141252,80.3156602 318.04,80.31 L306.93,80.31 C306.828748,80.3156602 306.728991,80.2835954 306.65,80.22 C306.593831,80.164475 306.55256,80.0956904 306.53,80.02 C306.516749,79.9445034 306.538864,79.8671005 306.59,79.81 C306.653187,79.7340634 306.742238,79.6841946 306.84,79.67 L307.45,79.52 C307.766322,79.4261346 308.06645,79.2845012 308.34,79.1 C308.662187,78.8786881 308.934658,78.5925931 309.14,78.26 C309.398213,77.8291896 309.52345,77.3317186 309.5,76.83 L309.5,64.52 C309.517986,64.3499283 309.399067,64.1957734 309.23,64.17 C309.121482,64.1561229 309.0144,64.1326988 308.91,64.1 L308.28,63.95 L307.63,63.79 L307.26,63.7 C307.07,63.7 306.97,63.56 306.96,63.41 C306.95,63.26 307.06,63.14 307.28,63.08 C307.912746,62.934357 308.537018,62.7540857 309.15,62.54 C309.83,62.31 310.5,62.05 311.15,61.77 C311.8,61.49 312.49,61.17 313.15,60.84 C313.735159,60.5391522 314.302742,60.2052801 314.85,59.84 C314.970173,59.757757 315.114799,59.7189548 315.26,59.73 C315.4,59.73 315.47,59.84 315.47,60.06 L315.47,76.83 Z M315.65,51.9 C315.479526,51.4845124 315.22796,51.1071638 314.91,50.79 C314.585588,50.4665069 314.201943,50.20848 313.78,50.03 C312.844402,49.6646486 311.805598,49.6646486 310.87,50.03 C310.432517,50.2160992 310.032642,50.4804237 309.69,50.81 C309.344903,51.1458613 309.075556,51.551586 308.9,52 C308.709352,52.4351275 308.610624,52.9049398 308.61,53.38 C308.606814,53.8534268 308.698625,54.3226829 308.88,54.76 C309.046912,55.1744429 309.299022,55.5492015 309.62,55.86 C310.311026,56.5132362 311.229162,56.8718829 312.18,56.86 C312.684997,56.8684061 313.186031,56.7695628 313.65,56.57 C314.085853,56.3897202 314.485593,56.1322608 314.83,55.81 C315.172001,55.4927617 315.444416,55.1079757 315.63,54.68 C315.821762,54.2452301 315.92054,53.7751812 315.92,53.3 C315.925883,52.8198511 315.83402,52.3435246 315.65,51.9 Z" id="Shape" fill="#FFFFFF" fill-rule="nonzero"></path>
                <path d="M343.28,79.67 C343.380476,79.684512 343.472577,79.7341049 343.54,79.81 C343.57225,79.8762855 343.57225,79.9537145 343.54,80.02 C343.525678,80.099051 343.483011,80.1701627 343.42,80.22 C343.345057,80.283843 343.248261,80.3161084 343.15,80.31 L335.15,80.31 C335.011762,80.3144666 334.87553,80.2760421 334.76,80.2 C334.66034,80.107993 334.608684,79.9751642 334.62,79.84 L334.62,77.9 C334.631925,77.8162829 334.587088,77.7347601 334.51,77.7 C334.437458,77.6718775 334.355082,77.6965902 334.31,77.76 C334.18,77.92 333.96,78.18 333.65,78.53 C333.266271,78.9149188 332.83633,79.2508108 332.37,79.53 C331.744527,79.9142229 331.072383,80.2166875 330.37,80.43 C329.46969,80.7057507 328.531433,80.8373767 327.59,80.82 C326.538218,80.841027 325.490356,80.6855378 324.49,80.36 C323.65591,80.0791705 322.879922,79.648819 322.2,79.09 C321.574308,78.5779635 321.037132,77.9664618 320.61,77.28 C320.190525,76.6066388 319.854714,75.8846452 319.61,75.13 C319.372662,74.3934599 319.201976,73.6370863 319.1,72.87 C319.011469,72.1667219 318.964721,71.4588127 318.96,70.75 C318.940613,69.2248595 319.146156,67.7051913 319.57,66.24 C319.932395,64.971813 320.555707,63.7933108 321.4,62.78 C322.237838,61.8081272 323.293066,61.0475413 324.48,60.56 C325.86529,60.0198946 327.343483,59.7582375 328.83,59.79 C329.639888,59.782734 330.449081,59.8395781 331.25,59.96 C331.817675,60.045461 332.378946,60.1690743 332.93,60.33 C333.274962,60.4321918 333.609723,60.5660964 333.93,60.73 L334.31,60.94 C334.362815,60.9986754 334.44641,61.018579 334.52,60.99 C334.584579,60.9640861 334.625005,60.8994043 334.62,60.83 L334.62,51.83 C334.637986,51.6599283 334.519067,51.5057734 334.35,51.48 L334.03,51.41 L333.4,51.26 L332.75,51.1 L332.38,51.02 C332.19,50.97 332.09,50.87 332.09,50.72 C332.09,50.57 332.18,50.45 332.41,50.4 C332.98,50.26 333.61,50.08 334.28,49.85 C334.95,49.62 335.62,49.37 336.28,49.08 C336.94,48.79 337.62,48.48 338.28,48.15 C338.869559,47.8512993 339.440593,47.5173614 339.99,47.15 C340.109466,47.0662318 340.254647,47.0272806 340.4,47.04 C340.54,47.04 340.61,47.15 340.61,47.37 L340.61,76.77 C340.588154,77.2702663 340.709579,77.7663725 340.96,78.2 C341.172416,78.5303185 341.447621,78.8157166 341.77,79.04 C342.042495,79.2263486 342.342922,79.3681232 342.66,79.46 C343,79.6 343.17,79.65 343.28,79.67 Z M334.63,67.14 C334.625971,66.7321647 334.599263,66.3248691 334.55,65.92 C334.497636,65.466568 334.407319,65.018329 334.28,64.58 C334.158003,64.1307821 333.990468,63.695191 333.78,63.28 C333.565378,62.8756123 333.292458,62.5049813 332.97,62.18 C332.637835,61.8489993 332.248137,61.5812937 331.82,61.39 C330.579024,60.8853618 329.169189,61.0237276 328.05,61.76 C327.405242,62.2312304 326.889409,62.8571082 326.55,63.58 C326.131508,64.4485089 325.848237,65.375886 325.71,66.33 C325.523517,67.4603219 325.433194,68.6044185 325.44,69.75 C325.44,70.07 325.44,70.51 325.44,71.07 C325.451708,71.6652202 325.495102,72.2593948 325.57,72.85 C325.658603,73.4977163 325.788873,74.1390465 325.96,74.77 C326.125557,75.3910042 326.388847,75.9817188 326.74,76.52 C327.076549,77.0349384 327.519906,77.4714749 328.04,77.8 C328.646247,78.1508442 329.340233,78.320871 330.04,78.29 C330.881776,78.3313228 331.718774,78.1410961 332.46,77.74 C333.02478,77.407835 333.50149,76.9448427 333.85,76.39 C334.171798,75.8739397 334.389236,75.2997655 334.49,74.7 C334.590957,74.1758779 334.644507,73.6437285 334.65,73.11 L334.63,67.14 Z" id="Shape" fill="#FFFFFF" fill-rule="nonzero"></path>
                <path d="M350.7,68.57 C350.47,68.57 350.35,68.7 350.35,68.95 C350.326381,70.2547315 350.46069,71.5575292 350.75,72.83 C350.957285,73.7783756 351.351644,74.6758828 351.91,75.47 C352.395062,76.1383645 353.05146,76.6634827 353.81,76.99 C354.652573,77.3248102 355.553521,77.4880007 356.46,77.47 C357.15083,77.4788555 357.839897,77.3981842 358.51,77.23 C359.046118,77.091715 359.568332,76.9042536 360.07,76.67 C360.44267,76.4899641 360.803411,76.2862126 361.15,76.06 C361.347582,75.9190747 361.554751,75.7921 361.77,75.68 C361.926818,75.5809281 362.131719,75.6060179 362.26,75.74 C362.38,75.86 362.38,76.05 362.26,76.3 C362.168874,76.4783036 362.068745,76.6518608 361.96,76.82 C361.763233,77.1388923 361.539052,77.4400313 361.29,77.72 C360.946483,78.100064 360.575483,78.4543527 360.18,78.78 C359.692782,79.1719232 359.162736,79.5073951 358.6,79.78 C357.926057,80.1085053 357.218627,80.3633141 356.49,80.54 C355.625773,80.7486834 354.739015,80.8494515 353.85,80.84 C352.484571,80.8595236 351.127651,80.6220626 349.85,80.14 C348.691816,79.7076542 347.643488,79.024704 346.78,78.14 C345.899995,77.2110233 345.219371,76.111815 344.78,74.91 C344.301165,73.527831 344.06765,72.0725918 344.09,70.61 C344.076223,69.0273965 344.385887,67.45866 345,66 C345.525683,64.7396719 346.293516,63.5947171 347.26,62.63 C348.164313,61.735631 349.238842,61.0317465 350.42,60.56 C351.567091,60.0954389 352.792416,59.854447 354.03,59.85 C355.066839,59.8314931 356.098964,59.9939259 357.08,60.33 C357.902428,60.6164756 358.672561,61.0353196 359.36,61.57 C359.977748,62.0477204 360.514609,62.6217225 360.95,63.27 C361.341934,63.860179 361.676779,64.4863384 361.95,65.14 C362.192796,65.7020741 362.373856,66.2888447 362.49,66.89 C362.579917,67.3214168 362.633438,67.7596238 362.65,68.2 C362.659901,68.3228862 362.602505,68.441504 362.5,68.51 C362.383604,68.5724956 362.251713,68.600262 362.12,68.59 L350.7,68.57 Z M350.46,67.11 C350.46,67.31 350.52,67.4 350.73,67.4 L351.17,67.4 L352.09,67.4 L353.25,67.4 L354.43,67.4 L355.43,67.4 C355.603084,67.4131579 355.776916,67.4131579 355.95,67.4 C356.221482,67.3705059 356.478557,67.2628121 356.69,67.09 C356.977127,66.8414991 357.123073,66.4672788 357.08,66.09 C357.071852,65.5884338 357.011527,65.0890774 356.9,64.6 C356.781329,64.0484495 356.593159,63.5141837 356.34,63.01 C356.092475,62.5256335 355.752791,62.0942353 355.34,61.74 C354.936404,61.3886131 354.414854,61.2028552 353.88,61.22 C353.451768,61.2083862 353.031122,61.33458 352.68,61.58 C352.323183,61.848743 352.026786,62.1894296 351.81,62.58 C351.559132,62.9893956 351.354543,63.4254055 351.2,63.88 C351.04,64.35 350.91,64.81 350.8,65.26 C350.69,65.71 350.62,66.12 350.57,66.5 C350.52,66.88 350.47,66.92 350.46,67.11 Z" id="Shape" fill="#FFFFFF" fill-rule="nonzero"></path>
                <circle id="Oval" fill="#FFFFFF" cx="49.5" cy="49.5" r="49.5"></circle>
                <path d="M18.25,36.73 C21.25,37.09 24.66,37.49 28.11,40.48 C28.869761,38.701614 29.8436199,37.0225469 31.01,35.48 C29.58,33.62 28.65,32.48 26.85,31.72 L26.63,31.63 C23.07,30.12 18.68,28.28 16,21 C12.9870971,24.5249897 10.5503582,28.5040965 8.78,32.79 L9.34,33.28 C12.46,36.05 15.14,36.36 18.25,36.73 Z" id="Path" fill="#FCC6A6"></path>
                <path d="M50.58,16.9 C51.58,19.66 52.58,22.78 51.58,26.37 C52.6877235,26.4694159 53.7870956,26.6465185 54.87,26.9 L54.87,22.53 C54.87,17.7306455 58.7606455,13.84 63.56,13.84 C68.3593545,13.84 72.25,17.7306455 72.25,22.53 L72.25,27.89 C74.7446946,25.5297106 78.3954413,24.8600415 81.5654433,26.181236 C84.7354452,27.5024305 86.8299911,30.5666247 86.91,34 L86.91,50.54 C86.91,50.88 86.91,51.22 86.91,51.54 L87.8,51.27 C89.88,50.65 91.8,50.08 93.52,49.64 L93.52,49.46 C93.5064706,25.7452989 74.7012858,6.30767258 51,5.51 C50.9,5.71666667 50.79,5.92666667 50.67,6.14 C48.33,10.39 49.37,13.41 50.58,16.9 Z" id="Path" fill="#FCC6A6"></path>
                <path d="M26.29,49.47 C26.2894465,47.8740237 26.4536502,46.2822536 26.78,44.72 L26.41,44.34 C23.55,41.34 21.01,41.04 17.79,40.66 C14.57,40.28 11.16,39.88 7.36,36.79 C6.12351609,40.906448 5.49686028,45.1818578 5.5,49.48 C5.5,50.59 5.5,51.68 5.62,52.77 C7.55551182,52.4935449 9.47239274,52.0994823 11.36,51.59 C18.8,49.58 22.31,49 26.29,49.47 Z" id="Path" fill="#FCC6A6"></path>
                <path d="M86.33,55.85 C85.3116613,60.4934701 82.2812266,64.4436619 78.06,66.63 C76.2365294,67.5887562 74.2772451,68.2632086 72.25,68.63 L72.25,87.15 C84.1129595,79.967101 91.8952685,67.6117589 93.25,53.81 C91.9,54.18 90.45,54.61 88.87,55.09 L86.33,55.85 Z" id="Path" fill="#FFE6B0"></path>
                <path d="M49.06,82.44 C45.06,80.3 40.21,75.78 40.21,66.34 L40.21,56.45 C38.09,56.01 36.34,55.6 35.06,55.3 L33.6,55 C32.11,54.65 30.82,54.35 29.67,54.1 C28.52,53.85 27.57,53.68 26.67,53.55 C22.67,53 19.67,53.49 12.42,55.45 C10.3494481,56.0154721 8.24526356,56.4496689 6.12,56.75 C9.67059891,77.9438321 28.0108117,93.4725553 49.5,93.48 C51.29476,93.4798527 53.0879238,93.3729975 54.87,93.16 L54.87,84.41 C52.8447943,84.0511562 50.8858061,83.3869209 49.06,82.44 Z" id="Path" fill="#FFE6B0"></path>
                <path d="M35.82,15.06 C39.88,17.87 40.61,22.49 41.2,26.2 C41.28,26.72 41.36,27.2 41.45,27.72 C43.3795703,27.0001421 45.3980578,26.5459825 47.45,26.37 C47.5139093,26.0757995 47.5940315,25.7853565 47.69,25.5 C48.48,23.02 47.69,20.78 46.81,18.19 C45.66,14.84 44.24,10.74 46.53,5.59 C41.5225132,5.91953736 36.6083024,7.10327705 32,9.09 C31.85,11.28 34.14,13.9 35.82,15.06 Z" id="Path" fill="#FCC6A6"></path>
                <path d="M28.16,28 L28.39,28.09 C30.541893,29.041432 32.3846805,30.5759336 33.71,32.52 C34.9306591,31.377978 36.2718744,30.3720666 37.71,29.52 C37.53,28.68 37.38,27.79 37.24,26.87 C36.72,23.6 36.18,20.21 33.52,18.37 C32.0901492,17.3602522 30.848074,16.1080238 29.85,14.67 C29.0779935,13.5640065 28.5309537,12.3170276 28.24,11 C24.9014014,12.8442143 21.8157328,15.1130883 19.06,17.75 L19.39,18.75 C21.47,25.16 24.72,26.52 28.16,28 Z" id="Path" fill="#FCC6A6"></path>
                <path d="M49.5,29.14 C38.2649094,29.1399986 29.1555209,38.2449108 29.15,49.48 C29.15,49.63 29.15,49.77 29.15,49.91 C30.69,50.21 32.41,50.61 34.5,51.1 L35.95,51.45 C37.04,51.7 38.48,52.03 40.2,52.4 L40.2,49.76 C40.2867465,46.327007 42.3893014,43.2679158 45.5632474,41.956797 C48.7371935,40.6456782 52.3857215,41.3290664 54.87,43.7 L54.87,29.85 C53.1189396,29.3785727 51.3134101,29.1398528 49.5,29.14 Z" id="Path" fill="#F8971D"></path>
                <path d="M84.05,50.54 L84.05,34 C83.9205654,30.8767618 81.3509191,28.4114022 78.225,28.4114022 C75.0990809,28.4114022 72.5294346,30.8767618 72.4,34 L72.4,50.5 C72.4,54.29 69.4,54.29 69.4,54.29 L69.4,22.53 C69.4,19.3101799 66.7898201,16.7 63.57,16.7 C60.3501799,16.7 57.74,19.3101799 57.74,22.53 L57.74,70.14 C57.74,70.14 54.74,70.14 54.74,66.35 L54.74,49.85 C54.6105654,46.7267618 52.0409191,44.2614022 48.915,44.2614022 C45.7890809,44.2614022 43.2194346,46.7267618 43.09,49.85 L43.09,66.35 C43.09,81.85 57.75,81.85 57.75,81.85 L57.75,92.74 C61.8063511,91.9650831 65.7321738,90.6183171 69.41,88.74 L69.41,66 C69.41,66 84.05,66 84.05,50.54 Z" id="Path" fill="#92AF4C"></path>
            </g>
        </g>
    </g>
</svg>