<?xml version="1.0" encoding="UTF-8"?>
<svg width="500px" height="301px" viewBox="0 0 500 301" version="1.1" xmlns="http://www.w3.org/2000/svg" xmlns:xlink="http://www.w3.org/1999/xlink">
    <!-- Generator: Sketch 52.6 (67491) - http://www.bohemiancoding.com/sketch -->
    <title>1</title>
    <desc>Created with Sketch.</desc>
    <defs>
        <linearGradient x1="0.00855322243%" y1="49.9603699%" x2="99.9914468%" y2="49.9603699%" id="linearGradient-1">
            <stop stop-color="#FFE6B0" offset="0%"></stop>
            <stop stop-color="#FCC6A6" offset="55%"></stop>
            <stop stop-color="#EE9A22" offset="100%"></stop>
        </linearGradient>
    </defs>
    <g id="Page-1" stroke="none" stroke-width="1" fill="none" fill-rule="evenodd">
        <g id="Desktop" transform="translate(-110.000000, -84.000000)">
            <g id="1" transform="translate(110.000000, 84.000000)">
                <path d="M194.665718,55.4395035 C200.035562,56.0728132 206.045519,56.7843972 212.162162,62.1070449 C213.500782,58.9327836 215.233207,55.9396081 217.318634,53.1980142 C214.786629,49.9033806 213.129445,47.8611348 209.935989,46.523357 L209.544808,46.3596927 C203.229018,43.7054846 195.433855,40.4250827 190.661451,27.445792 C185.31137,33.7243234 180.990285,40.8119534 177.859175,48.4446336 C178.186344,48.7221513 178.520626,49.0067849 178.854908,49.3056501 C184.388336,54.222695 189.189189,54.7919622 194.665718,55.4395035 Z" id="Path" fill="#FCC6A6"></path>
                <path d="M252.048364,20.2232151 C253.74111,25.1189125 255.654339,30.6621513 253.826458,37.0379433 C255.795329,37.2133985 257.749116,37.5296761 259.672831,37.9843499 L259.672831,30.2280851 C259.672831,21.7039813 266.579619,14.7938298 275.099573,14.7938298 C283.619528,14.7938298 290.526316,21.7039813 290.526316,30.2280851 L290.526316,39.7348463 C294.945211,35.5530167 301.408383,34.3609237 307.027255,36.6913473 C312.646128,39.0217709 316.370668,44.4392103 316.536273,50.5224586 L316.536273,79.9749173 C316.536273,80.5939953 316.536273,81.1917258 316.500711,81.7894563 L318.065434,81.3198109 C321.763869,80.20974 325.12091,79.1850591 328.214794,78.4307801 C328.214794,78.3240426 328.214794,78.217305 328.214794,78.1105674 C328.224936,36.0062424 294.889085,1.46469713 252.830725,1.42108547e-14 C252.645804,0.370023641 252.45377,0.711583924 252.247511,1.11718676 C248.058321,8.6670922 249.907539,14.0182033 252.048364,20.2232151 Z" id="Path" fill="#FCC6A6"></path>
                <path d="M208.940256,78.0536407 C208.937285,75.2200596 209.230486,72.393935 209.815078,69.6213712 L209.153627,68.9097872 C204.075391,63.5942553 199.559033,63.0605674 193.847795,62.3845626 C188.314367,61.7370213 182.083926,60.9613948 175.355619,55.5106619 C173.15702,62.8226898 172.042733,70.4179176 172.048364,78.0536407 C172.048364,80.0104965 172.119488,81.9602364 172.261735,83.881513 C175.700292,83.3835003 179.1043,82.6705208 182.45377,81.7467612 C195.633001,78.2742317 201.870555,77.28513 208.940256,78.0536407 Z" id="Path" fill="#FCC6A6"></path>
                <path d="M315.504979,89.4034043 C313.712239,97.6459328 308.341227,104.660343 300.853485,108.537896 C297.616238,110.22115 294.140817,111.399386 290.547653,112.031773 L290.547653,144.978109 C311.624671,132.235155 325.460628,110.293601 327.880512,85.7743262 C325.497866,86.4289835 322.901849,87.1974941 320.12091,88.0371631 L315.504979,89.4034043 Z" id="Path" fill="#FFE6B0"></path>
                <path d="M249.359886,136.624113 C242.190612,132.831371 233.641536,124.790473 233.641536,108.032671 L233.641536,90.4565485 C229.87909,89.6738061 226.763869,88.9479905 224.502134,88.4214184 L221.906117,87.8094563 C219.253201,87.1832624 216.963016,86.6495745 214.914651,86.2083924 C212.866287,85.7672104 211.201991,85.4612293 209.544808,85.2335225 C202.489331,84.2586525 197.176387,85.1267849 184.253201,88.6135461 C180.577095,89.6107056 176.843158,90.3806704 173.072546,90.919078 C179.938906,132.223321 218.119418,160.776948 259.658606,155.673215 L259.658606,140.103759 C256.068915,139.474188 252.596121,138.300829 249.359886,136.624113 Z" id="Path" fill="#FFE6B0"></path>
                <path d="M225.853485,16.9570449 C233.058321,21.9381324 234.388336,30.142695 235.398293,36.7319622 C235.547653,37.6641371 235.6899,38.5678487 235.846373,39.4288652 C239.278647,38.1533439 242.867172,37.3467294 246.514936,37.0308274 C246.628734,36.5564381 246.770982,36.0440977 246.941679,35.4938061 C248.364154,31.0891017 246.941679,27.1184634 245.391181,22.5145154 C243.335704,16.5656738 240.817923,9.27193853 244.87909,0.128085106 C235.993577,0.711417633 227.274633,2.82000331 219.103841,6.36156028 C218.812233,10.2396927 222.8734,14.8934515 225.853485,16.9570449 Z" id="Path" fill="#FCC6A6"></path>
                <path d="M212.261735,39.8486998 L212.660028,40.0194799 C217.083926,41.8767139 219.509246,44.5451537 222.112376,47.8469031 C224.308773,45.8041719 226.71968,44.0052511 229.302987,42.4815603 C228.968706,40.987234 228.719772,39.4146336 228.456615,37.7779905 C227.539118,32.0212766 226.58606,26.0155083 221.85633,22.7706856 C219.323423,20.9775991 217.121365,18.7576139 215.348506,16.2098818 C213.951453,14.2492397 212.948955,12.0354205 212.396871,9.69177305 C206.473981,12.9724026 200.999555,17.0048821 196.109531,21.689078 C196.301565,22.2441135 196.493599,22.8204965 196.685633,23.4039953 C200.391181,34.8676123 206.159317,37.3083452 212.261735,39.8486998 Z" id="Path" fill="#FCC6A6"></path>
                <path d="M250.135135,41.9834515 C230.184536,41.9834515 214.01138,58.164484 214.01138,78.1247991 C214.01138,78.3738534 214.01138,78.6300236 214.01138,78.879078 C216.749644,79.412766 219.807966,80.1314657 223.513514,81.0138298 L226.095306,81.6186761 C228.015647,82.066974 230.576102,82.6647045 233.634424,83.3193617 L233.634424,78.6229078 C233.77194,72.518776 237.498018,67.0712969 243.135335,64.7326969 C248.772652,62.3940968 255.258346,63.6052962 259.672831,67.8210638 L259.672831,43.2216076 C256.562443,42.3880763 253.355147,41.9717144 250.135135,41.9834515 Z" id="Path" fill="#F8971D"></path>
                <path d="M311.472262,79.9535697 L311.472262,50.6505437 C311.265935,45.0856115 306.696917,40.6807915 301.130868,40.6807915 C295.564819,40.6807915 290.995801,45.0856115 290.789474,50.6505437 L290.789474,79.9535697 C290.789474,86.6922695 285.462304,86.6993853 285.462304,86.6993853 L285.462304,30.2280851 C285.462304,24.5099795 280.82912,19.874539 275.113798,19.874539 C269.398476,19.874539 264.765292,24.5099795 264.765292,30.2280851 L264.765292,114.778487 C264.765292,114.778487 259.43101,114.778487 259.43101,108.032671 L259.43101,78.7296454 C259.224683,73.1647131 254.655665,68.7598931 249.089616,68.7598931 C243.523567,68.7598931 238.954549,73.1647131 238.748222,78.7296454 L238.748222,108.032671 C238.748222,135.563853 264.779516,135.563853 264.779516,135.563853 L264.779516,154.904704 C271.976849,153.544129 278.945138,151.169924 285.476529,147.852908 L285.476529,107.491868 C285.476529,107.491868 311.472262,107.491868 311.472262,79.9535697 Z" id="Path" fill="#92AF4C"></path>
                <path d="M0.746799431,262.837754 C5.93883357,263.10104 11.1450925,263.172199 16.344239,263.200662 C21.5433855,263.229125 26.742532,263.200662 31.9416785,263.072577 C34.544808,263.036998 37.140825,262.944492 39.7652916,262.866217 C42.3897582,262.787943 44.9573257,262.688322 47.5533428,262.595816 C52.7524893,262.389456 57.9374111,262.119054 63.1294452,261.827305 C65.7254623,261.69922 68.314367,261.52844 70.9103841,261.343428 C73.5064011,261.158416 76.0953058,261.001868 78.6842105,260.795508 L86.458037,260.219125 L90.3840683,259.941608 C91.685633,259.856217 92.9943101,259.806407 94.3029872,259.728132 C104.765943,259.234528 115.24892,259.360461 125.697013,260.105272 C136.130868,260.816856 146.500711,262.097707 156.834993,263.463948 L172.318634,265.5987 C177.482219,266.310284 182.638691,266.950709 187.809388,267.541324 C198.150782,268.69409 208.520626,269.547991 218.911807,269.740118 C220.213371,269.740118 221.507824,269.789929 222.809388,269.782813 C224.110953,269.775697 225.405405,269.782813 226.699858,269.782813 C227.99431,269.782813 229.295875,269.740118 230.59744,269.690307 L234.487909,269.533759 C239.672831,269.298936 244.864865,268.943144 250.049787,268.551773 C260.41963,267.747683 270.789474,266.751466 281.16643,265.904681 C291.543385,265.057896 301.948791,264.28227 312.354196,263.641844 C322.759602,263.001418 333.179232,262.496194 343.605974,262.097707 C354.032717,261.69922 364.466572,261.592482 374.900427,261.656525 L382.72404,261.741915 L390.547653,261.941158 L398.371266,262.147518 C400.960171,262.232908 403.549075,262.29695 406.13798,262.339645 C411.315789,262.410804 416.49597,262.375225 421.678521,262.232908 C426.861072,262.090591 432.043623,261.865256 437.226174,261.556903 C442.403983,261.222459 447.581792,260.845319 452.759602,260.397021 C457.937411,259.948723 463.11522,259.429267 468.300142,258.938274 C473.485064,258.447281 478.691323,257.991868 483.947368,257.735697 C489.162204,257.412466 494.394487,257.505265 499.594595,258.013215 L499.594595,258.39747 C489.196302,257.977636 478.890469,259.557352 468.577525,260.888014 C458.26458,262.218676 447.916074,263.73435 437.503556,264.609598 C432.297297,265.072128 427.083926,265.449267 421.85633,265.698322 C416.628734,265.947376 411.401138,266.082577 406.16643,266.11104 C395.668563,266.11104 385.341394,265.691206 374.935989,265.805059 C354.16074,265.748132 333.371266,266.28182 312.596017,267.29227 C291.820768,268.302719 270.981508,269.690307 250.14936,270.658061 C244.943101,270.892884 239.72973,271.106359 234.502134,271.184634 L230.583215,271.227329 C229.28165,271.227329 227.972973,271.227329 226.671408,271.227329 C225.369844,271.227329 224.061166,271.191749 222.752489,271.170402 C221.443812,271.149054 220.142248,271.106359 218.840683,271.056548 C208.406828,270.700757 198.008535,269.83974 187.638691,268.793712 C182.45377,268.281371 177.27596,267.733452 172.091038,267.185532 L156.55761,265.627163 C146.194879,264.62383 135.83926,263.769929 125.476529,263.350095 C120.29872,263.10104 115.12091,262.994303 109.943101,262.93026 C104.765292,262.866217 99.5945946,263.001418 94.4238976,263.18643 C93.1294452,263.243357 91.8349929,263.286052 90.5476529,263.364326 L86.6714083,263.599149 L78.8477952,264.104374 C76.2446657,264.289385 73.6344239,264.396123 71.0241821,264.524208 C68.4139403,264.652293 65.8108108,264.773262 63.200569,264.858652 C57.9871977,265.072128 52.7667141,265.164634 47.5533428,265.228676 C42.3399716,265.292719 37.1194879,265.271371 31.9061166,265.157518 C26.6927454,265.043664 21.4793741,264.851537 16.2588905,264.574019 C11.0384068,264.296501 5.85348506,263.862435 0.6685633,263.236241 L0.746799431,262.837754 Z" id="Path" fill="url(#linearGradient-1)"></path>
                <path d="M54.544808,198.880591 L54.544808,207.832317 C54.544808,208.173877 54.4025605,208.366005 54.1251778,208.394468 C53.8477952,208.422931 53.6415363,208.273499 53.5135135,207.924823 L53.0654339,206.942837 C52.8026079,206.402103 52.5007167,205.881265 52.1621622,205.384468 C51.734236,204.753678 51.2586892,204.156576 50.7396871,203.598392 C50.151526,202.961355 49.4929693,202.393192 48.7766714,201.904823 C47.9841771,201.385155 47.1284876,200.969058 46.230441,200.666667 C45.2214611,200.320885 44.1602918,200.152363 43.0938834,200.168558 C42.6428322,200.151299 42.1935373,200.233913 41.7780939,200.410496 C41.4535252,200.55432 41.1699501,200.776889 40.9530583,201.058038 C40.7413037,201.338147 40.5932367,201.661139 40.5192034,202.004444 C40.4314056,202.376014 40.3766636,202.754632 40.3556188,203.135863 L40.3556188,235.790449 C40.3190006,236.653105 40.5446691,237.506596 41.002845,238.238298 C41.3943139,238.828654 41.9026558,239.3324 42.4964438,239.718392 C43.0152384,240.06317 43.5870925,240.320389 44.1891892,240.479787 C44.7439545,240.622104 45.1564723,240.707494 45.4125178,240.750189 C45.5776125,240.77814 45.7295494,240.857883 45.8463727,240.977896 C45.9388388,241.066284 45.985972,241.192033 45.9743954,241.319456 C45.9586318,241.445146 45.8949237,241.559876 45.7965861,241.639669 C45.6581475,241.744596 45.4861188,241.795218 45.3129445,241.781986 L24.8008535,241.781986 C24.6276792,241.795218 24.4556505,241.744596 24.3172119,241.639669 C24.2188743,241.559876 24.1551662,241.445146 24.1394026,241.319456 C24.127826,241.192033 24.1749592,241.066284 24.2674253,240.977896 C24.3853914,240.859425 24.536804,240.779957 24.7012802,240.750189 C24.9573257,240.707494 25.3698435,240.622104 25.9246088,240.479787 C26.5267055,240.320389 27.0985596,240.06317 27.6173542,239.718392 C28.2111422,239.3324 28.7194841,238.828654 29.1109531,238.238298 C29.569129,237.506596 29.7947974,236.653105 29.7581792,235.790449 L29.7581792,226.027518 C29.7581792,224.3126 29.7581792,222.547872 29.7581792,220.733333 C29.7581792,218.918794 29.7581792,217.125603 29.7581792,215.353759 L29.7581792,204.544799 C29.7581792,204.011111 29.7581792,203.477423 29.7083926,202.950851 C29.6904937,202.462209 29.586978,201.980506 29.4025605,201.527683 C29.2368997,201.114798 28.9521745,200.760576 28.5846373,200.510118 C28.102747,200.228463 27.5486984,200.094832 26.9914651,200.125863 C25.9181712,200.110893 24.8501993,200.279349 23.8335704,200.623972 C22.9491529,200.940173 22.1098833,201.370777 21.3371266,201.904823 C20.6266509,202.395147 19.9730182,202.963177 19.3883357,203.598392 C18.460403,204.600338 17.6753539,205.725804 17.0554765,206.942837 C16.8916098,207.26131 16.7467379,207.589213 16.6216216,207.924823 C16.4935989,208.273499 16.28734,208.430047 16.0099573,208.394468 C15.7325747,208.358889 15.5903272,208.173877 15.5903272,207.832317 L15.5903272,198.880591 C15.5903272,198.467872 15.8179232,198.268629 16.2660028,198.268629 L53.8691323,198.268629 C54.3172119,198.268629 54.544808,198.467872 54.544808,198.880591 Z" id="Path" fill="#5F5C51"></path>
                <path d="M91.6642959,240.814232 C91.8056599,240.843852 91.9346604,240.91583 92.0341394,241.020591 C92.1037042,241.106222 92.1322946,241.218039 92.1123755,241.326572 C92.088222,241.441314 92.0254596,241.544295 91.9345661,241.618322 C91.8228771,241.710072 91.6804779,241.755865 91.5362731,241.746407 L75.3911807,241.746407 C75.2469759,241.755865 75.1045767,241.710072 74.9928876,241.618322 C74.9019942,241.544295 74.8392317,241.441314 74.8150782,241.326572 C74.7951592,241.218039 74.8237495,241.106222 74.8933144,241.020591 C74.9927934,240.91583 75.1217939,240.843852 75.2631579,240.814232 C75.56392,240.762923 75.8609278,240.691606 76.1522048,240.600757 C76.6111605,240.466678 77.045753,240.260086 77.4395448,239.988794 C77.9144111,239.670315 78.3147563,239.252783 78.6130868,238.76487 C78.9837921,238.139856 79.1642287,237.420231 79.1322902,236.694161 L79.1322902,222.811158 C79.108831,221.87832 79.0376139,220.947296 78.9189189,220.021749 C78.822968,219.11879 78.5828371,218.237081 78.2076814,217.410236 C77.4109334,215.655808 75.6050092,214.584794 73.6842105,214.727565 C72.6685646,214.654903 71.6558177,214.903856 70.7894737,215.439149 C70.1226201,215.900875 69.5939961,216.535532 69.2603129,217.275035 C68.9226946,218.011663 68.7157216,218.801433 68.6486486,219.609031 C68.5704125,220.434468 68.5348506,221.1674 68.5348506,221.814941 L68.5348506,236.665697 C68.5007672,237.391058 68.6787198,238.110634 69.0469417,238.736407 C69.3472006,239.222828 69.7471863,239.639986 70.2204836,239.960331 C70.6167618,240.231774 71.0537175,240.438349 71.514936,240.572293 C71.8036472,240.663696 72.0983275,240.735024 72.3968706,240.785768 C72.5382346,240.815389 72.667235,240.887366 72.7667141,240.992128 C72.8390907,241.076317 72.8680274,241.189489 72.8449502,241.298109 C72.8207967,241.412851 72.7580342,241.515831 72.6671408,241.589858 C72.5554518,241.681609 72.4130526,241.727402 72.2688478,241.717943 L56.059744,241.717943 C55.9133989,241.727104 55.7688841,241.681445 55.6543385,241.589858 C55.5634451,241.515831 55.5006826,241.412851 55.4765292,241.298109 C55.4566101,241.189575 55.4852005,241.077759 55.5547653,240.992128 C55.6561467,240.886103 55.7878091,240.814026 55.9317212,240.785768 C56.2300968,240.734213 56.5247227,240.662897 56.8136558,240.572293 C57.2726115,240.438215 57.7072039,240.231623 58.1009957,239.960331 C58.5758621,239.641852 58.9762072,239.224319 59.2745377,238.736407 C59.648776,238.112854 59.8294835,237.392148 59.7937411,236.665697 L59.7937411,200.374917 C59.8199595,200.125846 59.6490857,199.89894 59.4025605,199.855461 C59.2464478,199.835716 59.0919505,199.804802 58.940256,199.762955 L58.0227596,199.535248 L57.0697013,199.307541 L56.5433855,199.243499 C56.2588905,199.179456 56.116643,199.037139 56.1024182,198.809433 C56.0881935,198.581726 56.2517781,198.432293 56.571835,198.346903 C57.4110953,198.14766 58.314367,197.891489 59.2958748,197.557045 C60.2773826,197.2226 61.2517781,196.845461 62.2403983,196.425626 C63.2290185,196.005792 64.1820768,195.557494 65.0853485,195.073617 C65.9396514,194.626871 66.7683482,194.132737 67.5675676,193.593522 C67.7416176,193.471589 67.953561,193.416053 68.1650071,193.436974 C68.3641536,193.436974 68.4708393,193.61487 68.4708393,193.920851 L68.4708393,215.047778 C68.9523793,214.614882 69.4685687,214.222197 70.0142248,213.873664 C70.6283949,213.480253 71.2814386,213.151188 71.9630156,212.891678 C72.7438302,212.582831 73.5507623,212.344682 74.374111,212.180095 C75.3477899,212.002337 76.3360178,211.91657 77.3257468,211.923924 C78.8217477,211.886844 80.3143608,212.083716 81.7496444,212.507423 C82.8246017,212.830354 83.8285911,213.354324 84.7083926,214.05156 C85.4584431,214.657759 86.0737484,215.413935 86.514936,216.271702 C86.9294464,217.098702 87.2331545,217.976774 87.4182077,218.883215 C87.5940341,219.770216 87.7010387,220.669493 87.7382646,221.573002 C87.7382646,222.462482 87.7880512,223.295035 87.7880512,224.070662 L87.7880512,236.665697 C87.7539678,237.391058 87.9319204,238.110634 88.3001422,238.736407 C88.5984727,239.224319 88.9988179,239.641852 89.4736842,239.960331 C89.867476,240.231623 90.3020685,240.438215 90.7610242,240.572293 C91.0562673,240.67339 91.3580581,240.754224 91.6642959,240.814232 Z" id="Path" fill="#5F5C51"></path>
                <path d="M101.650071,224.675508 C101.308677,224.675508 101.13798,224.86052 101.13798,225.223428 C101.104736,227.118657 101.300561,229.010959 101.721195,230.859173 C102.021235,232.241896 102.594325,233.550726 103.406828,234.708842 C104.113585,235.680097 105.069508,236.442257 106.173542,236.914752 C107.394293,237.411733 108.703679,237.653881 110.021337,237.626336 C111.025999,237.639057 112.027964,237.519432 113.001422,237.270544 C113.780696,237.066372 114.540037,236.792495 115.27027,236.452222 C115.817581,236.194684 116.345307,235.897396 116.849218,235.562742 C117.13536,235.356504 117.437397,235.17329 117.752489,235.014823 C117.979594,234.875252 118.272376,234.907474 118.463727,235.093097 C118.634424,235.278109 118.634424,235.555626 118.463727,235.918534 C118.399716,236.046619 118.257468,236.30279 118.029872,236.672813 C117.738295,237.134857 117.410069,237.572705 117.048364,237.982128 C116.552227,238.536633 116.014896,239.052817 115.440967,239.526265 C114.729991,240.103494 113.957113,240.599904 113.136558,241.006359 C112.16196,241.489979 111.136066,241.862345 110.078236,242.11643 C108.818548,242.419951 107.526055,242.565756 106.230441,242.550496 C104.242771,242.580053 102.267114,242.237342 100.405405,241.540047 C98.7207309,240.897603 97.1981743,239.891789 95.9459459,238.59409 C94.6827077,237.239949 93.7139812,235.638349 93.1009957,233.89052 C92.4001211,231.883479 92.0582409,229.76857 92.0910384,227.642813 C92.044838,225.337003 92.4708391,223.046132 93.3428165,220.911229 C94.1039146,219.07178 95.2205797,217.400803 96.628734,215.994184 C99.2626075,213.417492 102.795635,211.967862 106.479374,211.952388 C107.984129,211.930639 109.481159,212.171436 110.903272,212.663972 C112.098663,213.07953 113.21819,213.687638 114.217639,214.464279 C115.117377,215.163703 115.900055,216.002009 116.536273,216.947707 C117.119486,217.802938 117.617369,218.713388 118.02276,219.665957 C118.367735,220.487539 118.632134,221.340701 118.812233,222.213428 C118.94241,222.83886 119.0162,223.474722 119.032717,224.113357 C119.049476,224.289014 118.970733,224.46016 118.826458,224.561655 C118.654199,224.654427 118.460006,224.698694 118.26458,224.68974 L101.650071,224.675508 Z M101.301565,222.540757 C101.25889,222.82539 101.386913,222.960591 101.685633,222.960591 L102.332859,222.960591 L103.662873,222.91078 L105.355619,222.846738 L107.076814,222.782695 L108.499289,222.732884 C108.753623,222.73527 109.00784,222.721008 109.260313,222.690189 C109.654852,222.645727 110.027972,222.487506 110.334282,222.234775 C110.740915,221.879005 110.952491,221.349808 110.903272,220.811608 C110.886855,220.093029 110.798697,219.377892 110.640114,218.676856 C110.473562,217.857824 110.195985,217.065387 109.815078,216.321513 C109.460581,215.621331 108.978098,214.993799 108.392603,214.471395 C107.79996,213.963085 107.039163,213.694139 106.25889,213.717116 C105.637104,213.704591 105.02725,213.888881 104.516358,214.243688 C104.006544,214.617627 103.576188,215.089313 103.250356,215.631277 C102.882171,216.22336 102.583831,216.856149 102.361309,217.516974 C102.133723,218.177541 101.941417,218.849751 101.785206,219.530757 C101.628734,220.185414 101.522048,220.783144 101.443812,221.331064 C101.365576,221.878983 101.322902,222.270355 101.301565,222.547872 L101.301565,222.540757 Z" id="Shape" fill="#5F5C51" fill-rule="nonzero"></path>
                <path d="M161.920341,219.295934 C163.460038,219.657241 164.928735,220.272903 166.266003,221.117589 C167.318951,221.800892 168.235481,222.674433 168.968706,223.693522 C169.637318,224.624253 170.120291,225.675232 170.391181,226.788913 C170.648462,227.901924 170.777327,229.040781 170.775249,230.183168 C170.781547,231.690775 170.509064,233.186543 169.97155,234.594988 C169.41083,236.021729 168.50983,237.289606 167.347084,238.288109 C165.947628,239.446718 164.325901,240.30641 162.581792,240.814232 C160.233594,241.486592 157.797483,241.80085 155.355619,241.746407 L134.103841,241.746407 C133.930666,241.759638 133.758638,241.709017 133.620199,241.60409 C133.524536,241.522082 133.461446,241.408465 133.44239,241.283877 C133.43732,241.157416 133.483481,241.034261 133.570413,240.942317 C133.688379,240.823846 133.839791,240.744378 134.004267,240.71461 C134.267425,240.671915 134.672831,240.586525 135.227596,240.444208 C135.829997,240.28567 136.401988,240.028389 136.920341,239.682813 C137.514702,239.2951 138.025057,238.791756 138.421053,238.202719 C138.876734,237.470221 139.099908,236.616786 139.061166,235.75487 L139.061166,204.224586 C139.095577,203.36986 138.872569,202.524499 138.421053,201.798085 C138.030918,201.204212 137.519451,200.699771 136.920341,200.317991 C136.397303,199.980968 135.826711,199.724317 135.227596,199.556596 C134.672831,199.407163 134.267425,199.307541 134.004267,199.264846 C133.837773,199.257323 133.681352,199.182923 133.570413,199.058487 C133.47863,198.966338 133.431383,198.838844 133.440939,198.709105 C133.450494,198.579365 133.515908,198.460177 133.620199,198.382482 C133.758638,198.277555 133.930666,198.226934 134.103841,198.240165 L156.507824,198.240165 C158.424433,198.18737 160.336167,198.459233 162.162162,199.044255 C163.534021,199.497817 164.787698,200.251361 165.832148,201.250165 C166.752024,202.165891 167.435487,203.291713 167.823613,204.530567 C168.227867,205.829645 168.429383,207.183344 168.421053,208.543901 C168.420521,209.539244 168.313221,210.531657 168.100996,211.50409 C167.884846,212.501593 167.520435,213.461036 167.019915,214.350426 C166.483367,215.291141 165.798933,216.139291 164.992888,216.862317 C164.054283,217.691004 162.997068,218.374571 161.85633,218.890331 C161.728307,218.954374 161.671408,219.025532 161.692745,219.09669 C161.714083,219.167849 161.792319,219.253239 161.920341,219.295934 Z M149.687055,216.449598 C149.660261,216.970922 149.839032,217.481945 150.184922,217.872766 C150.561782,218.244742 151.078993,218.43879 151.607397,218.406454 C152.244265,218.391361 152.873158,218.261182 153.463727,218.022199 C154.215744,217.704049 154.865465,217.184512 155.341394,216.520757 C156.009922,215.579522 156.49272,214.519263 156.763869,213.396903 C157.195529,211.676151 157.391725,209.904739 157.347084,208.131182 C157.347084,207.184775 157.311522,206.231253 157.247511,205.284846 C157.196543,204.390424 157.024268,203.507086 156.73542,202.659102 C156.486514,201.932351 156.067002,201.275935 155.512091,200.744941 C154.886897,200.234216 154.091273,199.979899 153.285917,200.033357 C152.629971,200.004716 151.978554,200.154738 151.401138,200.467423 C150.903183,200.782958 150.515479,201.245445 150.291607,201.790969 C150.009525,202.48844 149.836792,203.225312 149.779516,203.975532 C149.694168,204.85078 149.651494,205.861229 149.651494,207.021111 L149.687055,216.449598 Z M153.954481,239.896288 C154.702138,239.926612 155.442759,239.741367 156.088193,239.3626 C156.665458,239.003998 157.152241,238.516978 157.510669,237.939433 C157.897025,237.336368 158.19184,236.679306 158.385491,235.989693 C158.585978,235.276147 158.731029,234.548163 158.819346,233.812246 C158.904694,233.100662 158.954481,232.389078 158.975818,231.720189 C158.997155,231.0513 158.975818,230.489149 158.975818,230.012388 C158.999093,228.622034 158.870305,227.233304 158.59175,225.870969 C158.386317,224.89793 158.038826,223.960449 157.560455,223.088676 C156.904044,221.893023 155.830517,220.981094 154.544808,220.526974 C154.059671,220.350107 153.552102,220.242315 153.036984,220.206761 C152.553343,220.206761 152.147937,220.15695 151.827881,220.15695 C151.252652,220.12582 150.687436,220.316864 150.248933,220.690638 C149.86071,221.059682 149.650696,221.578486 149.672831,222.113806 L149.672831,232.225414 C149.665634,233.281251 149.725021,234.336491 149.85064,235.384846 C149.933649,236.215091 150.15481,237.025609 150.504979,237.782884 C150.797805,238.399988 151.249483,238.928021 151.813656,239.31279 C152.454477,239.726788 153.206298,239.935315 153.968706,239.91052 L153.954481,239.896288 Z" id="Shape" fill="#5F5C51" fill-rule="nonzero"></path>
                <path d="M191.223329,211.952388 C192.000716,211.932976 192.775583,212.048541 193.513514,212.293948 C194.07584,212.481871 194.590414,212.79028 195.021337,213.19766 C195.405837,213.560081 195.694241,214.01246 195.860597,214.51409 C196.03201,215.027941 196.118494,215.566327 196.116643,216.108038 C196.165073,217.020354 195.805394,217.906952 195.135135,218.527423 C194.398994,219.13387 193.46305,219.443466 192.510669,219.395556 C191.826403,219.433076 191.145582,219.275127 190.547653,218.940142 C190.105371,218.664391 189.699201,218.334515 189.338549,217.958156 L188.421053,216.97617 C188.1609,216.685063 187.787126,216.521457 187.396871,216.527872 C186.977085,216.541947 186.569005,216.669841 186.216216,216.897896 C185.706695,217.257 185.305645,217.749325 185.056899,218.321064 C184.636795,219.226028 184.340162,220.183376 184.174964,221.1674 C183.911326,222.711308 183.792271,224.276462 183.819346,225.842506 L183.819346,236.957447 C183.786509,237.659592 183.93598,238.358277 184.253201,238.985461 C184.713922,239.80161 185.482514,240.39884 186.386913,240.643452 C186.650616,240.72035 186.919097,240.779777 187.190612,240.821348 C187.331976,240.850968 187.460976,240.922946 187.560455,241.027707 C187.632832,241.111897 187.661768,241.225068 187.638691,241.333688 C187.614538,241.44843 187.551775,241.55141 187.460882,241.625437 C187.349193,241.717188 187.206794,241.762981 187.062589,241.753522 L171.906117,241.753522 C171.761912,241.762981 171.619513,241.717188 171.507824,241.625437 C171.41693,241.55141 171.354168,241.44843 171.330014,241.333688 C171.310095,241.225155 171.338686,241.113338 171.40825,241.027707 C171.507729,240.922946 171.63673,240.850968 171.778094,240.821348 C172.049609,240.779777 172.31809,240.72035 172.581792,240.643452 C173.488763,240.404023 174.259167,239.805385 174.715505,238.985461 C175.036179,238.359503 175.185848,237.659887 175.14936,236.957447 L175.14936,218.783593 C175.176013,218.536814 175.008951,218.310862 174.765292,218.264137 C174.606897,218.24403 174.450059,218.213123 174.295875,218.171631 L173.378378,217.943924 L172.432432,217.716217 L171.899004,217.588132 C171.621622,217.52409 171.472262,217.381773 171.465149,217.154066 C171.458037,216.926359 171.607397,216.776927 171.927454,216.691537 C172.848658,216.47613 173.757923,216.212481 174.651494,215.901678 C175.62826,215.564862 176.609768,215.187723 177.596017,214.77026 C178.584637,214.350426 179.537696,213.902128 180.440967,213.418251 C181.294285,212.979092 182.120777,212.489609 182.916074,211.952388 C183.09039,211.83103 183.302118,211.775551 183.513514,211.795839 C183.719772,211.795839 183.819346,211.973735 183.819346,212.279716 L183.819346,216.883664 C184.453001,215.374353 185.516633,214.085 186.877667,213.176312 C188.178605,212.359097 189.687328,211.934176 191.223329,211.952388 Z" id="Path" fill="#5F5C51"></path>
                <path d="M210.746799,236.694161 C210.711057,237.420611 210.891765,238.141317 211.266003,238.76487 C211.564333,239.252783 211.964678,239.670315 212.439545,239.988794 C212.833337,240.260086 213.267929,240.466678 213.726885,240.600757 C214.017945,240.69239 214.315007,240.763719 214.615932,240.814232 C214.757296,240.843852 214.886296,240.91583 214.985775,241.020591 C215.05534,241.106222 215.08393,241.218039 215.064011,241.326572 C215.039858,241.441314 214.977095,241.544295 214.886202,241.618322 C214.771656,241.709909 214.627142,241.755567 214.480797,241.746407 L198.321479,241.746407 C198.177275,241.755865 198.034875,241.710072 197.923186,241.618322 C197.832293,241.544295 197.76953,241.441314 197.745377,241.326572 C197.7223,241.217952 197.751236,241.104781 197.823613,241.020591 C197.923092,240.91583 198.052093,240.843852 198.193457,240.814232 C198.494219,240.762923 198.791227,240.691606 199.082504,240.600757 C199.540904,240.465224 199.975275,240.258737 200.369844,239.988794 C200.843141,239.66845 201.243127,239.251292 201.543385,238.76487 C201.911607,238.139097 202.08956,237.419522 202.055477,236.694161 L202.055477,218.783593 C202.082129,218.536814 201.915068,218.310862 201.671408,218.264137 C201.513013,218.24403 201.356176,218.213123 201.201991,218.171631 L200.284495,217.943924 L199.338549,217.716217 L198.805121,217.588132 C198.527738,217.52409 198.378378,217.381773 198.371266,217.154066 C198.364154,216.926359 198.513514,216.776927 198.840683,216.691537 C199.759273,216.475073 200.666116,216.211438 201.55761,215.901678 C202.534376,215.564862 203.515884,215.187723 204.502134,214.77026 C205.490754,214.350426 206.443812,213.902128 207.347084,213.418251 C208.201782,212.97744 209.030545,212.488018 209.829303,211.952388 C210.000893,211.83095 210.210447,211.775379 210.41963,211.795839 C210.625889,211.795839 210.725462,211.973735 210.725462,212.279716 L210.746799,236.694161 Z M211.009957,200.403381 C210.759943,199.794505 210.392603,199.240808 209.928876,198.773853 C209.456894,198.306096 208.899015,197.933995 208.285917,197.678014 C207.608649,197.403156 206.882974,197.267631 206.152205,197.279527 C205.41968,197.271202 204.693311,197.414124 204.018492,197.699362 C203.378409,197.961001 202.794198,198.342613 202.297297,198.823664 C201.811218,199.296359 201.422221,199.859591 201.152205,200.481655 C200.873802,201.116392 200.730878,201.802277 200.732575,202.495437 C200.726877,203.181525 200.859938,203.861678 201.123755,204.494988 C201.367261,205.099307 201.732887,205.646801 202.197724,206.103168 C203.192676,207.070118 204.530542,207.602454 205.917496,207.583262 C206.650096,207.592409 207.376632,207.449454 208.051209,207.163428 C208.699974,206.909903 209.29755,206.541057 209.815078,206.074704 C210.311087,205.612988 210.70586,205.053252 210.974395,204.430946 C211.252798,203.796209 211.395722,203.110324 211.394026,202.417163 C211.398724,201.734164 211.268191,201.056995 211.009957,200.424728 L211.009957,200.403381 Z" id="Shape" fill="#5F5C51" fill-rule="nonzero"></path>
                <path d="M235.41963,238.380615 C237.40495,238.698435 239.358775,239.188915 241.25889,239.846478 C242.593624,240.29654 243.848993,240.954549 244.978663,241.796217 C245.824441,242.425564 246.495292,243.260862 246.927454,244.222719 C247.309196,245.147441 247.500311,246.139783 247.489331,247.140213 C247.467977,248.683039 246.929483,250.174017 245.960171,251.374137 C245.348445,252.135483 244.62975,252.804195 243.826458,253.359456 C242.799606,254.047275 241.690998,254.60424 240.526316,255.017447 C239.021661,255.548329 237.46841,255.929681 235.889047,256.155981 C233.864243,256.455435 231.819112,256.595809 229.772404,256.575816 C227.771118,256.591921 225.770845,256.480212 223.783784,256.241371 C222.317098,256.062788 220.868126,255.760475 219.452347,255.33766 C218.430599,255.037375 217.452611,254.604363 216.543385,254.049693 C215.879444,253.643231 215.286092,253.131307 214.786629,252.534019 C214.400001,252.069446 214.109849,251.532402 213.933144,250.954303 C213.788278,250.469187 213.711677,249.966243 213.705548,249.459976 C213.708563,248.776261 213.887363,248.104823 214.224751,247.510236 C214.599982,246.838543 215.096814,246.242536 215.6899,245.752624 C216.378757,245.171131 217.14766,244.691831 217.972973,244.329456 C218.936888,243.907901 219.946506,243.599854 220.981508,243.411513 C221.109531,243.361702 221.180654,243.304775 221.194879,243.233617 C221.209104,243.162459 221.152205,243.077069 221.045519,242.991678 C220.169915,242.413062 219.416042,241.668492 218.826458,240.8 C218.23194,239.879313 217.929476,238.80033 217.958748,237.70461 C217.94155,236.970941 218.084766,236.242371 218.378378,235.569858 C218.655814,234.945305 219.060342,234.385476 219.566145,233.926099 C220.116371,233.429692 220.740183,233.021616 221.415363,232.716407 C222.174056,232.368439 222.96815,232.103612 223.783784,231.926548 C223.933144,231.883853 224.01138,231.812695 224.01138,231.705957 C224.01138,231.59922 223.947368,231.520946 223.819346,231.478251 C222.770045,231.090552 221.777348,230.564047 220.86771,229.912766 C220.030833,229.309763 219.283701,228.591016 218.648649,227.778014 C218.042113,227.007327 217.561956,226.145026 217.226174,225.223428 C216.891958,224.292207 216.723453,223.309588 216.728307,222.320165 C216.726286,220.915145 217.091625,219.534032 217.788051,218.313948 C218.528886,217.020482 219.526042,215.892082 220.71835,214.997967 C222.042793,213.998527 223.529789,213.235408 225.113798,212.742246 C226.867874,212.182456 228.699433,211.903866 230.540541,211.916809 C232.887862,211.878366 235.21539,212.351868 237.361309,213.304397 C237.592695,213.412303 237.864136,213.387861 238.072546,213.240355 C238.456151,212.955544 238.7619,212.578678 238.961593,212.144515 C239.115628,211.77136 239.202318,211.373837 239.217639,210.970402 C239.225923,210.592168 239.20452,210.213866 239.153627,209.838983 C239.10217,209.526131 239.076006,209.209637 239.075391,208.892577 C239.067097,208.218272 239.307675,207.564596 239.751067,207.05669 C240.265973,206.489281 241.014455,206.19237 241.778094,206.2526 C242.561658,206.20327 243.326981,206.502777 243.869132,207.070922 C244.375082,207.690556 244.629038,208.478202 244.58037,209.276832 C244.589416,209.887528 244.463108,210.492644 244.210526,211.048676 C243.968111,211.579832 243.630649,212.062155 243.214794,212.471844 C242.787996,212.900939 242.310282,213.276127 241.792319,213.589031 C241.248258,213.90712 240.671105,214.164818 240.071124,214.357541 C239.900427,214.400236 239.815078,214.485626 239.829303,214.59948 C239.826215,214.700798 239.881537,214.794892 239.97155,214.841418 C241.113231,215.719458 242.058176,216.82728 242.745377,218.093357 C243.406253,219.332389 243.748452,220.716526 243.74111,222.120922 C243.740708,223.535157 243.367829,224.924317 242.660028,226.148487 C241.918542,227.441485 240.921494,228.569763 239.72973,229.464468 C238.410664,230.456591 236.931135,231.214767 235.355619,231.705957 C233.601182,232.263451 231.769613,232.539641 229.928876,232.524279 C229.434751,232.523042 228.941001,232.496917 228.449502,232.446005 C227.956549,232.391341 227.458292,232.408117 226.970128,232.495816 C226.506882,232.563559 226.065967,232.739036 225.682788,233.008156 C225.288325,233.259445 225.055775,233.700424 225.071124,234.168038 C225.067509,234.591256 225.213632,235.002113 225.483642,235.32792 C225.918627,235.772903 226.448729,236.113502 227.034139,236.324137 C228.054984,236.735775 229.109066,237.059533 230.184922,237.291891 C231.522048,237.669031 233.285917,238.003475 235.41963,238.380615 Z M231.152205,254.747045 C232.149131,254.74276 233.143822,254.652289 234.125178,254.476643 C235.099147,254.30958 236.052755,254.040055 236.970128,253.672553 C237.760584,253.367755 238.485002,252.913565 239.103841,252.334775 C239.591426,251.842356 239.853962,251.170246 239.829303,250.477541 C239.838815,249.829635 239.563116,249.210312 239.075391,248.783972 C238.479311,248.26748 237.798309,247.858199 237.062589,247.574279 C236.14188,247.206347 235.189644,246.922919 234.217639,246.727494 C233.157895,246.499787 232.083926,246.286312 230.953058,246.094184 C229.964438,245.923404 228.819346,245.709929 227.553343,245.453759 C226.277803,245.197225 225.0245,244.840324 223.805121,244.386383 C223.680677,244.343552 223.545497,244.343552 223.421053,244.386383 C222.663232,244.65658 221.972052,245.086049 221.394026,245.645887 C220.779742,246.28168 220.462085,247.147264 220.519203,248.029693 C220.490248,249.108347 220.806746,250.16801 221.422475,251.053924 C222.049621,251.912357 222.858306,252.621819 223.790896,253.131749 C224.846777,253.709448 225.986793,254.117653 227.169275,254.341442 C228.46612,254.606249 229.78596,254.742111 231.109531,254.747045 L231.152205,254.747045 Z M230.248933,213.589031 C229.569847,213.57583 228.910328,213.816926 228.399716,214.265035 C227.8288,214.780021 227.381454,215.417312 227.091038,216.129385 C226.724316,217.017691 226.466396,217.947135 226.322902,218.897447 C225.972035,221.139511 225.972035,223.422546 226.322902,225.66461 C226.464521,226.615321 226.722504,227.544991 227.091038,228.432671 C227.381386,229.146832 227.828663,229.786458 228.399716,230.304137 C228.912082,230.74928 229.570419,230.989943 230.248933,230.980142 C230.923141,230.98979 231.576967,230.748923 232.083926,230.304137 C232.646109,229.780228 233.089876,229.142154 233.385491,228.432671 C233.768073,227.54834 234.033479,226.617771 234.174964,225.66461 C234.516389,223.421821 234.516389,221.140236 234.174964,218.897447 C234.031519,217.944711 233.766184,217.014391 233.385491,216.129385 C233.089768,215.422028 232.645946,214.7863 232.083926,214.265035 C231.571172,213.799304 230.89856,213.549501 230.206259,213.567683 L230.248933,213.589031 Z" id="Shape" fill="#5F5C51" fill-rule="nonzero"></path>
                <path d="M282.688478,240.814232 C282.829842,240.843852 282.958842,240.91583 283.058321,241.020591 C283.127886,241.106222 283.156477,241.218039 283.136558,241.326572 C283.112404,241.441314 283.049642,241.544295 282.958748,241.618322 C282.844203,241.709909 282.699688,241.755567 282.553343,241.746407 L266.394026,241.746407 C266.249821,241.755865 266.107422,241.710072 265.995733,241.618322 C265.904839,241.544295 265.842077,241.441314 265.817923,241.326572 C265.794846,241.217952 265.823783,241.104781 265.896159,241.020591 C265.995638,240.91583 266.124639,240.843852 266.266003,240.814232 C266.566765,240.762923 266.863773,240.691606 267.15505,240.600757 C267.61345,240.465224 268.047821,240.258737 268.44239,239.988794 C268.915687,239.66845 269.315673,239.251292 269.615932,238.76487 C269.984154,238.139097 270.162106,237.419522 270.128023,236.694161 L270.128023,222.811158 C270.128023,221.907447 270.035562,220.975272 269.921764,220.021749 C269.825813,219.11879 269.585682,218.237081 269.210526,217.410236 C268.413778,215.655808 266.607854,214.584794 264.687055,214.727565 C263.669279,214.656291 262.654688,214.905086 261.785206,215.439149 C261.122161,215.905028 260.594498,216.538532 260.256046,217.275035 C259.924926,218.013971 259.718249,218.802612 259.644381,219.609031 C259.573257,220.434468 259.537696,221.1674 259.537696,221.814941 L259.537696,236.665697 C259.503612,237.391058 259.681565,238.110634 260.049787,238.736407 C260.348117,239.224319 260.748462,239.641852 261.223329,239.960331 C261.61712,240.231623 262.051713,240.438215 262.510669,240.572293 C262.801946,240.663143 263.098953,240.734459 263.399716,240.785768 C263.54108,240.815389 263.67008,240.887366 263.769559,240.992128 C263.839124,241.077759 263.867714,241.189575 263.847795,241.298109 C263.823642,241.412851 263.760879,241.515831 263.669986,241.589858 C263.558297,241.681609 263.415898,241.727402 263.271693,241.717943 L247.076814,241.717943 C246.932609,241.727402 246.79021,241.681609 246.678521,241.589858 C246.587627,241.515831 246.524865,241.412851 246.500711,241.298109 C246.480792,241.189575 246.509383,241.077759 246.578947,240.992128 C246.678426,240.887366 246.807427,240.815389 246.948791,240.785768 C247.249553,240.734459 247.546561,240.663143 247.837838,240.572293 C248.296794,240.438215 248.731386,240.231623 249.125178,239.960331 C249.600044,239.641852 250.000389,239.224319 250.29872,238.736407 C250.666942,238.110634 250.844894,237.391058 250.810811,236.665697 L250.810811,200.374917 C250.837464,200.128138 250.670402,199.902186 250.426743,199.855461 C250.27063,199.835716 250.116133,199.804802 249.964438,199.762955 L249.046942,199.535248 L248.093883,199.307541 L247.560455,199.179456 C247.283073,199.115414 247.140825,198.973097 247.1266,198.74539 C247.112376,198.517683 247.27596,198.368251 247.596017,198.282861 C248.435277,198.083617 249.338549,197.827447 250.312945,197.493002 C251.28734,197.158558 252.27596,196.781418 253.257468,196.361584 C254.238976,195.941749 255.206259,195.493452 256.102418,195.009574 C256.957116,194.568764 257.78588,194.079341 258.584637,193.543712 C258.758687,193.421778 258.970631,193.366242 259.182077,193.387163 C259.381223,193.387163 259.487909,193.565059 259.487909,193.87104 L259.487909,214.997967 C259.968049,214.563381 260.484384,214.170584 261.031294,213.823853 C261.644672,213.429052 262.297864,213.099912 262.980085,212.841868 C263.7609,212.53302 264.567832,212.294871 265.391181,212.130284 C266.362411,211.952133 267.348316,211.86636 268.335704,211.874113 C269.834069,211.836524 271.329103,212.033398 272.766714,212.457612 C273.841671,212.780543 274.845661,213.304513 275.725462,214.001749 C276.475513,214.607948 277.090818,215.364124 277.532006,216.221891 C277.944214,217.049179 278.245533,217.927259 278.428165,218.833404 C278.609798,219.719664 278.719214,220.619215 278.755334,221.523191 C278.783784,222.415043 278.798009,223.247597 278.798009,224.020851 L278.798009,236.615887 C278.76607,237.341957 278.946507,238.061582 279.317212,238.686596 C279.615542,239.174508 280.015888,239.592041 280.490754,239.91052 C280.884546,240.181812 281.319138,240.388404 281.778094,240.522482 C282.074108,240.64162 282.378367,240.739125 282.688478,240.814232 Z" id="Path" fill="#5F5C51"></path>
                <path d="M302.27596,237.078416 C302.667141,236.886288 302.944523,236.907636 303.11522,237.142459 C303.261001,237.357232 303.261001,237.639269 303.11522,237.854043 C302.720795,238.55035 302.227247,239.185564 301.650071,239.73974 C301.044983,240.316979 300.368556,240.814383 299.637269,241.219835 C298.86022,241.648533 298.030539,241.973869 297.169275,242.187589 C296.238947,242.419194 295.282973,242.531575 294.324324,242.522033 C293.248868,242.522447 292.177874,242.383724 291.13798,242.109314 C290.088239,241.830876 289.115442,241.317475 288.29303,240.607872 C287.392053,239.804466 286.692773,238.800134 286.251778,237.676147 C285.677372,236.171797 285.408967,234.567843 285.462304,232.958345 L285.462304,214.898345 C285.472376,214.826485 285.447612,214.754124 285.395629,214.703521 C285.343646,214.652919 285.270669,214.630134 285.199147,214.642175 L284.495021,214.642175 C284.173929,214.666805 283.851033,214.633053 283.541963,214.542553 C283.41058,214.448777 283.342083,214.289787 283.364154,214.129835 C283.385378,213.800499 283.515489,213.48758 283.733997,213.240355 C283.946611,212.945374 284.287992,212.770629 284.651494,212.770709 L285.362731,212.770709 C285.512091,212.770709 285.590327,212.685319 285.590327,212.514539 L285.590327,204.800969 C285.590327,204.331324 285.782361,204.089385 286.16643,203.996879 C286.70697,203.890142 287.27596,203.747825 287.887624,203.562813 C288.499289,203.377801 289.125178,203.164326 289.758179,202.922388 C290.391181,202.680449 291.009957,202.402931 291.621622,202.111182 C292.205506,201.842924 292.770992,201.536272 293.314367,201.193239 C293.510715,201.063814 293.758308,201.039842 293.975818,201.129196 C294.174964,201.214586 294.28165,201.435177 294.28165,201.776738 L294.28165,212.535887 C294.28165,212.685319 294.366999,212.756478 294.537696,212.756478 L300.590327,212.756478 C300.911411,212.732471 301.234196,212.766211 301.543385,212.856099 C301.657183,212.920142 301.714083,213.062459 301.714083,213.275934 C301.685124,213.61717 301.524393,213.933684 301.266003,214.158298 C301.015201,214.448408 300.65355,214.618984 300.27027,214.627943 L294.509246,214.627943 C294.446374,214.618078 294.382575,214.638872 294.337574,214.683894 C294.292573,214.728917 294.27179,214.792747 294.28165,214.85565 L294.28165,234.659031 C294.259508,235.663048 294.662501,236.629667 295.391181,237.320355 C295.721089,237.639346 296.116788,237.882224 296.550498,238.031939 C296.980596,238.181133 297.432411,238.258075 297.887624,238.259645 C298.762279,238.266657 299.632126,238.129626 300.462304,237.854043 C301.085517,237.641564 301.691794,237.382284 302.27596,237.078416 Z" id="Path" fill="#5F5C51"></path>
                <path d="M312.745377,224.675508 C312.403983,224.675508 312.233286,224.86052 312.233286,225.223428 C312.201606,227.118205 312.394995,229.010039 312.809388,230.859173 C313.114841,232.241369 313.690093,233.549615 314.502134,234.708842 C315.208891,235.680097 316.164813,236.442257 317.268848,236.914752 C318.489599,237.411733 319.798984,237.653881 321.116643,237.626336 C322.121304,237.639057 323.12327,237.519432 324.096728,237.270544 C324.875632,237.06518 325.634868,236.791341 326.365576,236.452222 C326.912067,236.193098 327.439682,235.895873 327.944523,235.562742 C328.229644,235.354963 328.53181,235.171671 328.847795,235.014823 C329.0749,234.875252 329.367682,234.907474 329.559033,235.093097 C329.72973,235.278109 329.72973,235.555626 329.559033,235.918534 C329.495021,236.046619 329.352774,236.30279 329.125178,236.672813 C328.833601,237.134857 328.505375,237.572705 328.14367,237.982128 C327.647533,238.536633 327.110202,239.052817 326.536273,239.526265 C325.825297,240.103494 325.052419,240.599904 324.231863,241.006359 C323.256773,241.488825 322.231011,241.861144 321.173542,242.11643 C319.913854,242.419951 318.621361,242.565756 317.325747,242.550496 C315.338077,242.580053 313.36242,242.237342 311.500711,241.540047 C309.814202,240.901188 308.290906,239.894885 307.041252,238.59409 C305.77568,237.241716 304.80664,235.639597 304.196302,233.89052 C303.492864,231.88395 303.14857,229.769004 303.179232,227.642813 C303.135286,225.33651 303.563711,223.045621 304.438122,220.911229 C305.19922,219.07178 306.315886,217.400803 307.72404,215.994184 C310.357913,213.417492 313.890941,211.967862 317.57468,211.952388 C319.079434,211.930639 320.576465,212.171436 321.998578,212.663972 C323.193969,213.07953 324.313496,213.687638 325.312945,214.464279 C326.212683,215.163703 326.995361,216.002009 327.631579,216.947707 C328.214792,217.802938 328.712675,218.713388 329.118065,219.665957 C329.464129,220.486517 329.726253,221.340027 329.900427,222.213428 C330.03221,222.838773 330.108373,223.474567 330.128023,224.113357 C330.144782,224.289014 330.066039,224.46016 329.921764,224.561655 C329.747282,224.655351 329.550553,224.699637 329.352774,224.68974 L312.745377,224.675508 Z M312.396871,222.540757 C312.347084,222.82539 312.482219,222.960591 312.780939,222.960591 L313.421053,222.960591 L314.758179,222.91078 L316.450925,222.846738 L318.172119,222.782695 L319.594595,222.732884 C319.848922,222.73499 320.103121,222.720729 320.355619,222.690189 C320.749845,222.644539 321.122642,222.486456 321.429587,222.234775 C321.834569,221.878274 322.043623,221.348767 321.991465,220.811608 C321.977766,220.093242 321.891987,219.378069 321.73542,218.676856 C321.568868,217.857824 321.291291,217.065387 320.910384,216.321513 C320.557771,215.620145 320.075034,214.992281 319.487909,214.471395 C318.896677,213.960648 318.134901,213.691357 317.354196,213.717116 C316.73241,213.704591 316.122556,213.888881 315.611664,214.243688 C315.113704,214.61576 314.691264,215.079463 314.366999,215.609929 C314.004035,216.203828 313.708238,216.836284 313.485064,217.495626 C313.250356,218.20721 313.058321,218.854752 312.901849,219.509409 C312.745377,220.164066 312.638691,220.761797 312.567568,221.309716 C312.496444,221.857636 312.418208,222.270355 312.396871,222.547872 L312.396871,222.540757 Z" id="Shape" fill="#5F5C51" fill-rule="nonzero"></path>
                <path d="M352.347084,211.952388 C353.122111,211.933513 353.89455,212.049074 354.630156,212.293948 C355.194539,212.481979 355.711413,212.790312 356.145092,213.19766 C356.525192,213.562365 356.810803,214.014192 356.97724,214.51409 C357.154818,215.026594 357.243811,215.565624 357.240398,216.108038 C357.288828,217.020354 356.929149,217.906952 356.25889,218.527423 C355.522749,219.13387 354.586805,219.443466 353.634424,219.395556 C352.949884,219.436285 352.268172,219.27813 351.671408,218.940142 C351.227836,218.666206 350.821446,218.336152 350.462304,217.958156 C350.125652,217.607108 349.81982,217.279779 349.544808,216.97617 C349.281893,216.68473 348.905859,216.521271 348.513514,216.527872 C348.096164,216.543222 347.690705,216.671065 347.339972,216.897896 C346.828664,217.255078 346.427159,217.747962 346.180654,218.321064 C345.757778,219.225549 345.458735,220.182954 345.291607,221.1674 C345.030843,222.711591 344.914172,224.276698 344.943101,225.842506 L344.943101,236.957447 C344.906613,237.659887 345.056282,238.359503 345.376956,238.985461 C345.620173,239.43035 345.960524,239.814647 346.372688,240.109764 C346.709076,240.350221 347.084432,240.530768 347.482219,240.643452 C347.745922,240.72035 348.014403,240.779777 348.285917,240.821348 C348.428471,240.847726 348.558414,240.92023 348.655761,241.027707 C348.729688,241.111164 348.761159,241.223992 348.74111,241.333688 C348.71398,241.447226 348.651761,241.549315 348.5633,241.625437 C348.448122,241.715831 348.304073,241.761342 348.157895,241.753522 L333.029872,241.753522 C332.883694,241.761342 332.739645,241.715831 332.624467,241.625437 C332.536006,241.549315 332.473786,241.447226 332.446657,241.333688 C332.426607,241.223992 332.458079,241.111164 332.532006,241.027707 C332.629353,240.92023 332.759296,240.847726 332.901849,240.821348 C333.173364,240.779777 333.441845,240.72035 333.705548,240.643452 C334.103335,240.530768 334.478691,240.350221 334.815078,240.109764 C335.227243,239.814647 335.567593,239.43035 335.810811,238.985461 C336.133944,238.360177 336.286075,237.660526 336.251778,236.957447 L336.251778,218.783593 C336.27448,218.535511 336.105203,218.310726 335.860597,218.264137 C335.704485,218.244392 335.549987,218.213478 335.398293,218.171631 L334.480797,217.943924 L333.527738,217.716217 L332.99431,217.588132 C332.716927,217.52409 332.57468,217.381773 332.560455,217.154066 C332.54623,216.926359 332.709815,216.776927 333.029872,216.691537 C333.948713,216.476029 334.855605,216.21238 335.746799,215.901678 C336.728307,215.567234 337.709815,215.190095 338.698435,214.77026 C339.687055,214.350426 340.640114,213.902128 341.543385,213.418251 C342.398084,212.97744 343.226847,212.488018 344.025605,211.952388 C344.199655,211.830454 344.411598,211.774918 344.623044,211.795839 C344.822191,211.795839 344.928876,211.973735 344.928876,212.279716 L344.928876,216.883664 C345.560339,215.373027 346.624446,214.083097 347.987198,213.176312 C349.291884,212.355708 350.806153,211.930617 352.347084,211.952388 Z" id="Path" fill="#5F5C51"></path>
                <path d="M370.369844,241.589858 L370.369844,230.119125 C370.369844,229.756217 370.497866,229.542742 370.761024,229.492931 C371.024182,229.443121 371.209104,229.56409 371.337127,229.862955 C372.03976,231.490285 372.884674,233.052351 373.86202,234.530946 C374.703498,235.804407 375.723934,236.94996 376.891892,237.932317 C377.97984,238.833213 379.21713,239.536452 380.547653,240.010142 C381.975795,240.498203 383.476713,240.738852 384.985775,240.721726 C385.880782,240.728143 386.771228,240.59367 387.624467,240.323239 C388.444246,240.061586 389.198486,239.627262 389.836415,239.049504 C390.491297,238.425315 391.005372,237.668383 391.344239,236.829362 C391.744716,235.790767 391.93568,234.683115 391.906117,233.570307 C391.930995,232.47879 391.707231,231.395924 391.251778,230.403759 C390.814707,229.491301 390.214503,228.666523 389.480797,227.970142 C388.720271,227.246534 387.869174,226.624644 386.948791,226.120024 C386.000474,225.593452 385.035562,225.119062 384.054054,224.696856 C382.958748,224.22721 381.877667,223.729102 380.817923,223.216761 C379.765488,222.706896 378.748497,222.126834 377.773826,221.480496 C376.812459,220.835126 375.923065,220.088434 375.12091,219.253239 C374.299219,218.3957 373.611106,217.419399 373.079659,216.357092 C372.593352,215.43398 372.209374,214.460442 371.934566,213.45383 C371.662606,212.456755 371.526243,211.427549 371.529161,210.394019 C371.538074,208.825223 371.809737,207.269016 372.332859,205.790071 C372.892427,204.215678 373.796361,202.786184 374.978663,201.605957 C376.342515,200.268905 377.970441,199.231566 379.758179,198.560378 C382.081165,197.716415 384.542337,197.31809 387.012802,197.386265 C388.602674,197.362317 390.190574,197.507826 391.749644,197.820331 C392.883325,198.053063 393.996449,198.376692 395.078236,198.788085 C395.791035,199.054465 396.476909,199.388038 397.1266,199.784303 C397.596017,200.0974 397.837838,200.282411 397.930299,200.346454 C398.171577,200.502283 398.316464,200.770722 398.314367,201.058038 L398.314367,206.921489 C398.320093,207.056604 398.274336,207.188855 398.186344,207.291513 C398.113413,207.381103 398.009172,207.439608 397.894737,207.455177 C397.784335,207.461536 397.674145,207.439487 397.57468,207.391135 C397.456433,207.321951 397.365915,207.21378 397.318634,207.085154 C396.910039,206.093493 396.434793,205.130652 395.896159,204.203239 C394.73433,202.176557 392.884577,200.633925 390.682788,199.855461 C389.267539,199.355235 387.773792,199.114191 386.273115,199.143877 C384.039829,199.143877 382.302039,199.670449 381.059744,200.723593 C379.813345,201.783382 379.123516,203.357903 379.189189,204.993097 C379.1686,205.920381 379.34307,206.841639 379.70128,207.697116 C380.109811,208.549636 380.711305,209.295169 381.458037,209.874563 C382.479007,210.671644 383.585946,211.351883 384.758179,211.902577 C386.133239,212.57621 387.861546,213.332861 389.943101,214.17253 C391.792222,214.906042 393.578587,215.788951 395.284495,216.812506 C396.725916,217.6764 398.034065,218.745482 399.167852,219.98617 C400.199631,221.147997 400.996675,222.4988 401.514936,223.963924 C402.066192,225.602408 402.333202,227.323172 402.30441,229.051749 C402.31702,230.873173 401.971438,232.679295 401.28734,234.367281 C400.60459,236.033417 399.542793,237.517246 398.186344,238.700827 C396.637497,240.016987 394.840575,241.009042 392.901849,241.618322 C390.464726,242.362117 387.924234,242.710464 385.376956,242.650118 C383.545457,242.640307 381.722382,242.401256 379.950213,241.938534 C378.157895,241.464145 376.424846,240.954177 374.751067,240.408629 L373.975818,240.145343 C373.715791,240.062834 373.4449,240.019662 373.172119,240.017258 C372.737607,239.983438 372.315252,240.170648 372.048364,240.515366 C371.765977,240.902859 371.527438,241.320505 371.337127,241.760638 C371.267391,242.024116 371.00822,242.190807 370.739687,242.144894 C370.493125,242.11643 370.369844,241.931418 370.369844,241.589858 Z" id="Path" fill="#5F5C51"></path>
                <path d="M416.073969,236.694161 C416.038226,237.420611 416.218934,238.141317 416.593172,238.76487 C416.891503,239.252783 417.291848,239.670315 417.766714,239.988794 C418.160506,240.260086 418.595098,240.466678 419.054054,240.600757 C419.342987,240.691361 419.637613,240.762676 419.935989,240.814232 C420.079901,240.84249 420.211563,240.914567 420.312945,241.020591 C420.382509,241.106222 420.4111,241.218039 420.391181,241.326572 C420.367027,241.441314 420.304265,241.544295 420.213371,241.618322 C420.098193,241.708715 419.954144,241.754226 419.807966,241.746407 L403.669986,241.746407 C403.525781,241.755865 403.383382,241.710072 403.271693,241.618322 C403.180799,241.544295 403.118037,241.441314 403.093883,241.326572 C403.070806,241.217952 403.099743,241.104781 403.172119,241.020591 C403.269467,240.913114 403.39941,240.84061 403.541963,240.814232 C403.840506,240.763487 404.135186,240.692159 404.423898,240.600757 C404.885116,240.466812 405.322072,240.260238 405.71835,239.988794 C406.190002,239.666502 406.589619,239.249728 406.891892,238.76487 C407.260114,238.139097 407.438066,237.419522 407.403983,236.694161 L407.403983,218.783593 C407.430636,218.536814 407.263574,218.310862 407.019915,218.264137 C406.86152,218.24403 406.704683,218.213123 406.550498,218.171631 L405.633001,217.943924 L404.694168,217.744681 L404.16074,217.616596 C403.883357,217.552553 403.733997,217.410236 403.726885,217.18253 C403.719772,216.954823 403.869132,216.80539 404.196302,216.72 C405.114892,216.503536 406.021735,216.239901 406.913229,215.930142 C407.885254,215.593325 408.866761,215.216186 409.857752,214.798723 C410.846373,214.378889 411.799431,213.930591 412.702703,213.446714 C413.557401,213.005903 414.386164,212.516481 415.184922,211.980851 C415.356512,211.859413 415.566066,211.803842 415.775249,211.824303 C415.981508,211.824303 416.081081,212.002199 416.081081,212.30818 L416.073969,236.694161 Z M416.330014,200.403381 C416.085152,199.793497 415.719883,199.239276 415.256046,198.773853 C414.784064,198.306096 414.226184,197.933995 413.613087,197.678014 C412.935819,197.403156 412.210144,197.267631 411.479374,197.279527 C410.746849,197.271202 410.02048,197.414124 409.345661,197.699362 C408.705578,197.961001 408.121368,198.342613 407.624467,198.823664 C407.138388,199.296359 406.749391,199.859591 406.479374,200.481655 C406.200971,201.116392 406.058047,201.802277 406.059744,202.495437 C406.055044,203.180742 406.18556,203.86024 406.443812,204.494988 C406.692432,205.098319 407.060123,205.645284 407.524893,206.103168 C409.101365,207.576263 411.393222,207.990891 413.385491,207.163428 C414.020736,206.898939 414.603629,206.523007 415.106686,206.053357 C416.118646,205.107021 416.690796,203.781668 416.685633,202.395816 C416.706551,201.723068 416.592899,201.05292 416.351351,200.424728 L416.330014,200.403381 Z" id="Shape" fill="#5F5C51" fill-rule="nonzero"></path>
                <path d="M456.536273,240.814232 C456.678826,240.84061 456.80877,240.913114 456.906117,241.020591 C456.980043,241.104048 457.011515,241.216876 456.991465,241.326572 C456.928804,241.592376 456.680066,241.771433 456.40825,241.746407 L444.758179,241.746407 C444.55646,241.758336 444.356447,241.703305 444.189189,241.589858 C444.044555,241.457444 443.968546,241.266019 443.98293,241.070402 L443.98293,238.224066 C443.997301,238.101636 443.931267,237.983866 443.819346,237.932317 C443.712914,237.892167 443.593026,237.934148 443.534851,238.031939 C443.335704,238.266761 443.015647,238.636785 442.567568,239.142009 C442.018809,239.727466 441.394542,240.237173 440.711238,240.657683 C438.630181,241.942206 436.22121,242.594799 433.776671,242.536265 C432.246168,242.568088 430.721387,242.3395 429.267425,241.86026 C428.056249,241.454283 426.928535,240.832292 425.938834,240.024374 C425.026197,239.277844 424.242815,238.385893 423.620199,237.384397 C423.022533,236.403958 422.544943,235.355137 422.197724,234.260544 C421.859773,233.189006 421.621679,232.088472 421.486486,230.973026 C421.351176,229.949135 421.282279,228.917552 421.280228,227.884752 C421.253081,225.668842 421.550207,223.460885 422.162162,221.331064 C422.691384,219.480855 423.602392,217.762187 424.836415,216.285934 C426.049944,214.872228 427.583846,213.769428 429.3101,213.069574 C431.3213,212.274596 433.471062,211.889918 435.633001,211.938156 C436.80867,211.927572 437.983381,212.008462 439.146515,212.180095 C439.973229,212.308674 440.790559,212.491711 441.593172,212.728014 C442.084435,212.877833 442.560657,213.073179 443.015647,213.311513 L443.5633,213.617494 C443.641094,213.696721 443.758609,213.721915 443.86202,213.681537 C443.956691,213.647072 444.017452,213.554439 444.01138,213.45383 L444.01138,200.424728 C444.038033,200.177949 443.870971,199.951997 443.627312,199.905272 C443.468808,199.88584 443.311924,199.854923 443.157895,199.812766 L442.240398,199.585059 L441.28734,199.357352 L440.761024,199.229267 C440.476529,199.165225 440.334282,199.022908 440.327169,198.795201 C440.320057,198.567494 440.469417,198.418061 440.789474,198.332671 C441.628734,198.133428 442.532006,197.877258 443.513514,197.542813 C444.495021,197.208369 445.469417,196.831229 446.458037,196.411395 C447.446657,195.99156 448.399716,195.543262 449.302987,195.059385 C450.155419,194.618623 450.981818,194.129195 451.778094,193.593522 C451.952144,193.471589 452.164087,193.416053 452.375533,193.436974 C452.581792,193.436974 452.681366,193.61487 452.681366,193.920851 L452.681366,236.694161 C452.647282,237.419522 452.825235,238.139097 453.193457,238.76487 C453.49629,239.251616 453.898657,239.668729 454.374111,239.988794 C454.767154,240.261382 455.201964,240.468078 455.661451,240.600757 C455.948057,240.691057 456.240297,240.762369 456.536273,240.814232 Z M443.947368,222.583452 C443.944875,221.991092 443.906874,221.399415 443.83357,220.811608 C443.759211,220.152256 443.630755,219.500143 443.449502,218.861868 C443.279776,218.209896 443.041361,217.577789 442.738265,216.97617 C442.430859,216.383672 442.035152,215.841409 441.564723,215.367991 C441.078454,214.88844 440.509883,214.50037 439.886202,214.22234 C439.185245,213.92317 438.429104,213.775263 437.667141,213.788274 C436.508636,213.758664 435.370604,214.097499 434.416785,214.756028 C433.479063,215.446576 432.726531,216.358364 432.226174,217.410236 C431.626657,218.676841 431.214563,220.02399 431.002845,221.409338 C430.737957,223.056288 430.609498,224.722315 430.618777,226.390426 C430.618777,226.860071 430.618777,227.500496 430.618777,228.304586 C430.637365,229.17311 430.701464,230.040061 430.810811,230.901868 C430.933989,231.848697 431.12413,232.785594 431.379801,233.705508 C431.618304,234.606228 431.997565,235.463585 432.503556,236.245863 C432.98992,236.997205 433.638931,237.629508 434.40256,238.095981 C435.265374,238.595505 436.251249,238.842094 437.247511,238.807565 C438.467951,238.866914 439.681143,238.588704 440.753912,238.003475 C441.579905,237.524454 442.275901,236.850108 442.780939,236.039504 C443.249177,235.286826 443.567942,234.45087 443.719772,233.577423 C443.857687,232.816448 443.931441,232.045224 443.940256,231.271891 L443.947368,222.583452 Z" id="Shape" fill="#5F5C51" fill-rule="nonzero"></path>
                <path d="M467.325747,224.675508 C466.984353,224.675508 466.813656,224.86052 466.813656,225.223428 C466.781976,227.118205 466.975365,229.010039 467.389758,230.859173 C467.695211,232.241369 468.270463,233.549615 469.082504,234.708842 C469.789261,235.680097 470.745183,236.442257 471.849218,236.914752 C473.069742,237.412508 474.379289,237.654686 475.697013,237.626336 C476.701652,237.638645 477.703564,237.519027 478.677098,237.270544 C479.456002,237.06518 480.215238,236.791341 480.945946,236.452222 C481.49162,236.191521 482.019128,235.894356 482.524893,235.562742 C482.808855,235.356972 483.108491,235.173772 483.421053,235.014823 C483.648725,234.877812 483.939829,234.909849 484.13229,235.093097 C484.302987,235.278109 484.302987,235.555626 484.13229,235.918534 C484.068279,236.046619 483.918919,236.30279 483.698435,236.672813 C483.406859,237.134857 483.078632,237.572705 482.716927,237.982128 C482.218186,238.536583 481.678496,239.052749 481.102418,239.526265 C480.395011,240.104892 479.624326,240.601426 478.805121,241.006359 C477.830031,241.488825 476.804268,241.861144 475.746799,242.11643 C474.487048,242.41959 473.1946,242.565389 471.899004,242.550496 C469.911334,242.580053 467.935677,242.237342 466.073969,241.540047 C464.379815,240.903991 462.848977,239.897523 461.593172,238.59409 C460.3276,237.241716 459.35856,235.639597 458.748222,233.89052 C458.044784,231.88395 457.70049,229.769004 457.731152,227.642813 C457.687207,225.33651 458.115632,223.045621 458.990043,220.911229 C459.74864,219.070444 460.865616,217.399002 462.27596,215.994184 C464.909834,213.417492 468.442861,211.967862 472.1266,211.952388 C473.631313,211.931219 475.128244,212.172001 476.550498,212.663972 C477.745173,213.081153 478.864446,213.689123 479.864865,214.464279 C480.762828,215.165646 481.545223,216.003649 482.183499,216.947707 C482.764526,217.803062 483.260037,218.71353 483.662873,219.665957 C484.014215,220.485206 484.278817,221.339021 484.452347,222.213428 C484.58413,222.838773 484.660293,223.474567 484.679943,224.113357 C484.698346,224.290976 484.615997,224.463993 484.466572,224.561655 C484.294701,224.655457 484.100217,224.699791 483.904694,224.68974 L467.325747,224.675508 Z M466.970128,222.540757 C466.927454,222.82539 467.055477,222.960591 467.361309,222.960591 L468.001422,222.960591 L469.338549,222.91078 L471.031294,222.846738 L472.752489,222.782695 L474.174964,222.732884 C474.426936,222.73537 474.678794,222.721107 474.928876,222.690189 C475.325593,222.645866 475.701034,222.487708 476.009957,222.234775 C476.414939,221.878274 476.623993,221.348767 476.571835,220.811608 C476.558135,220.093242 476.472356,219.378069 476.315789,218.676856 C476.145101,217.871316 475.870141,217.091486 475.497866,216.357092 C475.145253,215.655724 474.662516,215.02786 474.075391,214.506974 C473.483803,213.996841 472.722275,213.727637 471.941679,213.752695 C471.322105,213.740211 470.714527,213.924566 470.206259,214.279267 C469.696325,214.636709 469.259373,215.088366 468.918919,215.609929 C468.553088,216.202282 468.257134,216.835073 468.036984,217.495626 C467.803887,218.155061 467.609156,218.827447 467.45377,219.509409 C467.30441,220.164066 467.190612,220.761797 467.119488,221.309716 C467.048364,221.857636 466.991465,222.270355 466.970128,222.547872 L466.970128,222.540757 Z" id="Shape" fill="#5F5C51" fill-rule="nonzero"></path>
                <path d="M190.078236,297.52747 C190.192203,297.529313 190.300328,297.578251 190.376956,297.662671 L191.159317,298.516572 C190.555406,299.221406 189.802246,299.782905 188.954481,300.160331 C187.96759,300.577324 186.903081,300.778684 185.832148,300.750946 C184.837245,300.764823 183.849926,300.575979 182.930299,300.19591 C182.087574,299.848044 181.330432,299.321186 180.711238,298.651773 C180.081486,297.955699 179.597776,297.140251 179.288762,296.253735 C178.93751,295.26993 178.764108,294.231421 178.776671,293.186809 C178.765726,292.139215 178.951496,291.09888 179.324324,290.119882 C179.660188,289.223694 180.17849,288.407092 180.846373,287.721844 C181.512636,287.047378 182.311958,286.519084 183.193457,286.170591 C184.155532,285.791206 185.182187,285.602693 186.216216,285.615556 C187.177182,285.592295 188.132888,285.764164 189.025605,286.12078 C189.81223,286.449086 190.5346,286.914037 191.159317,287.494137 L190.504979,288.419196 C190.461629,288.483893 190.40606,288.53949 190.341394,288.582861 C190.262077,288.636779 190.166694,288.661892 190.071124,288.654019 C189.968845,288.648089 189.87028,288.613574 189.786629,288.554397 L189.43101,288.312459 C189.295875,288.212837 189.13229,288.113215 188.947368,287.999362 C188.736322,287.878078 188.514977,287.775687 188.285917,287.693381 C187.99768,287.585414 187.700057,287.504422 187.396871,287.451442 C187.012025,287.381848 186.621508,287.348495 186.230441,287.35182 C185.487709,287.342789 184.750508,287.480628 184.061166,287.757423 C183.418248,288.021428 182.838808,288.419229 182.361309,288.924421 C181.866964,289.451833 181.488948,290.077318 181.251778,290.760307 C180.977997,291.539561 180.843183,292.360879 180.853485,293.186809 C180.84039,294.026881 180.975212,294.862701 181.251778,295.656005 C181.487396,296.333402 181.854831,296.957379 182.332859,297.491891 C182.785504,297.986589 183.341621,298.375331 183.961593,298.630426 C184.601392,298.897377 185.288312,299.032892 185.981508,299.028913 C186.378776,299.030766 186.775681,299.00461 187.169275,298.950638 C187.504054,298.901209 187.832923,298.81776 188.150782,298.701584 C188.44281,298.595791 188.721961,298.457341 188.98293,298.288865 C189.258832,298.107617 189.52039,297.905405 189.765292,297.684019 C189.84724,297.595675 189.958426,297.540055 190.078236,297.52747 Z" id="Path" fill="#5F5C51"></path>
                <path d="M197.923186,300.587281 L197.923186,285.77922 L202.645804,285.77922 C203.436583,285.766973 204.225587,285.857872 204.992888,286.049622 C205.579298,286.194884 206.130685,286.456194 206.614509,286.818132 C207.025114,287.134995 207.348227,287.551329 207.553343,288.027825 C207.761601,288.540562 207.865572,289.089702 207.859175,289.643121 C207.860876,290.001197 207.803194,290.357076 207.688478,290.696265 C207.573833,291.040461 207.397937,291.361086 207.169275,291.642671 C206.922631,291.943285 206.629729,292.202701 206.301565,292.411182 C205.921107,292.653113 205.50957,292.842225 205.078236,292.973333 C205.993977,293.102538 206.847999,293.509887 207.524893,294.140331 C208.090577,294.739994 208.388374,295.543923 208.349929,296.367589 C208.357909,296.956884 208.24158,297.541239 208.008535,298.082506 C207.775696,298.600065 207.427836,299.057614 206.991465,299.420284 C206.510205,299.811315 205.956799,300.103868 205.362731,300.2813 C204.647282,300.493342 203.904019,300.59649 203.157895,300.587281 L197.923186,300.587281 Z M199.928876,292.411182 L202.567568,292.411182 C203.064755,292.422482 203.560879,292.360137 204.039829,292.22617 C204.412053,292.125684 204.760327,291.951462 205.064011,291.71383 C205.330064,291.50108 205.538027,291.224477 205.668563,290.90974 C205.801367,290.584521 205.86903,290.236371 205.86771,289.885059 C205.927707,289.157086 205.633893,288.444705 205.078236,287.970898 C204.355071,287.508722 203.501461,287.293968 202.645804,287.358936 L199.928876,287.358936 L199.928876,292.411182 Z M199.928876,293.83435 L199.928876,298.986217 L203.129445,298.986217 C203.627039,298.996158 204.12331,298.931396 204.601707,298.79409 C204.972677,298.679939 205.316378,298.491054 205.611664,298.239054 C205.872133,298.008557 206.072346,297.717861 206.194879,297.39227 C206.320117,297.045551 206.382732,296.679314 206.379801,296.310662 C206.408106,295.612223 206.108078,294.94078 205.56899,294.496123 C204.850308,294.002292 203.984614,293.768818 203.11522,293.83435 L199.928876,293.83435 Z" id="Shape" fill="#5F5C51" fill-rule="nonzero"></path>
                <path d="M228.236131,293.172577 C228.251794,294.207071 228.073266,295.235318 227.709815,296.203924 C227.05818,297.967087 225.679668,299.364418 223.926031,300.039362 C222.977845,300.404309 221.968913,300.585425 220.953058,300.57305 L215.412518,300.57305 L215.412518,285.77922 L220.953058,285.77922 C221.968913,285.766844 222.977845,285.947961 223.926031,286.312908 C225.681053,286.993379 227.05921,288.395533 227.709815,290.162577 C228.071614,291.124217 228.250132,292.145162 228.236131,293.172577 Z M226.173542,293.172577 C226.185165,292.345963 226.057735,291.523281 225.796586,290.73896 C225.578603,290.0613 225.222611,289.436192 224.751067,288.903073 C224.293869,288.403956 223.729778,288.014738 223.100996,287.764539 C222.420618,287.501238 221.69677,287.368468 220.967283,287.373168 L217.411095,287.373168 L217.411095,298.936407 L220.967283,298.936407 C221.69677,298.941107 222.420618,298.808337 223.100996,298.545035 C223.725294,298.303062 224.288662,297.92649 224.751067,297.44208 C225.223294,296.916355 225.581684,296.298558 225.803698,295.627541 C226.064011,294.835832 226.189044,294.005879 226.173542,293.172577 Z" id="Shape" fill="#5F5C51" fill-rule="nonzero"></path>
                <polygon id="Path" fill="#92AF4C" points="240.021337 288.540165 240.021337 292.951986 244.224751 292.951986 244.224751 294.375154 240.021337 294.375154 240.021337 298.815437 238.513514 298.815437 238.513514 294.375154 234.331437 294.375154 234.331437 292.951986 238.513514 292.951986 238.513514 288.540165"></polygon>
                <path d="M258.733997,295.755626 L258.947368,296.310662 C259.018492,296.118534 259.089616,295.933522 259.167852,295.755626 C259.241541,295.572363 259.327071,295.394091 259.423898,295.221939 L264.40256,286.12078 C264.457285,285.995269 264.555918,285.894058 264.679943,285.836147 C264.813278,285.794129 264.952735,285.774884 265.092461,285.77922 L266.571835,285.77922 L266.571835,300.587281 L264.815078,300.587281 L264.815078,289.707163 C264.815078,289.564846 264.815078,289.408298 264.815078,289.244634 C264.815078,289.080969 264.815078,288.910189 264.85064,288.739409 L259.779516,297.99 C259.653097,298.270928 259.376161,298.453795 259.068279,298.459645 L258.783784,298.459645 C258.475902,298.453795 258.198965,298.270928 258.072546,297.99 L252.887624,288.739409 C252.887624,288.917305 252.923186,289.095201 252.937411,289.265981 C252.951636,289.436761 252.937411,289.600426 252.937411,289.742742 L252.937411,300.622861 L251.180654,300.622861 L251.180654,285.77922 L252.660028,285.77922 C252.799754,285.774884 252.939211,285.794129 253.072546,285.836147 C253.195103,285.896107 253.293119,285.996685 253.349929,286.12078 L258.463727,295.23617 C258.566727,295.402287 258.657073,295.57593 258.733997,295.755626 Z" id="Path" fill="#5F5C51"></path>
                <path d="M288.051209,293.172577 C288.065536,294.213916 287.887092,295.248913 287.524893,296.225272 C287.198866,297.115968 286.692843,297.929875 286.038407,298.616194 C285.388237,299.291864 284.603038,299.822859 283.733997,300.174563 C281.816794,300.904981 279.698142,300.904981 277.780939,300.174563 C276.911898,299.822859 276.126699,299.291864 275.476529,298.616194 C274.824484,297.928025 274.318786,297.114641 273.990043,296.225272 C273.288567,294.250647 273.288567,292.094506 273.990043,290.119882 C274.322115,289.230031 274.827367,288.414947 275.476529,287.721844 C276.128191,287.04619 276.912859,286.513132 277.780939,286.156359 C279.696397,285.416512 281.818538,285.416512 283.733997,286.156359 C284.602077,286.513132 285.386745,287.04619 286.038407,287.721844 C286.690014,288.413069 287.195589,289.228675 287.524893,290.119882 C287.887092,291.096241 288.065536,292.131238 288.051209,293.172577 Z M286.002845,293.172577 C286.013255,292.341393 285.885877,291.514232 285.625889,290.724728 C285.406813,290.048147 285.048201,289.425119 284.573257,288.895957 C284.11872,288.390356 283.554183,287.995962 282.923186,287.743191 C281.532442,287.202272 279.989606,287.202272 278.598862,287.743191 C277.965789,287.995908 277.398923,288.39023 276.941679,288.895957 C276.464527,289.424721 276.10351,290.047718 275.881935,290.724728 C275.388878,292.319348 275.388878,294.025805 275.881935,295.620426 C276.105229,296.296664 276.46605,296.919324 276.941679,297.449196 C277.403038,297.94848 277.968904,298.339677 278.598862,298.594846 C279.991373,299.126258 281.530676,299.126258 282.923186,298.594846 C283.55104,298.339593 284.114568,297.948334 284.573257,297.449196 C285.046671,296.918927 285.405088,296.296239 285.625889,295.620426 C285.893637,294.832275 286.028245,294.004997 286.024182,293.172577 L286.002845,293.172577 Z" id="Shape" fill="#5F5C51" fill-rule="nonzero"></path>
                <path d="M297.140825,294.410733 L297.140825,300.587281 L295.163585,300.587281 L295.163585,285.77922 L299.345661,285.77922 C300.16309,285.767069 300.978554,285.862771 301.770982,286.063853 C302.383995,286.219066 302.958033,286.500167 303.456615,286.889291 C303.878852,287.23612 304.206679,287.684042 304.409673,288.191489 C304.629374,288.731145 304.738223,289.309533 304.72973,289.892175 C304.735664,290.391807 304.651332,290.888403 304.480797,291.358038 C304.321233,291.806425 304.080092,292.22139 303.769559,292.581962 C303.445002,292.955078 303.057405,293.268197 302.624467,293.507021 C302.146245,293.774189 301.630848,293.968457 301.095306,294.083404 C301.357393,294.246212 301.58267,294.461905 301.756757,294.716714 L306.066856,300.594397 L304.295875,300.594397 C303.967121,300.61473 303.65444,300.45008 303.485064,300.167447 L299.644381,294.880378 C299.548772,294.733498 299.41955,294.611531 299.267425,294.524586 C299.071688,294.443337 298.860279,294.40687 298.648649,294.417849 L297.140825,294.410733 Z M297.140825,292.951986 L299.274538,292.951986 C299.796899,292.960454 300.317452,292.888453 300.817923,292.738511 C301.225996,292.615138 301.605541,292.41197 301.934566,292.14078 C302.226893,291.887588 302.457928,291.57128 302.610242,291.215721 C302.764597,290.838767 302.841982,290.434716 302.837838,290.027376 C302.888759,289.260182 302.562192,288.516416 301.963016,288.034941 C301.194696,287.531987 300.282908,287.294556 299.366999,287.358936 L297.176387,287.358936 L297.140825,292.951986 Z" id="Shape" fill="#5F5C51" fill-rule="nonzero"></path>
                <polygon id="Path" fill="#5F5C51" points="321.479374 285.77922 321.479374 287.415863 314.366999 287.415863 314.366999 292.332908 320.113798 292.332908 320.113798 293.884161 314.366999 293.884161 314.366999 298.936407 321.479374 298.936407 321.479374 300.57305 312.375533 300.57305 312.375533 285.77922"></polygon>
            </g>
        </g>
    </g>
</svg>