<?xml version="1.0" encoding="UTF-8"?>
<svg width="500px" height="305px" viewBox="0 0 500 305" version="1.1" xmlns="http://www.w3.org/2000/svg" xmlns:xlink="http://www.w3.org/1999/xlink">
    <!-- Generator: Sketch 52.6 (67491) - http://www.bohemiancoding.com/sketch -->
    <title>5</title>
    <desc>Created with Sketch.</desc>
    <defs>
        <linearGradient x1="0%" y1="50.1588748%" x2="99.991446%" y2="50.1588748%" id="linearGradient-1">
            <stop stop-color="#FFE6B0" offset="0%"></stop>
            <stop stop-color="#FCC6A6" offset="55%"></stop>
            <stop stop-color="#EE9A22" offset="100%"></stop>
        </linearGradient>
    </defs>
    <g id="Page-1" stroke="none" stroke-width="1" fill="none" fill-rule="evenodd">
        <g id="Desktop" transform="translate(-830.000000, -80.000000)">
            <g id="5" transform="translate(830.000000, 80.000000)">
                <ellipse id="Oval" fill="#FFFFFF" cx="249.779202" cy="81.9509346" rx="81.9088319" ry="81.9509346"></ellipse>
                <path d="M198.069801,60.8147196 C203.055556,61.3990654 208.675214,62.0617991 214.380342,67.0287383 C215.627487,64.0700903 217.242812,61.2807271 219.188034,58.7267523 C216.823362,55.6482477 215.277778,53.7384346 212.30057,52.4984813 L211.937322,52.3488318 C206.047009,49.8831776 198.789174,46.8189252 194.337607,34.7186916 C189.349202,40.5714737 185.320054,47.1787283 182.400285,54.2942757 C182.706553,54.5508178 183.019943,54.814486 183.326211,55.0924065 C188.490028,59.6816589 192.92735,60.2018692 198.069801,60.8147196 Z" id="Path" fill="#FCC6A6"></path>
                <path d="M251.559829,27.9773364 C253.141026,32.5523364 254.921652,37.7116822 253.226496,43.6549065 C255.061792,43.8202671 256.882763,44.1179644 258.675214,44.5456776 L258.675214,37.3054907 C258.84918,29.4860648 265.23465,23.2379393 273.051994,23.2379393 C280.869339,23.2379393 287.254809,29.4860648 287.428775,37.3054907 L287.428775,46.1704439 C291.54652,42.2763931 297.565875,41.1645234 302.801904,43.3307847 C308.037934,45.4970459 311.514513,50.5375933 311.680912,56.2040888 L311.680912,56.3466121 L311.680912,83.6683411 C311.680912,84.2455607 311.680912,84.8014019 311.645299,85.357243 L313.105413,84.9225467 C316.552707,83.8892523 319.68661,82.9485981 322.571225,82.221729 L322.571225,81.9509346 C322.583378,42.6963518 291.504197,10.4918927 252.293447,9.1286215 C252.122507,9.47067757 251.944444,9.84123832 251.745014,10.1690421 C247.863248,17.2096963 249.565527,22.198014 251.559829,27.9773364 Z" id="Path" fill="#FCC6A6"></path>
                <path d="M211.374644,81.8939252 C211.377262,79.2601223 211.649335,76.6335048 212.18661,74.0551402 L211.574074,73.4209112 C206.837607,68.4325935 202.635328,67.9693925 197.32906,67.3422897 C192.172365,66.7365654 186.367521,66.0453271 180.078348,60.9287383 C178.031426,67.7480433 176.994763,74.830747 177.001425,81.9509346 C177.001425,83.7752336 177.07265,85.5924065 177.200855,87.3810748 C180.403578,86.9310051 183.574668,86.2788483 186.695157,85.4285047 C198.974359,82.0863318 204.786325,81.1813084 211.374644,81.8939252 Z" id="Path" fill="#FCC6A6"></path>
                <path d="M310.719373,92.476285 C309.038178,100.155086 304.025431,106.685456 297.04416,110.291706 C294.023967,111.86195 290.78126,112.960231 287.428775,113.548364 L287.428775,144.26215 C307.078116,132.386192 319.978372,111.933782 322.236467,89.0771028 C320.014245,89.6828271 317.61396,90.4025701 315,91.2149533 L310.719373,92.476285 Z" id="Path" fill="#FFE6B0"></path>
                <path d="M249.059829,136.4875 C242.371795,132.924416 234.401709,125.456192 234.401709,109.842757 L234.401709,93.4525701 C230.897436,92.7399533 227.991453,92.0273364 225.854701,91.5498832 L223.440171,90.9869159 C220.961538,90.4025701 218.839031,89.9037383 216.923077,89.4904206 C215.007123,89.0771028 213.461538,88.7778037 211.937322,88.5853972 C205.363248,87.6732477 200.405983,88.4785047 188.361823,91.7280374 C184.93619,92.6566026 181.456031,93.3706041 177.941595,93.8658879 C184.363401,132.357191 219.946989,158.958859 258.660969,154.21028 L258.660969,139.744159 C255.313377,139.154621 252.075575,138.056375 249.059829,136.4875 Z" id="Path" fill="#FFE6B0"></path>
                <path d="M227.143875,24.9415888 C233.860399,29.5878505 235.071225,37.234229 236.047009,43.376986 C236.182336,44.2392523 236.317664,45.0872664 236.460114,45.8853972 C239.66902,44.6968633 243.022751,43.9442828 246.431624,43.6477804 C246.538462,43.1845794 246.666667,42.7071262 246.823362,42.2225467 C248.148148,38.125 246.866097,34.3837617 245.39886,30.1080607 C243.482906,24.5567757 241.125356,17.7584112 244.921652,9.23551402 C236.63989,9.77833809 228.513244,11.7429456 220.897436,15.0433411 C220.576923,18.6776869 224.358974,23.0103972 227.143875,24.9415888 Z" id="Path" fill="#FCC6A6"></path>
                <path d="M214.472934,46.3200935 L214.843305,46.4768692 C218.967236,48.208528 221.253561,50.7026869 223.653846,53.8096963 C225.703331,51.9120446 227.950266,50.2397147 230.356125,48.8213785 C230.049858,47.4317757 229.814815,45.9709112 229.57265,44.4316589 C228.717949,39.015771 227.827635,33.4146028 223.418803,30.3646028 C221.05412,28.68881 219.00042,26.6123493 217.350427,24.228972 C216.046486,22.4042009 215.112468,20.3415269 214.60114,18.1574766 C209.081299,21.2053267 203.981474,24.9590982 199.430199,29.3241822 C199.608262,29.8443925 199.793447,30.371729 199.964387,30.9204439 C203.404558,41.6524533 208.782051,43.9114486 214.472934,46.3200935 Z" id="Path" fill="#FCC6A6"></path>
                <path d="M249.779202,48.2370327 C240.844277,48.2370309 232.275615,51.7897032 225.959673,58.1129016 C219.64373,64.4360999 216.098319,73.0114183 216.103989,81.9509346 C216.103989,82.1860981 216.103989,82.4212617 216.103989,82.6635514 C218.653846,83.155257 221.502849,83.8251168 224.964387,84.6375 L227.364672,85.2004673 C229.159544,85.6209112 231.545584,86.1767523 234.394587,86.7896028 L234.394587,82.3785047 C234.548773,76.7040025 238.026524,71.6518263 243.270395,69.4844983 C248.514267,67.3171702 254.541866,68.4407196 258.653846,72.351986 L258.653846,49.4271028 C255.761851,48.6365224 252.777203,48.2362878 249.779202,48.2370327 Z" id="Path" fill="#F8971D"></path>
                <path d="M306.980057,83.6683411 L306.980057,56.3537383 C306.838098,51.1288863 302.56384,46.9671021 297.339744,46.9671021 C292.115647,46.9671021 287.841389,51.1288863 287.69943,56.3537383 L287.69943,83.6683411 C287.69943,89.9464953 282.713675,89.9536215 282.713675,89.9536215 L282.713675,37.3054907 C282.571663,32.0767408 278.294232,27.9118251 273.066239,27.9118251 C267.838247,27.9118251 263.560815,32.0767408 263.418803,37.3054907 L263.418803,116.156542 C263.418803,116.156542 258.433048,116.156542 258.433048,109.871262 L258.433048,82.521028 C258.29109,77.296176 254.016832,73.1343918 248.792735,73.1343918 C243.568638,73.1343918 239.29438,77.296176 239.152422,82.521028 L239.152422,109.842757 C239.152422,135.496963 263.418803,135.496963 263.418803,135.496963 L263.418803,153.526168 C270.129154,152.258403 276.625608,150.043818 282.713675,146.948715 L282.713675,109.322547 C282.713675,109.322547 306.980057,109.336799 306.980057,83.6683411 Z" id="Path" fill="#92AF4C"></path>
                <path d="M0.0356125356,266.939136 C5.23504274,267.202804 10.4487179,267.281192 15.6552707,267.30257 C20.8618234,267.323949 26.0683761,267.30257 31.2749288,267.174299 C33.8817664,267.138668 36.4814815,267.053154 39.1096866,266.974766 C41.7378917,266.896379 44.3091168,266.796612 46.9088319,266.703972 C52.1153846,266.497313 57.3076923,266.226519 62.5071225,265.934346 C65.1068376,265.798949 67.6994302,265.627921 70.2991453,265.449766 C72.8988604,265.271612 75.491453,265.10771 78.0840456,264.901051 L85.8689459,264.323832 L89.8005698,264.045911 C91.1039886,263.960397 92.4145299,263.903388 93.7250712,263.832126 C104.202854,263.339006 114.700554,263.46274 125.163818,264.202687 C135.612536,264.915304 145.997151,266.198014 156.346154,267.566238 L171.851852,269.704089 C177.022792,270.416706 182.18661,271.065187 187.364672,271.649533 C197.720798,272.811098 208.105413,273.666238 218.511396,273.851519 C219.814815,273.851519 221.111111,273.901402 222.41453,273.901402 C223.717949,273.901402 225.014245,273.901402 226.310541,273.901402 C227.606838,273.901402 228.910256,273.858645 230.213675,273.808762 L234.109687,273.64486 C239.301994,273.416822 244.501425,273.053388 249.693732,272.668575 C260.078348,271.863318 270.462963,270.865654 280.854701,270.01764 C291.246439,269.169626 301.666667,268.392874 312.086895,267.744393 C322.507123,267.095911 332.941595,266.604206 343.383191,266.20514 C353.824786,265.806075 364.273504,265.692056 374.722222,265.756192 L382.55698,265.841706 L390.391738,266.041238 L398.226496,266.255023 C400.819088,266.340537 403.411681,266.397547 406.004274,266.44743 C411.189459,266.518692 416.377018,266.483061 421.566952,266.340537 C426.756885,266.198014 431.946819,265.960475 437.136752,265.627921 C442.321937,265.292991 447.507123,264.915304 452.692308,264.459229 C457.877493,264.003154 463.062678,263.497196 468.254986,262.998364 C473.447293,262.499533 478.660969,262.05771 483.924501,261.794042 C489.146843,261.473904 494.386298,261.566833 499.594017,262.071963 L499.594017,262.463902 C489.180912,262.036332 478.860399,263.625467 468.532764,264.958061 C458.205128,266.290654 447.84188,267.772897 437.41453,268.685047 C432.191358,269.160125 426.968186,269.523559 421.745014,269.77535 C416.521842,270.027142 411.284425,270.162539 406.032764,270.181542 C395.519943,270.181542 385.178063,269.768224 374.757835,269.875117 C353.952991,269.818107 333.133903,270.359696 312.32906,271.371612 C291.524217,272.383528 270.726496,273.815888 249.864672,274.756542 C244.650997,274.998832 239.430199,275.205491 234.195157,275.283879 L230.270655,275.333762 C228.967236,275.333762 227.656695,275.333762 226.353276,275.333762 C225.049858,275.333762 223.739316,275.298131 222.428775,275.283879 C221.118234,275.269626 219.814815,275.219743 218.511396,275.16986 C208.062678,274.813551 197.649573,273.951285 187.264957,272.896612 C182.070275,272.383528 176.880342,271.84669 171.695157,271.286098 L156.139601,269.725467 C145.762108,268.727804 135.391738,267.872664 125.014245,267.445093 C119.82906,267.195678 114.643875,267.095911 109.458689,267.031776 C104.273504,266.96764 99.0954416,267.103037 93.9173789,267.288318 C92.6210826,267.345327 91.3247863,267.388084 90.0356125,267.459346 L86.1538462,267.701636 L78.3190883,268.207593 C75.7122507,268.385748 73.0982906,268.49264 70.4843305,268.620911 C67.8703704,268.749182 65.2635328,268.877453 62.6495726,268.955841 C57.4287749,269.169626 52.2008547,269.269393 46.980057,269.326402 C41.7592593,269.383411 36.531339,269.376285 31.3105413,269.25514 C26.0897436,269.133995 20.8689459,268.955841 15.6410256,268.677921 C10.4131054,268.4 5.19230769,267.943925 0,267.331075 L0.0356125356,266.939136 Z" id="Path" fill="url(#linearGradient-1)"></path>
                <path d="M53.9102564,202.889136 L53.9102564,211.860981 C53.9102564,212.203037 53.7678063,212.388318 53.4900285,212.423949 C53.2122507,212.459579 53.005698,212.295678 52.8774929,211.953621 L52.4287749,210.97021 C52.1657912,210.426296 51.8634682,209.902318 51.5242165,209.402453 C51.0940149,208.771976 50.6178876,208.17413 50.0997151,207.613785 C49.5115888,206.985999 48.8545353,206.426619 48.1410256,205.946262 C47.3498444,205.402592 46.4900008,204.966458 45.5840456,204.649299 C44.5736284,204.303015 43.5109475,204.134249 42.4430199,204.150467 C41.9913263,204.133184 41.5413913,204.215917 41.1253561,204.392757 C40.8000128,204.532922 40.5156828,204.753636 40.2991453,205.034112 C40.0869436,205.317197 39.9387047,205.643004 39.8646724,205.989019 C39.777272,206.358817 39.7224561,206.735572 39.7008547,207.114953 L39.7008547,239.824065 C39.6641844,240.687973 39.8901743,241.542704 40.3490028,242.275467 C40.7430296,242.865033 41.2517234,243.369141 41.8447293,243.75771 C42.3660636,244.099713 42.9381849,244.357059 43.539886,244.52021 C44.0954416,244.655607 44.508547,244.748248 44.7649573,244.791005 C44.9302872,244.818996 45.0824405,244.898855 45.1994302,245.019042 C45.2908748,245.105352 45.3380621,245.228627 45.3276353,245.353972 C45.3149194,245.480827 45.2505066,245.59683 45.1495726,245.67465 C45.0119333,245.782268 44.8395651,245.835527 44.6652422,245.824299 L24.1239316,245.824299 C23.9496087,245.835527 23.7772405,245.782268 23.6396011,245.67465 C23.5386672,245.59683 23.4742544,245.480827 23.4615385,245.353972 C23.4511116,245.228627 23.4982989,245.105352 23.5897436,245.019042 C23.7078778,244.900399 23.859506,244.820816 24.0242165,244.791005 C24.2806268,244.748248 24.6937322,244.655607 25.2492877,244.52021 C25.8509889,244.357059 26.4231101,244.099713 26.9444444,243.75771 C27.5374504,243.369141 28.0461442,242.865033 28.4401709,242.275467 C28.8989995,241.542704 29.1249894,240.687973 29.0883191,239.824065 L29.0883191,230.082593 C29.0883191,228.365187 29.0883191,226.590771 29.0883191,224.773598 C29.0883191,222.956425 29.0883191,221.160631 29.0883191,219.386215 L29.0883191,208.568692 C29.0883191,208.027103 29.0883191,207.499766 29.0384615,206.97243 C29.0214283,206.482968 28.917732,206.000411 28.7321937,205.547196 C28.5770945,205.133769 28.3017152,204.776337 27.9415954,204.521028 C27.4590187,204.238964 26.9041808,204.10514 26.3461538,204.136215 C25.271331,204.121223 24.2018378,204.289923 23.1837607,204.635047 C22.2854224,204.955427 21.4347996,205.396539 20.6552707,205.946262 C19.9439731,206.434833 19.289399,207.001307 18.7037037,207.635164 C18.1855312,208.195508 17.7094039,208.793355 17.2792023,209.423832 C16.9411565,209.927113 16.6343115,210.450683 16.3603989,210.991589 C16.1962987,211.310524 16.0512204,211.638903 15.9259259,211.975 C15.7977208,212.317056 15.5911681,212.473832 15.3133903,212.445327 C15.0356125,212.416822 14.8931624,212.224416 14.8931624,211.88236 L14.8931624,202.889136 C14.8931624,202.482944 15.1210826,202.276285 15.5698006,202.276285 L53.2336182,202.276285 C53.6823362,202.276285 53.9102564,202.482944 53.9102564,202.889136 Z" id="Path" fill="#FFFFFF"></path>
                <path d="M91.0826211,244.883645 C91.2250482,244.915273 91.3543323,244.989898 91.4529915,245.09743 C91.5226554,245.183185 91.5512865,245.295164 91.531339,245.403855 C91.5071511,245.518764 91.4442992,245.621894 91.3532764,245.696028 C91.2414282,245.787912 91.0988261,245.833772 90.954416,245.824299 L74.7863248,245.824299 C74.6419146,245.833772 74.4993125,245.787912 74.3874644,245.696028 C74.2964415,245.621894 74.2335896,245.518764 74.2094017,245.403855 C74.1894543,245.295164 74.2180854,245.183185 74.2877493,245.09743 C74.3864084,244.989898 74.5156926,244.915273 74.6581197,244.883645 C74.9600541,244.839309 75.2578301,244.77019 75.548433,244.676986 C76.0080425,244.542713 76.4432541,244.335821 76.8376068,244.064136 C77.3099308,243.741375 77.7101172,243.323996 78.0128205,242.838435 C78.384245,242.209982 78.5649007,241.486988 78.5327635,240.757593 L78.5327635,226.854439 C78.5089911,225.922628 78.4376732,224.99264 78.3190883,224.068107 C78.2239778,223.163654 77.983463,222.280511 77.6068376,221.452804 C76.8128093,219.691575 75.0026769,218.615189 73.0769231,218.759112 C72.0601608,218.690193 71.0471303,218.939222 70.1780627,219.471729 C69.5133725,219.937522 68.984783,220.572155 68.6467236,221.31028 C68.3094405,222.048269 68.1022106,222.83904 68.034188,223.647664 C67.9558405,224.481425 67.9202279,225.215421 67.9202279,225.856776 L67.9202279,240.729089 C67.8859415,241.457775 68.0641103,242.18072 68.4330484,242.80993 C68.7376802,243.293987 69.1375205,243.711005 69.6082621,244.035631 C70.0051047,244.307468 70.442683,244.514342 70.9045584,244.648481 C71.1925948,244.742195 71.4880481,244.811329 71.7877493,244.85514 C71.9301764,244.886768 72.0594605,244.961394 72.1581197,245.068925 C72.2316258,245.152699 72.260736,245.266552 72.2364672,245.37535 C72.2122793,245.490259 72.1494275,245.593389 72.0584046,245.667523 C71.9465564,245.759407 71.8039543,245.805267 71.6595442,245.795794 L55.4273504,245.795794 C55.2807969,245.804968 55.1360762,245.759243 55.0213675,245.667523 C54.9303446,245.593389 54.8674927,245.490259 54.8433048,245.37535 C54.8233574,245.26666 54.8519885,245.15468 54.9216524,245.068925 C55.0222067,244.960128 55.1541588,244.8854 55.2991453,244.85514 C55.598704,244.81058 55.8940954,244.741461 56.1823362,244.648481 C56.6419457,244.514209 57.0771572,244.307317 57.47151,244.035631 C57.9438339,243.71287 58.3440204,243.295492 58.6467236,242.80993 C59.0212712,242.182764 59.2021647,241.458818 59.1666667,240.729089 L59.1666667,204.385631 C59.1925695,204.137776 59.0207477,203.91273 58.7749288,203.872547 C58.6187811,203.848429 58.4641916,203.815116 58.3119658,203.77278 L57.3931624,203.551869 L56.4387464,203.323832 L55.9116809,203.195561 C55.6267806,203.131425 55.4843305,202.988902 55.4700855,202.760864 C55.4558405,202.532827 55.6196581,202.376051 55.9401709,202.290537 C56.8624308,202.073837 57.7729403,201.80982 58.6680912,201.499533 C59.6438746,201.171729 60.6267806,200.786916 61.6168091,200.373598 C62.6068376,199.96028 63.5612536,199.504206 64.465812,199.019626 C65.3184326,198.590404 66.1481405,198.117061 66.951567,197.601519 C67.1249108,197.476893 67.3372377,197.418726 67.5498575,197.437617 C67.7492877,197.437617 67.8561254,197.622897 67.8561254,197.922196 L67.8561254,219.07979 C68.3401615,218.64846 68.8569058,218.255342 69.4017094,217.903972 C70.0167544,217.50999 70.6707284,217.180447 71.3532764,216.920561 C72.1363839,216.62347 72.9444336,216.396909 73.7678063,216.243575 C74.7428722,216.065559 75.7325078,215.979667 76.7236467,215.987033 C78.2212075,215.951375 79.7153588,216.146051 81.1538462,216.564252 C82.2295719,216.892968 83.2344603,217.419839 84.1168091,218.117757 C84.871114,218.721628 85.487895,219.479638 85.9259259,220.341121 C86.3410268,221.169321 86.6451675,222.048668 86.8304843,222.956425 C87.007386,223.844583 87.1145508,224.745229 87.1509972,225.650117 C87.1509972,226.540888 87.2008547,227.37465 87.2008547,228.144276 L87.2008547,240.757593 C87.1665682,241.48628 87.3447371,242.209225 87.7136752,242.838435 C88.0163785,243.323996 88.4165649,243.741375 88.8888889,244.064136 C89.2832417,244.335821 89.7184532,244.542713 90.1780627,244.676986 C90.4733039,244.770955 90.7758756,244.840082 91.0826211,244.883645 Z" id="Path" fill="#FFFFFF"></path>
                <path d="M101.082621,228.75 C100.740741,228.75 100.569801,228.928154 100.569801,229.298715 C100.536509,231.196695 100.732613,233.091744 101.153846,234.94264 C101.457209,236.32643 102.030874,237.636608 102.84188,238.797897 C103.549644,239.770563 104.506929,240.533829 105.612536,241.007009 C106.836028,241.501276 108.146568,241.743644 109.465812,241.719626 C110.471582,241.734529 111.474948,241.61713 112.450142,241.370444 C113.230796,241.163786 113.991235,240.887121 114.722222,240.543808 C115.271416,240.290776 115.80008,239.995334 116.303419,239.660164 C116.589969,239.453626 116.892436,239.270146 117.207977,239.111449 C117.434164,238.966264 117.730992,238.998932 117.920228,239.189836 C118.091168,239.375117 118.091168,239.645911 117.920228,240.009346 C117.856125,240.144743 117.713675,240.394159 117.485755,240.771846 C117.195213,241.233324 116.86642,241.669556 116.502849,242.075935 C116.009752,242.634853 115.47136,243.152071 114.893162,243.622313 C114.181452,244.202769 113.407471,244.702292 112.58547,245.111682 C111.60808,245.592712 110.581097,245.965484 109.522792,246.223364 C108.261309,246.527326 106.966976,246.673343 105.669516,246.658061 C103.678564,246.685383 101.700078,246.339756 99.8361823,245.639019 C98.149108,244.995642 96.6243825,243.988368 95.3703704,242.688785 C94.1040017,241.333686 93.1337165,239.729466 92.5213675,237.978388 C91.8189151,235.96858 91.4765311,233.850498 91.5099715,231.721612 C91.4645096,229.412522 91.8910876,227.118486 92.7635328,224.980257 C93.5275245,223.141209 94.6456143,221.470476 96.0541311,220.063201 C98.6917565,217.482768 102.229817,216.031034 105.918803,216.015537 C107.425691,215.993903 108.924829,216.235046 110.349003,216.728154 C111.546458,217.146737 112.667569,217.758129 113.668091,218.538201 C114.567253,219.237906 115.350808,220.074769 115.990028,221.018107 C116.574168,221.877034 117.072753,222.791179 117.478632,223.74743 C117.823999,224.567786 118.088778,225.419813 118.269231,226.291472 C118.398734,226.917951 118.472621,227.554659 118.490028,228.194159 C118.507947,228.37225 118.429123,228.546296 118.283476,228.650234 C118.110971,228.74314 117.916502,228.787472 117.720798,228.778505 L101.082621,228.75 Z M100.733618,226.61215 C100.690883,226.89007 100.819088,227.032593 101.118234,227.032593 L101.766382,227.032593 L103.098291,226.98271 L104.793447,226.918575 L106.517094,226.854439 L107.941595,226.804556 C108.196363,226.802162 108.450796,226.785508 108.703704,226.754673 C109.098251,226.713004 109.472049,226.556968 109.779202,226.305724 C110.186415,225.949438 110.398292,225.419472 110.349003,224.880491 C110.332563,224.160869 110.24428,223.444694 110.08547,222.74264 C109.918947,221.934698 109.643393,221.153162 109.266382,220.419509 C108.913266,219.717123 108.429842,219.088348 107.84188,218.566706 C107.249092,218.055689 106.48734,217.783857 105.705128,217.804206 C105.081256,217.790766 104.469558,217.978116 103.960114,218.338668 C103.445976,218.723566 103.014765,219.208321 102.692308,219.763902 C102.324977,220.35508 102.026274,220.986265 101.801994,221.64521 C101.575009,222.307027 101.382443,222.980164 101.225071,223.661916 C101.068376,224.317523 100.961538,224.923248 100.883191,225.471963 C100.804843,226.020678 100.754986,226.319977 100.733618,226.61215 Z" id="Shape" fill="#FFFFFF" fill-rule="nonzero"></path>
                <path d="M161.438746,223.341238 C162.981678,223.699853 164.452988,224.316628 165.790598,225.165537 C166.84672,225.84771 167.76492,226.722867 168.497151,227.74521 C169.165277,228.675511 169.648847,229.725398 169.921652,230.837967 C170.178795,231.955095 170.307833,233.097907 170.306268,234.244276 C170.311921,235.754014 170.039072,237.251834 169.501425,238.6625 C168.93966,240.089154 168.037322,241.356501 166.873219,242.353855 C165.475203,243.519275 163.850046,244.380808 162.10114,244.883645 C159.740812,245.576398 157.288332,245.903243 154.82906,245.852804 L133.582621,245.852804 C133.408298,245.864031 133.23593,245.810773 133.098291,245.703154 C132.999813,245.623246 132.936014,245.508349 132.920228,245.382477 C132.916276,245.258138 132.962479,245.137436 133.048433,245.047547 C133.166567,244.928904 133.318195,244.84932 133.482906,244.819509 C133.746439,244.776752 134.152422,244.684112 134.707977,244.548715 C135.310128,244.386824 135.882443,244.129391 136.403134,243.786215 C136.996777,243.396 137.507508,242.892272 137.905983,242.303972 C138.362314,241.570411 138.585806,240.715737 138.547009,239.85257 L138.547009,208.276519 C138.582909,207.418151 138.359529,206.568869 137.905983,205.839369 C137.513317,205.246258 137.001502,204.741461 136.403134,204.357126 C135.879129,204.021727 135.307686,203.767087 134.707977,203.601752 C134.152422,203.452103 133.746439,203.352336 133.482906,203.309579 C133.316947,203.299009 133.161397,203.225021 133.048433,203.102921 C132.963665,203.003787 132.918066,202.877056 132.920228,202.746612 C132.936014,202.62074 132.999813,202.505843 133.098291,202.425935 C133.23593,202.318316 133.408298,202.265057 133.582621,202.276285 L156.018519,202.276285 C157.938458,202.231541 159.852347,202.508536 161.680912,203.095794 C163.053534,203.552609 164.308457,204.306923 165.356125,205.304907 C166.276046,206.225748 166.960191,207.355168 167.350427,208.597196 C167.755814,209.898032 167.957631,211.253783 167.948718,212.616355 C167.947423,213.613102 167.839979,214.606874 167.628205,215.580841 C167.413629,216.58035 167.048594,217.541461 166.545584,218.431308 C166.011276,219.36096 165.330652,220.19834 164.529915,220.911215 C163.592096,221.745792 162.533007,222.432992 161.388889,222.949299 C161.260684,223.013435 161.203704,223.07757 161.225071,223.155958 C161.246439,223.234346 161.310541,223.298481 161.438746,223.341238 Z M149.188034,220.490771 C149.161968,221.012741 149.340895,221.524225 149.68661,221.916005 C150.064007,222.288521 150.581955,222.482851 151.111111,222.450467 C151.749683,222.436138 152.380036,222.303237 152.970085,222.058528 C153.72287,221.742841 154.373664,221.224898 154.850427,220.562033 C155.518549,219.61865 156.001912,218.557122 156.274929,217.433645 C156.706771,215.710317 156.90324,213.936393 156.858974,212.16028 C156.858974,211.2125 156.823362,210.257593 156.759259,209.309813 C156.709639,208.413914 156.537081,207.529103 156.246439,206.680257 C155.998959,205.951593 155.578595,205.293825 155.021368,204.763318 C154.397035,204.248629 153.598966,203.993525 152.792023,204.050701 C152.135142,204.022019 151.482797,204.172258 150.904558,204.485397 C150.403515,204.795475 150.014305,205.257275 149.793447,205.803738 C149.511012,206.504715 149.338049,207.244994 149.280627,207.998598 C149.195157,208.867991 149.152422,209.887033 149.152422,211.048598 L149.188034,220.490771 Z M153.461538,243.971495 C154.21026,244.001863 154.951937,243.816349 155.598291,243.437033 C156.175899,243.077307 156.663251,242.589704 157.022792,242.011799 C157.412268,241.409254 157.707683,240.750837 157.89886,240.059229 C158.098947,239.346899 158.244197,238.620279 158.333333,237.885748 C158.418803,237.173131 158.468661,236.460514 158.490028,235.790654 C158.511396,235.120794 158.490028,234.550701 158.490028,234.080374 C158.514082,232.687974 158.385102,231.297147 158.105413,229.932944 C157.900995,228.958114 157.55294,228.019084 157.07265,227.146612 C156.71172,226.49455 156.227978,225.918602 155.648148,225.450584 C155.171185,225.077682 154.637275,224.784121 154.066952,224.581192 C153.580429,224.405256 153.07263,224.295016 152.55698,224.253388 C152.07265,224.253388 151.666667,224.210631 151.346154,224.210631 C150.770963,224.176747 150.20479,224.365568 149.764957,224.737967 C149.376181,225.107547 149.165868,225.627104 149.188034,226.163201 L149.188034,236.289486 C149.180827,237.346856 149.240299,238.403628 149.366097,239.453505 C149.450141,240.284784 149.671576,241.096329 150.021368,241.855023 C150.618722,243.20836 152.000844,244.040911 153.475783,243.935864 L153.461538,243.971495 Z" id="Shape" fill="#FFFFFF" fill-rule="nonzero"></path>
                <path d="M190.783476,215.987033 C191.56133,215.969074 192.336653,216.082301 193.076923,216.321963 C193.638734,216.513013 194.153463,216.821523 194.586895,217.226986 C194.970648,217.593822 195.259143,218.048803 195.42735,218.552453 C195.600011,219.066804 195.686645,219.606138 195.683761,220.148715 C195.734144,221.060593 195.373461,221.947074 194.700855,222.564486 C193.966074,223.176844 193.0277,223.489796 192.07265,223.441005 C191.387716,223.475091 190.706878,223.317135 190.106838,222.98493 C189.663926,222.708778 189.257177,222.378424 188.896011,222.001519 L187.977208,221.018107 C187.716685,220.726577 187.342378,220.562734 186.951567,220.569159 C186.531183,220.583254 186.122522,220.711334 185.769231,220.93972 C185.257454,221.297699 184.855443,221.791217 184.608262,222.364953 C184.186503,223.270824 183.889402,224.229707 183.725071,225.215421 C183.461335,226.759207 183.34211,228.324242 183.368946,229.890187 L183.368946,241.049766 C183.336123,241.755211 183.48577,242.457196 183.803419,243.08785 C184.051769,243.532185 184.394598,243.916545 184.807692,244.213785 C185.144704,244.454346 185.520551,244.635134 185.918803,244.748248 C186.182817,244.823779 186.451741,244.880925 186.723647,244.919276 C186.866074,244.950904 186.995358,245.025529 187.094017,245.133061 C187.167523,245.216834 187.196633,245.330687 187.172365,245.439486 C187.148177,245.554394 187.085325,245.657524 186.994302,245.731659 C186.882454,245.823543 186.739852,245.869402 186.595442,245.85993 L171.438746,245.85993 C171.294336,245.869402 171.151734,245.823543 171.039886,245.731659 C170.948863,245.657524 170.886011,245.554394 170.861823,245.439486 C170.841876,245.330795 170.870507,245.218816 170.940171,245.133061 C171.03883,245.025529 171.168114,244.950904 171.310541,244.919276 C171.582447,244.880925 171.851371,244.823779 172.115385,244.748248 C172.515389,244.63394 172.893384,244.453276 173.233618,244.213785 C173.642305,243.913754 173.982264,243.529888 174.230769,243.08785 C174.551851,242.458409 174.701694,241.755504 174.665242,241.049766 L174.665242,222.821028 C174.691537,222.5755 174.523575,222.351435 174.280627,222.307944 C174.121496,222.287447 173.964286,222.254082 173.810541,222.208178 L172.891738,221.987266 L171.944444,221.759229 L171.410256,221.630958 C171.132479,221.566822 170.982906,221.424299 170.975783,221.196262 C170.968661,220.968224 171.118234,220.811449 171.438746,220.725935 C172.361263,220.510215 173.271823,220.246184 174.166667,219.93493 C175.14245,219.607126 176.125356,219.222313 177.115385,218.808995 C178.105413,218.395678 179.059829,217.939603 179.964387,217.455023 C180.817437,217.012546 181.644953,216.522443 182.44302,215.987033 C182.616908,215.863552 182.828806,215.805502 183.041311,215.823131 C183.247863,215.823131 183.347578,216.008411 183.347578,216.30771 L183.347578,220.911215 C183.98223,219.401669 185.047508,218.112764 186.410256,217.205607 C187.718605,216.382713 189.238334,215.959248 190.783476,215.987033 Z" id="Path" fill="#FFFFFF"></path>
                <path d="M210.334758,240.757593 C210.29926,241.487323 210.480153,242.211269 210.854701,242.838435 C211.157404,243.323996 211.557591,243.741375 212.029915,244.064136 C212.424267,244.335821 212.859479,244.542713 213.319088,244.676986 C213.609488,244.770926 213.907326,244.84006 214.209402,244.883645 C214.351829,244.915273 214.481113,244.989898 214.579772,245.09743 C214.649436,245.183185 214.678067,245.295164 214.65812,245.403855 C214.633932,245.518764 214.57108,245.621894 214.480057,245.696028 C214.365348,245.787748 214.220628,245.833473 214.074074,245.824299 L197.891738,245.824299 C197.747328,245.833772 197.604726,245.787912 197.492877,245.696028 C197.401855,245.621894 197.339003,245.518764 197.314815,245.403855 C197.290546,245.295057 197.319656,245.181203 197.393162,245.09743 C197.491822,244.989898 197.621106,244.915273 197.763533,244.883645 C198.065467,244.839309 198.363243,244.77019 198.653846,244.676986 C199.1129,244.541256 199.547889,244.33447 199.94302,244.064136 C200.413762,243.73951 200.813602,243.322492 201.118234,242.838435 C201.487172,242.209225 201.665341,241.48628 201.631054,240.757593 L201.631054,222.821028 C201.657349,222.5755 201.489387,222.351435 201.246439,222.307944 C201.087307,222.287447 200.930098,222.254082 200.776353,222.208178 L199.85755,221.987266 L198.910256,221.759229 L198.376068,221.630958 C198.098291,221.566822 197.948718,221.424299 197.941595,221.196262 C197.934473,220.968224 198.084046,220.811449 198.411681,220.725935 C199.33158,220.509156 200.239714,220.245139 201.132479,219.93493 C202.108262,219.607126 203.091168,219.222313 204.081197,218.808995 C205.071225,218.395678 206.025641,217.939603 206.930199,217.455023 C207.784632,217.010891 208.614429,216.520845 209.415954,215.987033 C209.587108,215.863484 209.796823,215.80534 210.007123,215.823131 C210.213675,215.823131 210.31339,216.008411 210.31339,216.30771 L210.334758,240.757593 Z M210.598291,204.414136 C210.345969,203.807521 209.978287,203.255715 209.51567,202.789369 C209.043015,202.320933 208.484341,201.948292 207.87037,201.691939 C207.193674,201.410777 206.466226,201.272491 205.733618,201.285748 C204.295859,201.281036 202.913148,201.838497 201.880342,202.839252 C201.393571,203.312633 201.004019,203.876683 200.733618,204.49965 C200.454819,205.135308 200.311691,205.822188 200.31339,206.516355 C200.307662,207.201135 200.440932,207.879951 200.705128,208.511682 C200.948848,209.119041 201.314948,209.669687 201.780627,210.129322 C202.781666,211.090437 204.118342,211.622314 205.505698,211.611565 C206.239025,211.617291 206.965905,211.474264 207.64245,211.191121 C208.2786,210.926249 208.862324,210.549771 209.366097,210.079439 C209.862812,209.617052 210.258147,209.056504 210.527066,208.433294 C210.805865,207.797636 210.948993,207.110756 210.947293,206.416589 C210.96053,205.73983 210.841992,205.066962 210.598291,204.435514 L210.598291,204.414136 Z" id="Shape" fill="#FFFFFF" fill-rule="nonzero"></path>
                <path d="M235.042735,242.439369 C237.029906,242.759046 238.986194,243.247773 240.890313,243.900234 C242.215735,244.356561 243.46266,245.0152 244.586895,245.852804 C245.43285,246.487091 246.104286,247.325591 246.538462,248.289953 C246.921315,249.215848 247.112724,250.209747 247.10114,251.211682 C247.091655,251.924291 246.971512,252.631093 246.745014,253.306776 C246.482242,254.083109 246.084383,254.80686 245.569801,255.444626 C244.958776,256.206503 244.238778,256.874045 243.433048,257.425701 C242.407937,258.120002 241.297029,258.678137 240.128205,259.086098 C238.62171,259.620352 237.066223,260.00465 235.48433,260.233411 C233.456261,260.529752 231.408492,260.670311 229.358974,260.653855 C227.35459,260.671534 225.351214,260.557269 223.361823,260.311799 C221.893332,260.134819 220.442339,259.83446 219.024217,259.413902 C218.001013,259.113182 217.021632,258.679541 216.111111,258.124065 C215.446223,257.717014 214.852027,257.204346 214.351852,256.606192 C213.964674,256.140944 213.674108,255.603121 213.497151,255.024182 C213.352619,254.538241 213.275919,254.034643 213.269231,253.527687 C213.272251,252.84298 213.451305,252.170567 213.789174,251.575117 C214.163127,250.901204 214.66093,250.304016 215.25641,249.814953 C215.948122,249.235197 216.717737,248.75544 217.542735,248.38972 C218.508023,247.967553 219.519079,247.659058 220.555556,247.470444 C220.683761,247.427687 220.754986,247.370678 220.769231,247.29229 C220.783476,247.213902 220.726496,247.135514 220.619658,247.05 C219.741158,246.472581 218.985845,245.726569 218.397436,244.85514 C217.800987,243.936253 217.497931,242.857617 217.52849,241.762383 C217.487911,240.328622 218.075987,238.948797 219.138177,237.985514 C219.689539,237.490726 220.314243,237.08446 220.990028,236.781192 C221.749803,236.432719 222.545028,236.167507 223.361823,235.990187 C223.511396,235.94743 223.589744,235.869042 223.589744,235.76215 C223.589744,235.655257 223.525641,235.583995 223.397436,235.534112 C222.345634,235.151198 221.351134,234.62612 220.441595,233.973481 C219.605164,233.367641 218.857226,232.6481 218.219373,231.835631 C217.611316,231.06165 217.13045,230.195646 216.794872,229.27021 C216.459711,228.340228 216.29094,227.358437 216.296296,226.36986 C216.295009,224.960641 216.660778,223.575409 217.35755,222.350701 C218.101388,221.056756 219.099642,219.927082 220.292023,219.029907 C221.620006,218.031657 223.108646,217.267674 224.693732,216.770911 C226.450669,216.212608 228.284847,215.936018 230.128205,215.951402 C232.481508,215.924104 234.812466,216.410476 236.958689,217.376636 C237.19166,217.482638 237.463563,217.455433 237.67094,217.305374 C238.054163,217.022139 238.360271,216.64727 238.561254,216.21507 C238.714902,215.838697 238.801676,215.438369 238.817664,215.032126 C238.825763,214.655715 238.80433,214.279248 238.753561,213.906192 C238.702016,213.590491 238.675817,213.271169 238.675214,212.951285 C238.669563,212.276461 238.910147,211.622749 239.351852,211.112734 C239.869365,210.547215 240.617534,210.25042 241.381766,210.307477 C242.167408,210.260894 242.933593,210.563354 243.475783,211.134112 C243.982454,211.754646 244.236772,212.543435 244.188034,213.343224 C244.195459,213.954649 244.069045,214.560291 243.817664,215.11764 C243.571287,215.647489 243.233771,216.129902 242.820513,216.542874 C242.394766,216.972427 241.916082,217.345992 241.396011,217.654556 C240.852885,217.978268 240.27459,218.238874 239.672365,218.431308 C239.501425,218.474065 239.415954,218.552453 239.430199,218.673598 C239.428787,218.774626 239.483707,218.868038 239.57265,218.915888 C240.715956,219.795202 241.662247,220.904632 242.350427,222.172547 C243.012245,223.413377 243.354932,224.799523 243.347578,226.205958 C243.347176,227.622246 242.973766,229.013422 242.264957,230.239369 C241.522414,231.534244 240.523946,232.66416 239.330484,233.560164 C238.009182,234.551448 236.527531,235.308322 234.950142,235.79778 C233.193567,236.358382 231.359399,236.637377 229.51567,236.624416 C229.020612,236.624348 228.525969,236.595796 228.034188,236.538902 C227.540402,236.487752 227.041939,236.504536 226.552707,236.588785 C226.087395,236.655838 225.645141,236.834298 225.263533,237.108995 C224.866296,237.358603 224.632689,237.801596 224.650997,238.270561 C224.648921,238.69752 224.797765,239.11147 225.071225,239.439252 C225.50683,239.884882 226.037687,240.225975 226.623932,240.436916 C227.648534,240.842611 228.703574,241.166672 229.779202,241.406075 C231.137227,241.724377 232.891738,242.068808 235.042735,242.439369 Z M230.769231,258.829556 C231.767952,258.826351 232.764363,258.733337 233.746439,258.551636 C234.723325,258.391147 235.679023,258.121024 236.595442,257.746379 C237.388404,257.443906 238.114362,256.988739 238.732194,256.406659 C239.25125,255.936148 239.548527,255.268871 239.551282,254.568107 C239.559677,253.921538 239.283601,253.303956 238.796296,252.879206 C238.201186,252.359458 237.518751,251.949304 236.780627,251.667757 C235.857801,251.299843 234.904474,251.013698 233.931624,250.812617 C232.87037,250.584579 231.794872,250.377921 230.662393,250.185514 C229.672365,250.014486 228.525641,249.793575 227.257835,249.537033 C225.981451,249.279239 224.726613,248.924274 223.504274,248.475234 C223.379652,248.43234 223.244279,248.43234 223.119658,248.475234 C222.359488,248.743179 221.666787,249.173603 221.089744,249.736565 C220.475711,250.37109 220.157622,251.235286 220.213675,252.116706 C220.185645,253.199012 220.502437,254.262185 221.118234,255.152453 C221.746273,256.012131 222.55611,256.722624 223.490028,257.233294 C224.548791,257.808758 225.689938,258.217379 226.873219,258.444743 C228.142511,258.69436 229.432918,258.820842 230.726496,258.82243 L230.769231,258.829556 Z M229.864672,217.604673 C229.185191,217.594858 228.525917,217.83587 228.012821,218.281659 C227.440955,218.800089 226.99304,219.440643 226.702279,220.155841 C226.33322,221.04481 226.074869,221.975829 225.933048,222.927921 C225.581682,225.173239 225.581682,227.459588 225.933048,229.704907 C226.076747,230.656597 226.335035,231.587391 226.702279,232.476986 C226.991133,233.191171 227.439408,233.829803 228.012821,234.344042 C228.518821,234.805723 229.179869,235.060102 229.864672,235.056659 C230.545212,235.060027 231.201778,234.805414 231.702279,234.344042 C232.266796,233.823501 232.711527,233.186454 233.005698,232.476986 C233.386933,231.590696 233.652646,230.659026 233.796296,229.704907 C234.138207,227.458862 234.138207,225.173965 233.796296,222.927921 C233.654609,221.973376 233.388825,221.041456 233.005698,220.155841 C232.709663,219.445329 232.265263,218.806328 231.702279,218.281659 C231.184722,217.823576 230.512697,217.579078 229.821937,217.597547 L229.864672,217.604673 Z" id="Shape" fill="#FFFFFF" fill-rule="nonzero"></path>
                <path d="M282.378917,244.883645 C282.521344,244.915273 282.650629,244.989898 282.749288,245.09743 C282.818952,245.183185 282.847583,245.295164 282.827635,245.403855 C282.803447,245.518764 282.740596,245.621894 282.649573,245.696028 C282.534864,245.787748 282.390143,245.833473 282.24359,245.824299 L266.061254,245.824299 C265.916843,245.833772 265.774241,245.787912 265.662393,245.696028 C265.57137,245.621894 265.508518,245.518764 265.48433,245.403855 C265.460062,245.295057 265.489172,245.181203 265.562678,245.09743 C265.661337,244.989898 265.790621,244.915273 265.933048,244.883645 C266.234983,244.839309 266.532759,244.77019 266.823362,244.676986 C267.282415,244.541256 267.717405,244.33447 268.112536,244.064136 C268.583277,243.73951 268.983118,243.322492 269.287749,242.838435 C269.656687,242.209225 269.834856,241.48628 269.80057,240.757593 L269.80057,226.854439 C269.80057,225.956542 269.707977,225.023014 269.594017,224.068107 C269.498907,223.163654 269.258392,222.280511 268.881766,221.452804 C268.157068,220.190924 266.957,219.27239 265.550093,218.902736 C264.143185,218.533082 262.646886,218.743167 261.396011,219.485981 C260.735209,219.955989 260.207576,220.589473 259.864672,221.324533 C259.533819,222.064801 259.32688,222.854463 259.252137,223.661916 C259.180912,224.495678 259.145299,225.229673 259.145299,225.871028 L259.145299,240.743341 C259.111013,241.472027 259.289182,242.194972 259.65812,242.824182 C259.960823,243.309744 260.361009,243.727123 260.833333,244.049883 C261.227686,244.321569 261.662898,244.528461 262.122507,244.662734 C262.41311,244.755937 262.710886,244.825057 263.012821,244.869393 C263.155248,244.901021 263.284532,244.975646 263.383191,245.083178 C263.452855,245.168933 263.481486,245.280912 263.461538,245.389603 C263.437351,245.504511 263.374499,245.607641 263.283476,245.681776 C263.171628,245.773659 263.029026,245.819519 262.884615,245.810047 L246.716524,245.810047 C246.572114,245.819519 246.429512,245.773659 246.317664,245.681776 C246.226641,245.607641 246.163789,245.504511 246.139601,245.389603 C246.119654,245.280912 246.148285,245.168933 246.217949,245.083178 C246.316608,244.975646 246.445892,244.901021 246.588319,244.869393 C246.890254,244.825057 247.18803,244.755937 247.478632,244.662734 C247.938242,244.528461 248.373453,244.321569 248.767806,244.049883 C249.24013,243.727123 249.640317,243.309744 249.94302,242.824182 C250.311958,242.194972 250.490127,241.472027 250.45584,240.743341 L250.45584,204.399883 C250.482136,204.154356 250.314173,203.930291 250.071225,203.886799 C249.915077,203.862682 249.760488,203.829368 249.608262,203.787033 L248.689459,203.566121 L247.735043,203.338084 L247.200855,203.209813 C246.923077,203.145678 246.780627,203.003154 246.766382,202.775117 C246.752137,202.547079 246.915954,202.390304 247.236467,202.30479 C248.156618,202.088969 249.064801,201.824937 249.957265,201.513785 C250.940171,201.185981 251.923077,200.801168 252.905983,200.38785 C253.888889,199.974533 254.85755,199.518458 255.754986,199.033879 C256.609418,198.589746 257.439215,198.0997 258.240741,197.565888 C258.414085,197.441262 258.626411,197.383095 258.839031,197.401986 C259.038462,197.401986 259.145299,197.587266 259.145299,197.886565 L259.145299,219.044159 C259.627967,218.61117 260.144847,218.217949 260.690883,217.868341 C261.305134,217.472967 261.959257,217.143349 262.64245,216.88493 C263.425558,216.587839 264.233607,216.361278 265.05698,216.207944 C266.029594,216.029534 267.016903,215.943637 268.005698,215.951402 C269.50562,215.915352 271.002178,216.110028 272.44302,216.528621 C273.518746,216.857337 274.523634,217.384208 275.405983,218.082126 C276.160288,218.685997 276.777069,219.444008 277.2151,220.305491 C277.627895,221.133979 277.929644,222.013334 278.112536,222.920794 C278.295273,223.808203 278.404853,224.709128 278.440171,225.614486 C278.440171,226.505257 278.482906,227.339019 278.482906,228.108645 L278.482906,240.721963 C278.450769,241.451357 278.631425,242.174351 279.002849,242.802804 C279.305552,243.288366 279.705739,243.705744 280.178063,244.028505 C280.572415,244.300191 281.007627,244.507082 281.467236,244.641355 C281.763483,244.748577 282.06854,244.829649 282.378917,244.883645 Z" id="Path" fill="#FFFFFF"></path>
                <path d="M301.994302,241.142407 C302.38604,240.95 302.663818,240.971379 302.834758,241.206542 C302.978793,241.422224 302.978793,241.703477 302.834758,241.919159 C302.437795,242.613021 301.943717,243.246533 301.367521,243.800467 C300.761791,244.38081 300.084414,244.881321 299.351852,245.289836 C298.573406,245.716836 297.742538,246.040251 296.880342,246.251869 C295.948997,246.486211 294.991657,246.601151 294.031339,246.593925 C292.954052,246.591855 291.881547,246.450537 290.840456,246.173481 C289.788573,245.900047 288.813729,245.387991 287.991453,244.676986 C287.090591,243.871173 286.390565,242.86574 285.947293,241.741005 C285.372993,240.23422 285.104238,238.628126 285.156695,237.016355 L285.156695,218.923014 C285.166781,218.851049 285.141981,218.778584 285.089924,218.727908 C285.037867,218.677231 284.964787,218.654413 284.893162,218.666472 L284.188034,218.666472 C283.866485,218.691138 283.543128,218.657337 283.233618,218.566706 C283.10214,218.469479 283.033921,218.3084 283.055556,218.146262 C283.076752,217.818557 283.207159,217.507427 283.425926,217.262617 C283.638843,216.967209 283.98071,216.79221 284.344729,216.79229 L285.05698,216.79229 C285.206553,216.79229 285.2849,216.706776 285.2849,216.535748 L285.2849,208.796729 C285.2849,208.326402 285.477208,208.084112 285.861823,207.991472 C286.403134,207.884579 286.972934,207.73493 287.58547,207.556776 C288.198006,207.378621 288.824786,207.15771 289.458689,206.908294 C290.092593,206.658879 290.712251,206.39521 291.324786,206.103037 C291.906675,205.828766 292.472628,205.521853 293.019943,205.183762 C293.216571,205.054149 293.464517,205.030142 293.682336,205.119626 C293.881766,205.20514 293.988604,205.418925 293.988604,205.768107 L293.988604,216.564252 C293.988604,216.721028 294.074074,216.79229 294.245014,216.79229 L300.306268,216.79229 C300.627809,216.768248 300.951054,216.802037 301.260684,216.892056 C301.374644,216.956192 301.431624,217.091589 301.431624,217.305374 C301.402954,217.649222 301.242101,217.968541 300.982906,218.196145 C300.731747,218.486677 300.369581,218.6575 299.985755,218.666472 L294.216524,218.666472 C294.059829,218.666472 293.988604,218.737734 293.988604,218.887383 L293.988604,238.726636 C293.976138,239.253725 294.080742,239.777014 294.294872,240.258762 C294.483478,240.685132 294.75739,241.068321 295.099715,241.384696 C295.430516,241.703605 295.826651,241.946757 296.260684,242.097313 C296.691772,242.244429 297.144241,242.319076 297.599715,242.318224 C298.47522,242.327545 299.346296,242.192723 300.178063,241.919159 C300.8023,241.70673 301.409467,241.447062 301.994302,241.142407 Z" id="Path" fill="#FFFFFF"></path>
                <path d="M312.478632,228.75 C312.136752,228.75 311.965812,228.928154 311.965812,229.298715 C311.934087,231.196242 312.127752,233.090823 312.542735,234.94264 C312.851449,236.325917 313.427286,237.635529 314.237892,238.797897 C314.945656,239.770563 315.90294,240.533829 317.008547,241.007009 C318.232039,241.501276 319.542579,241.743644 320.861823,241.719626 C321.867593,241.734529 322.87096,241.61713 323.846154,241.370444 C324.626432,241.162587 325.386765,240.88596 326.118234,240.543808 C326.666609,240.289168 327.195152,239.993793 327.69943,239.660164 C327.984957,239.452083 328.287554,239.268524 328.603989,239.111449 C328.830176,238.966264 329.127003,238.998932 329.316239,239.189836 C329.487179,239.375117 329.487179,239.645911 329.316239,240.009346 C329.252137,240.144743 329.109687,240.394159 328.881766,240.771846 C328.591224,241.233324 328.262432,241.669556 327.89886,242.075935 C327.405764,242.634853 326.867372,243.152071 326.289174,243.622313 C325.577464,244.202769 324.803483,244.702292 323.981481,245.111682 C323.003694,245.591777 321.976814,245.964511 320.918803,246.223364 C319.657321,246.527326 318.362987,246.673343 317.065527,246.658061 C315.074575,246.685383 313.09609,246.339756 311.232194,245.639019 C309.543282,244.999232 308.017816,243.991469 306.766382,242.688785 C305.497487,241.335602 304.52686,239.730817 303.917379,237.978388 C303.212359,235.969053 302.867558,233.850933 302.89886,231.721612 C302.855657,229.412029 303.284662,227.117975 304.159544,224.980257 C304.923536,223.141209 306.041626,221.470476 307.450142,220.063201 C310.087768,217.482768 313.625828,216.031034 317.314815,216.015537 C318.821702,215.993903 320.32084,216.235046 321.745014,216.728154 C322.942469,217.146737 324.063581,217.758129 325.064103,218.538201 C325.963264,219.237906 326.74682,220.074769 327.38604,221.018107 C327.970179,221.877034 328.468764,222.791179 328.874644,223.74743 C329.221111,224.566756 329.483613,225.419134 329.65812,226.291472 C329.789327,226.91785 329.86559,227.554499 329.88604,228.194159 C329.903958,228.37225 329.825134,228.546296 329.679487,228.650234 C329.504757,228.744066 329.307747,228.788416 329.109687,228.778505 L312.478632,228.75 Z M312.12963,226.61215 C312.079772,226.89007 312.2151,227.032593 312.514245,227.032593 L313.155271,227.032593 L314.494302,226.98271 L316.189459,226.918575 L317.913105,226.854439 L319.337607,226.804556 C319.592362,226.801856 319.846779,226.785204 320.099715,226.754673 C320.493954,226.711801 320.867422,226.555902 321.175214,226.305724 C321.579791,225.948017 321.788937,225.418262 321.737892,224.880491 C321.724221,224.161079 321.638319,223.444863 321.481481,222.74264 C321.314958,221.934698 321.039404,221.153162 320.662393,220.419509 C320.311226,219.715901 319.827534,219.086778 319.237892,218.566706 C318.646519,218.053259 317.883792,217.78108 317.10114,217.804206 C316.477267,217.790766 315.865569,217.978116 315.356125,218.338668 C314.841624,218.725258 314.408381,219.209577 314.081197,219.763902 C313.719059,220.356877 313.422897,220.987738 313.198006,221.64521 C312.962963,222.357827 312.770655,223.006308 312.61396,223.661916 C312.457265,224.317523 312.350427,224.923248 312.279202,225.471963 C312.207977,226.020678 312.150997,226.319977 312.12963,226.61215 Z" id="Shape" fill="#FFFFFF" fill-rule="nonzero"></path>
                <path d="M352.136752,215.987033 C352.912241,215.969605 353.685134,216.082828 354.423077,216.321963 C354.986965,216.513093 355.504005,216.821534 355.940171,217.226986 C356.319366,217.596203 356.605052,218.050604 356.773504,218.552453 C356.952015,219.065528 357.041154,219.605459 357.037037,220.148715 C357.08742,221.060593 356.726737,221.947074 356.054131,222.564486 C355.31935,223.176844 354.380977,223.489796 353.425926,223.441005 C352.740822,223.477013 352.059462,223.318935 351.460114,222.98493 C351.015909,222.710596 350.608941,222.380064 350.249288,222.001519 L349.330484,221.018107 C349.067195,220.726245 348.690626,220.562548 348.297721,220.569159 C347.879776,220.584531 347.473741,220.71256 347.122507,220.93972 C346.608895,221.295718 346.20641,221.789818 345.961538,222.364953 C345.536997,223.270339 345.237482,224.22928 345.071225,225.215421 C344.810325,226.759485 344.693488,228.324477 344.722222,229.890187 L344.722222,241.049766 C344.68577,241.755504 344.835614,242.458409 345.156695,243.08785 C345.400259,243.533385 345.741094,243.91824 346.153846,244.213785 C346.492375,244.451767 346.86777,244.632338 347.264957,244.748248 C347.52897,244.823779 347.797895,244.880925 348.069801,244.919276 C348.213484,244.947614 348.343729,245.022795 348.440171,245.133061 C348.515185,245.216101 348.546838,245.329582 348.525641,245.439486 C348.498473,245.553189 348.436165,245.655426 348.347578,245.731659 C348.232236,245.822184 348.087982,245.867761 347.941595,245.85993 L332.792023,245.85993 C332.645636,245.867761 332.501382,245.822184 332.38604,245.731659 C332.297453,245.655426 332.235145,245.553189 332.207977,245.439486 C332.18678,245.329582 332.218433,245.216101 332.293447,245.133061 C332.389889,245.022795 332.520135,244.947614 332.663818,244.919276 C332.935723,244.880925 333.204648,244.823779 333.468661,244.748248 C333.865849,244.632338 334.241243,244.451767 334.579772,244.213785 C334.992524,243.91824 335.333359,243.533385 335.576923,243.08785 C335.900467,242.459081 336.052774,241.75614 336.018519,241.049766 L336.018519,222.821028 C336.040829,222.574197 335.870667,222.351326 335.626781,222.307944 C335.469926,222.287799 335.315053,222.254425 335.163818,222.208178 L334.245014,221.987266 L333.290598,221.759229 L332.75641,221.630958 C332.478632,221.566822 332.336182,221.424299 332.321937,221.196262 C332.307692,220.968224 332.47151,220.811449 332.792023,220.725935 C333.712173,220.510114 334.620357,220.246082 335.512821,219.93493 C336.495726,219.607126 337.478632,219.222313 338.468661,218.808995 C339.458689,218.395678 340.413105,217.939603 341.317664,217.455023 C342.172096,217.010891 343.001894,216.520845 343.803419,215.987033 C343.976763,215.862407 344.18909,215.80424 344.401709,215.823131 C344.60114,215.823131 344.707977,216.008411 344.707977,216.30771 L344.707977,220.911215 C345.340427,219.400336 346.406184,218.11085 347.770655,217.205607 C349.076458,216.382904 350.593864,215.959397 352.136752,215.987033 Z" id="Path" fill="#FFFFFF"></path>
                <path d="M370.185185,245.660397 L370.185185,234.18014 C370.185185,233.809579 370.31339,233.602921 370.576923,233.553037 C370.840456,233.503154 371.025641,233.617173 371.153846,233.923598 C371.857481,235.553291 372.703598,237.117623 373.682336,238.598364 C374.525088,239.871518 375.547009,241.01637 376.716524,241.997547 C377.802936,242.904216 379.042821,243.608949 380.377493,244.078388 C381.806811,244.570598 383.310466,244.811692 384.821937,244.791005 C385.718597,244.795127 386.61032,244.658053 387.464387,244.384813 C388.286167,244.128198 389.042107,243.695316 389.679487,243.116355 C390.336989,242.489911 390.851982,241.729178 391.189459,240.885864 C391.589942,239.848088 391.781176,238.74127 391.752137,237.629206 C391.776888,236.533822 391.552838,235.447104 391.096866,234.450935 C390.655663,233.539253 390.055038,232.713874 389.323362,232.013785 C388.55989,231.291363 387.707881,230.668789 386.787749,230.160981 C385.846643,229.636264 384.879067,229.160552 383.888889,228.735748 C382.792023,228.26067 381.711776,227.766589 380.648148,227.253505 C379.594088,226.740464 378.575652,226.157181 377.599715,225.507593 C376.637134,224.863786 375.74646,224.118389 374.94302,223.284229 C374.121639,222.421573 373.43275,221.441743 372.89886,220.376752 C372.410718,219.455315 372.02613,218.482596 371.752137,217.476402 C371.480214,216.477794 371.343664,215.447152 371.346154,214.41215 C371.35508,212.841076 371.62713,211.28261 372.150997,209.801519 C372.711284,208.222715 373.616446,206.788805 374.80057,205.604206 C376.166769,204.267446 377.79704,203.231012 379.586895,202.561332 C381.91268,201.713553 384.377404,201.312225 386.851852,201.378388 C388.444253,201.35648 390.034446,201.504592 391.595442,201.82021 C392.730461,202.051258 393.845142,202.372966 394.928775,202.782243 C395.642992,203.050969 396.329881,203.387431 396.980057,203.787033 C397.259332,203.958443 397.528094,204.146435 397.7849,204.35 C398.016108,204.499093 398.159762,204.751949 398.169516,205.026986 L398.169516,210.898949 C398.173859,211.034052 398.128206,211.166005 398.041311,211.269509 C397.968003,211.357717 397.86328,211.413939 397.749288,211.426285 C397.638337,211.439935 397.525944,211.417445 397.428775,211.36215 C397.307387,211.296447 397.215667,211.186835 397.172365,211.055724 C396.760299,210.063934 396.28447,209.099883 395.747863,208.169626 C394.578536,206.144917 392.728211,204.601766 390.527066,203.815537 C389.109724,203.314888 387.613904,203.073503 386.111111,203.102921 C383.874644,203.102921 382.134378,203.630257 380.890313,204.68493 C379.64126,205.745602 378.95025,207.32286 379.017094,208.960631 C378.997953,209.889138 379.172613,210.81143 379.529915,211.668575 C379.939289,212.520174 380.54169,213.264412 381.289174,213.842056 C382.31296,214.640321 383.421207,215.323772 384.594017,215.88014 C385.971035,216.554751 387.701804,217.3125 389.786325,218.153388 C391.639386,218.885023 393.428532,219.76933 395.135328,220.797196 C396.580391,221.660079 397.890716,222.730968 399.024217,223.975467 C400.060421,225.136822 400.858962,226.490197 401.374644,227.958995 C401.927232,229.599724 402.194637,231.323081 402.165242,233.054206 C402.176391,234.878138 401.830372,236.686596 401.146724,238.377453 C400.461164,240.04499 399.398137,241.530578 398.041311,242.71729 C396.491531,244.035548 394.691508,245.026918 392.749288,245.631893 C390.320567,246.389431 387.785688,246.750367 385.242165,246.700818 C383.407828,246.694402 381.581729,246.454948 379.807692,245.988201 C378.012821,245.525 376.246439,245.019042 374.60114,244.456075 C374.366097,244.370561 374.102564,244.285047 373.824786,244.199533 C373.564389,244.116904 373.293112,244.073669 373.019943,244.071262 C372.584358,244.034724 372.160183,244.222746 371.894587,244.570093 C371.613208,244.956527 371.374404,245.372259 371.182336,245.810047 C371.115543,246.076779 370.855108,246.247389 370.584046,246.201986 C370.320513,246.201986 370.185185,246.002453 370.185185,245.660397 Z" id="Path" fill="#FFFFFF"></path>
                <path d="M415.954416,240.757593 C415.918918,241.487323 416.099811,242.211269 416.474359,242.838435 C416.777062,243.323996 417.177249,243.741375 417.649573,244.064136 C418.043925,244.335821 418.479137,244.542713 418.938746,244.676986 C419.226987,244.769965 419.522379,244.839084 419.821937,244.883645 C419.966924,244.913905 420.098876,244.988633 420.19943,245.09743 C420.269094,245.183185 420.297725,245.295164 420.277778,245.403855 C420.25359,245.518764 420.190738,245.621894 420.099715,245.696028 C419.984373,245.786553 419.840118,245.83213 419.693732,245.824299 L403.532764,245.824299 C403.388353,245.833772 403.245751,245.787912 403.133903,245.696028 C403.04288,245.621894 402.980028,245.518764 402.95584,245.403855 C402.931572,245.295057 402.960682,245.181203 403.034188,245.09743 C403.13063,244.987164 403.260875,244.911984 403.404558,244.883645 C403.70426,244.839834 403.999713,244.7707 404.287749,244.676986 C404.749625,244.542847 405.187203,244.335973 405.584046,244.064136 C406.053018,243.737434 406.452481,243.32081 406.759259,242.838435 C407.128197,242.209225 407.306366,241.48628 407.27208,240.757593 L407.27208,222.821028 C407.298375,222.5755 407.130412,222.351435 406.887464,222.307944 C406.728333,222.287447 406.571124,222.254082 406.417379,222.208178 L405.498575,221.987266 L404.551282,221.759229 L404.017094,221.630958 C403.739316,221.566822 403.589744,221.424299 403.582621,221.196262 C403.575499,220.968224 403.725071,220.811449 404.052707,220.725935 C404.972606,220.509156 405.88074,220.245139 406.773504,219.93493 C407.749288,219.607126 408.732194,219.222313 409.722222,218.808995 C410.712251,218.395678 411.666667,217.939603 412.571225,217.455023 C413.425658,217.010891 414.255455,216.520845 415.05698,215.987033 C415.228133,215.863484 415.437848,215.80534 415.648148,215.823131 C415.854701,215.823131 415.954416,216.008411 415.954416,216.30771 L415.954416,240.757593 Z M416.210826,204.414136 C415.96375,203.806449 415.598133,203.254108 415.135328,202.789369 C414.662673,202.320933 414.103999,201.948292 413.490028,201.691939 C412.813332,201.410777 412.085884,201.272491 411.353276,201.285748 C409.915518,201.281036 408.532806,201.838497 407.5,202.839252 C407.013229,203.312633 406.623678,203.876683 406.353276,204.49965 C406.074477,205.135308 405.931349,205.822188 405.933048,206.516355 C405.928343,207.200346 406.059063,207.878498 406.317664,208.511682 C406.56649,209.118063 406.934663,209.668183 407.400285,210.129322 C408.401324,211.090437 409.738,211.622314 411.125356,211.611565 C411.858609,211.616506 412.585334,211.47351 413.262108,211.191121 C413.898258,210.926249 414.481982,210.549771 414.985755,210.079439 C415.999157,209.13173 416.572122,207.804453 416.566952,206.416589 C416.587894,205.740546 416.474096,205.067096 416.232194,204.435514 L416.210826,204.414136 Z" id="Shape" fill="#FFFFFF" fill-rule="nonzero"></path>
                <path d="M456.474359,244.883645 C456.618042,244.911984 456.748288,244.987164 456.844729,245.09743 C456.919744,245.18047 456.951397,245.293952 456.930199,245.403855 C456.867449,245.670045 456.618357,245.849362 456.346154,245.824299 L444.679487,245.824299 C444.47667,245.834162 444.2763,245.776526 444.109687,245.660397 C443.963222,245.531951 443.88654,245.34147 443.903134,245.147313 L443.903134,242.296846 C443.919032,242.175739 443.851927,242.058975 443.739316,242.011799 C443.634553,241.967132 443.512916,242.006685 443.454416,242.104439 C443.254986,242.339603 442.934473,242.71729 442.485755,243.216121 C441.936215,243.802428 441.311058,244.312875 440.626781,244.733995 C439.720214,245.296335 438.746198,245.741692 437.72792,246.059463 C436.417471,246.459252 435.05209,246.649253 433.682336,246.62243 C432.149926,246.65008 430.623674,246.421266 429.166667,245.945444 C426.8171,245.156343 424.816811,243.570917 423.511396,241.463084 C422.912879,240.481222 422.434608,239.430878 422.086895,238.334696 C421.748463,237.261603 421.510029,236.159472 421.374644,235.042407 C421.239131,234.014642 421.170137,232.97919 421.168091,231.942523 C421.141722,229.723447 421.439256,227.512403 422.051282,225.379322 C422.579604,223.527909 423.492137,221.808745 424.729345,220.333995 C425.946227,218.918285 427.481691,217.81189 429.209402,217.105841 C431.224951,216.315636 433.377051,215.932951 435.541311,215.979907 C436.718758,215.965719 437.895427,216.046746 439.059829,216.222196 C439.889011,216.344071 440.707984,216.527482 441.509972,216.770911 C442.001536,216.919081 442.47839,217.112307 442.934473,217.348131 L443.482906,217.654556 C443.560811,217.733898 443.678493,217.759128 443.782051,217.718692 C443.875746,217.686899 443.936866,217.596629 443.931624,217.49778 L443.931624,204.435514 C443.957919,204.189986 443.789957,203.965921 443.547009,203.92243 C443.368943,203.896406 443.192849,203.858312 443.019943,203.808411 L442.10114,203.5875 L441.146724,203.359463 L440.619658,203.231192 C440.334758,203.167056 440.192308,203.024533 440.185185,202.796495 C440.178063,202.568458 440.327635,202.411682 440.648148,202.326168 C441.570408,202.109468 442.480918,201.845451 443.376068,201.535164 C444.351852,201.20736 445.334758,200.822547 446.324786,200.409229 C447.314815,199.995911 448.269231,199.539836 449.173789,199.055257 C450.025951,198.61118 450.853381,198.121128 451.652422,197.587266 C451.825766,197.462641 452.038092,197.404474 452.250712,197.423364 C452.457265,197.423364 452.55698,197.608645 452.55698,197.907944 L452.55698,240.743341 C452.522694,241.472027 452.700862,242.194972 453.069801,242.824182 C453.377755,243.307956 453.779846,243.724794 454.252137,244.049883 C454.64574,244.322867 455.081169,244.529862 455.541311,244.662734 C455.845344,244.763274 456.157534,244.837189 456.474359,244.883645 Z M443.867521,226.61215 C443.865457,226.018915 443.8274,225.426353 443.753561,224.837734 C443.679774,224.17732 443.551124,223.524205 443.368946,222.885164 C443.198978,222.232245 442.960224,221.599221 442.656695,220.996729 C442.348852,220.403371 441.95258,219.860321 441.481481,219.386215 C440.996138,218.904004 440.426376,218.515111 439.80057,218.238902 C439.09965,217.935938 438.341701,217.787673 437.578348,217.804206 C436.417733,217.771068 435.27702,218.11071 434.323362,218.773364 C433.382657,219.463171 432.628678,220.376739 432.12963,221.431425 C431.530292,222.697772 431.117643,224.044374 430.904558,225.429206 C430.63939,227.078558 430.510748,228.746995 430.519943,230.417523 C430.519943,230.88785 430.519943,231.529206 430.519943,232.334463 C430.538571,233.201879 430.602762,234.067715 430.712251,234.928388 C430.835605,235.876592 431.026016,236.814849 431.282051,237.736098 C431.520867,238.640364 431.900645,239.501317 432.407407,240.287266 C432.898513,241.036368 433.54762,241.668782 434.309117,242.14007 C435.173159,242.64032 436.160439,242.887266 437.15812,242.852687 C438.380004,242.908827 439.594049,242.630415 440.669516,242.04743 C441.49358,241.563615 442.189679,240.889152 442.69943,240.080607 C443.16951,239.32484 443.488784,238.485106 443.639601,237.607827 C443.777682,236.848142 443.851543,236.078168 443.860399,235.306075 L443.867521,226.61215 Z" id="Shape" fill="#FFFFFF" fill-rule="nonzero"></path>
                <path d="M467.279202,228.75 C466.937322,228.75 466.766382,228.928154 466.766382,229.298715 C466.734657,231.196242 466.928321,233.090823 467.343305,234.94264 C467.652019,236.325917 468.227856,237.635529 469.038462,238.797897 C469.746226,239.770563 470.70351,240.533829 471.809117,241.007009 C473.032389,241.502031 474.343085,241.744429 475.662393,241.719626 C476.668138,241.734036 477.67144,241.616644 478.646724,241.370444 C479.427002,241.162587 480.187335,240.88596 480.918803,240.543808 C481.466384,240.287613 481.994816,239.992301 482.5,239.660164 C482.784366,239.454094 483.084429,239.270628 483.397436,239.111449 C483.624864,238.971676 483.918063,239.003944 484.109687,239.189836 C484.280627,239.375117 484.280627,239.645911 484.109687,240.009346 C484.045584,240.144743 483.896011,240.394159 483.675214,240.771846 C483.384671,241.233324 483.055879,241.669556 482.692308,242.075935 C482.196548,242.634767 481.655798,243.151961 481.075499,243.622313 C480.36744,244.204267 479.595643,244.703922 478.774929,245.111682 C477.797141,245.591777 476.770261,245.964511 475.712251,246.223364 C474.450704,246.526964 473.156416,246.672975 471.858974,246.658061 C469.868022,246.685383 467.889537,246.339756 466.025641,245.639019 C464.336729,244.999232 462.811263,243.991469 461.559829,242.688785 C460.290934,241.335602 459.320307,239.730817 458.710826,237.978388 C458.005807,235.969053 457.661005,233.850933 457.692308,231.721612 C457.649104,229.412029 458.078109,227.117975 458.952991,224.980257 C459.7145,223.139878 460.832897,221.468685 462.24359,220.063201 C463.561896,218.759143 465.129122,217.733985 466.851852,217.048832 C468.52089,216.36813 470.305884,216.01724 472.108262,216.015537 C473.615107,215.994483 475.114146,216.23561 476.538462,216.728154 C477.735196,217.14836 478.856055,217.759614 479.85755,218.538201 C480.7549,219.23989 481.53817,220.076448 482.179487,221.018107 C482.761476,221.877134 483.257687,222.791301 483.660969,223.74743 C484.012731,224.565436 484.277715,225.418121 484.451567,226.291472 C484.582774,226.91785 484.659038,227.554499 484.679487,228.194159 C484.699031,228.374187 484.616616,228.550097 484.465812,228.650234 C484.293696,228.744172 484.098935,228.788571 483.903134,228.778505 L467.279202,228.75 Z M466.923077,226.61215 C466.880342,226.89007 467.008547,227.032593 467.314815,227.032593 L467.95584,227.032593 L469.294872,226.98271 L470.990028,226.918575 L472.713675,226.854439 L474.138177,226.804556 C474.390581,226.802288 474.642652,226.785633 474.893162,226.754673 C475.289891,226.713138 475.666011,226.557166 475.975783,226.305724 C476.380361,225.948017 476.589507,225.418262 476.538462,224.880491 C476.52479,224.161079 476.438889,223.444863 476.282051,222.74264 C476.112307,221.935598 475.836902,221.154483 475.462963,220.419509 C475.111796,219.715901 474.628103,219.086778 474.038462,218.566706 C473.447089,218.053259 472.684362,217.78108 471.901709,217.804206 C471.280046,217.790781 470.670615,217.978203 470.163818,218.338668 C469.649316,218.725258 469.216073,219.209577 468.888889,219.763902 C468.523918,220.355347 468.227604,220.986534 468.005698,221.64521 C467.773202,222.305901 467.57821,222.97921 467.421652,223.661916 C467.27208,224.317523 467.15812,224.923248 467.086895,225.471963 C467.01567,226.020678 466.944444,226.319977 466.923077,226.61215 Z" id="Shape" fill="#FFFFFF" fill-rule="nonzero"></path>
                <path d="M189.636752,301.686332 C189.750881,301.688177 189.85916,301.737186 189.935897,301.821729 L190.719373,302.676869 C190.114601,303.382727 189.360369,303.94504 188.511396,304.323014 C187.5231,304.740612 186.457074,304.942265 185.384615,304.914486 C184.388295,304.928383 183.399569,304.739265 182.478632,304.358645 C181.634265,304.007793 180.876071,303.477757 180.25641,302.80514 C179.624367,302.111794 179.139729,301.297183 178.831909,300.410748 C178.480743,299.425361 178.307112,298.385451 178.319088,297.339369 C178.307449,296.290198 178.493506,295.248227 178.867521,294.267991 C179.539376,292.457497 180.94769,291.017379 182.742165,290.305841 C183.70702,289.931614 184.73448,289.745367 185.769231,289.757126 C186.731794,289.730819 187.689466,289.903046 188.582621,290.263084 C189.371503,290.589699 190.095267,291.05556 190.719373,291.638435 L190.064103,292.55771 C190.02278,292.626116 189.966836,292.684522 189.900285,292.728738 C189.81939,292.779435 189.724987,292.80429 189.62963,292.8 C189.527205,292.794061 189.4285,292.759496 189.344729,292.700234 L188.988604,292.457944 C188.853276,292.358178 188.689459,292.258411 188.504274,292.144393 C188.292926,292.022933 188.071267,291.920393 187.84188,291.837967 C187.55244,291.730565 187.254667,291.647145 186.951567,291.588551 C186.565918,291.521492 186.174869,291.490479 185.783476,291.495911 C185.039685,291.486867 184.301435,291.624906 183.611111,291.902103 C182.967713,292.164016 182.387423,292.559982 181.908832,293.063668 C181.415119,293.59558 181.036811,294.223992 180.797721,294.909346 C180.522972,295.689583 180.38795,296.512196 180.39886,297.339369 C180.386339,298.180618 180.521336,299.017549 180.797721,299.81215 C181.037016,300.488977 181.404611,301.113241 181.880342,301.650701 C182.335603,302.143861 182.891979,302.532795 183.511396,302.790888 C184.152555,303.055972 184.840473,303.189264 185.534188,303.182827 C185.932123,303.188254 186.329861,303.162042 186.723647,303.104439 C187.059323,303.06079 187.389029,302.979516 187.706553,302.86215 C188.0005,302.756694 188.280376,302.615487 188.539886,302.441706 C188.81781,302.262491 189.079922,302.059846 189.323362,301.835981 C189.407597,301.751639 189.518234,301.698808 189.636752,301.686332 Z" id="Path" fill="#FFFFFF"></path>
                <path d="M197.492877,304.743458 L197.492877,289.921028 L202.222222,289.921028 C203.014128,289.908763 203.804256,289.999794 204.57265,290.191822 C205.158347,290.337975 205.709947,290.596973 206.196581,290.954322 C206.608058,291.274299 206.931562,291.6936 207.136752,292.172897 C207.345307,292.686379 207.449426,293.236315 207.44302,293.790537 C207.444202,294.149093 207.386452,294.505403 207.27208,294.84521 C207.155516,295.186964 206.979494,295.505414 206.752137,295.785864 C206.507077,296.090758 206.213499,296.353188 205.883191,296.562617 C205.503344,296.805266 205.090827,296.992433 204.65812,297.118458 C205.574236,297.250926 206.4286,297.658448 207.108262,298.28715 C207.675149,298.890312 207.973278,299.69773 207.934473,300.524766 C207.941615,301.114839 207.825155,301.699867 207.592593,302.242173 C207.355024,302.761702 206.998834,303.218153 206.552707,303.574766 C206.072946,303.971293 205.518211,304.266981 204.921652,304.444159 C204.204794,304.653993 203.460495,304.754885 202.713675,304.743458 L197.492877,304.743458 Z M199.501425,296.562617 L202.143875,296.562617 C202.641581,296.570351 203.137899,296.507979 203.618234,296.377336 C203.99026,296.271257 204.338451,296.094653 204.643875,295.857126 C204.910018,295.646711 205.118344,295.37207 205.249288,295.058995 C205.383019,294.731033 205.450789,294.379901 205.448718,294.025701 C205.510045,293.298534 205.215377,292.586718 204.65812,292.115888 C203.933924,291.653041 203.079099,291.437975 202.222222,291.503037 L199.501425,291.503037 L199.501425,296.562617 Z M199.501425,297.98785 L199.501425,303.154322 L202.706553,303.154322 C203.205416,303.165459 203.702932,303.098128 204.180912,302.95479 C204.55295,302.845299 204.897628,302.6583 205.192308,302.406075 C205.452595,302.171909 205.652889,301.878644 205.776353,301.550935 C205.901822,301.206196 205.964541,300.841754 205.961538,300.474883 C205.988132,299.771088 205.678794,299.096545 205.128205,298.65771 C204.409407,298.160649 203.542406,297.924302 202.67094,297.98785 L199.501425,297.98785 Z" id="Shape" fill="#FFFFFF" fill-rule="nonzero"></path>
                <path d="M227.849003,297.339369 C227.864811,298.373055 227.68601,299.400482 227.321937,300.367991 C226.667108,302.133887 225.287783,303.534674 223.532764,304.216121 C222.581799,304.575706 221.572108,304.754547 220.555556,304.743458 L215.007123,304.743458 L215.007123,289.921028 L220.555556,289.921028 C221.572857,289.908634 222.583227,290.090014 223.532764,290.455491 C224.39726,290.79163 225.181177,291.306415 225.833333,291.966238 C226.486149,292.633671 226.993085,293.429655 227.321937,294.303621 C227.685906,295.273634 227.864689,296.303373 227.849003,297.339369 Z M225.797721,297.339369 C225.809349,296.509226 225.681748,295.683009 225.420228,294.895093 C225.197897,294.223103 224.838996,293.604409 224.366097,293.077921 C223.908248,292.578078 223.343353,292.188295 222.713675,291.937734 C222.033137,291.671197 221.307705,291.538132 220.576923,291.545794 L217.01567,291.545794 L217.01567,303.118692 L220.576923,303.118692 C221.307705,303.126354 222.033137,302.993289 222.713675,302.726752 C223.341529,302.476117 223.905921,302.089115 224.366097,301.593692 C224.838989,301.069907 225.197952,300.453533 225.420228,299.783645 C225.676915,298.994905 225.799698,298.168708 225.783476,297.339369 L225.797721,297.339369 Z" id="Shape" fill="#FFFFFF" fill-rule="nonzero"></path>
                <polygon id="Path" fill="#92AF4C" points="239.650997 292.685981 239.650997 297.097079 243.860399 297.097079 243.860399 298.522313 239.650997 298.522313 239.650997 302.976168 238.141026 302.976168 238.141026 298.522313 233.952991 298.522313 233.952991 297.097079 238.141026 297.097079 238.141026 292.685981"></polygon>
                <path d="M258.390313,299.911916 L258.603989,300.460631 C258.675214,300.268224 258.746439,300.082944 258.824786,299.911916 C258.898581,299.728386 258.984232,299.549855 259.081197,299.377453 L264.066952,290.263084 C264.123952,290.137131 264.221847,290.034164 264.344729,289.970911 C264.478772,289.931761 264.618332,289.914909 264.757835,289.921028 L266.239316,289.921028 L266.239316,304.743458 L264.480057,304.743458 L264.480057,293.854673 C264.480057,293.705023 264.480057,293.555374 264.480057,293.384346 C264.480057,293.213318 264.480057,293.049416 264.51567,292.878388 L259.437322,302.142407 C259.310021,302.422149 259.032273,302.602778 258.725071,302.605607 L258.440171,302.605607 C258.132969,302.602778 257.855221,302.422149 257.72792,302.142407 L252.542735,292.885514 C252.542735,293.063668 252.578348,293.241822 252.592593,293.41285 C252.606838,293.583879 252.592593,293.740654 252.592593,293.890304 L252.592593,304.779089 L250.833333,304.779089 L250.833333,289.956659 L252.314815,289.956659 C252.454318,289.95054 252.593878,289.967392 252.72792,290.006542 C252.849194,290.071923 252.946492,290.174264 253.005698,290.298715 L258.126781,299.42021 C258.224777,299.578459 258.312793,299.742681 258.390313,299.911916 Z" id="Path" fill="#FFFFFF"></path>
                <path d="M287.749288,297.339369 C287.763635,298.38222 287.584937,299.418719 287.222222,300.396495 C286.894088,301.287682 286.387541,302.102453 285.733618,302.790888 C285.084076,303.46764 284.297198,303.997355 283.425926,304.344393 C281.507739,305.085314 279.382575,305.085314 277.464387,304.344393 C276.593115,303.997355 275.806237,303.46764 275.156695,302.790888 C274.506043,302.099928 273.999935,301.285863 273.668091,300.396495 C272.965616,298.419005 272.965616,296.259734 273.668091,294.282243 C273.999089,293.390342 274.50524,292.573783 275.156695,291.880724 C275.807381,291.201832 276.593675,290.667654 277.464387,290.312967 C279.382575,289.572046 281.507739,289.572046 283.425926,290.312967 C284.296639,290.667654 285.082932,291.201832 285.733618,291.880724 C286.387566,292.571864 286.89405,293.38896 287.222222,294.282243 C287.584937,295.260019 287.763635,296.296519 287.749288,297.339369 Z M285.698006,297.339369 C285.709625,296.506895 285.582035,295.678337 285.320513,294.887967 C285.102819,294.207527 284.74356,293.580929 284.266382,293.049416 C283.807301,292.54751 283.243042,292.153299 282.61396,291.894977 C281.219466,291.362794 279.67797,291.362794 278.283476,291.894977 C277.652287,292.153213 277.085686,292.547361 276.623932,293.049416 C276.144548,293.580529 275.78288,294.207095 275.562678,294.887967 C275.069055,296.482493 275.069055,298.189119 275.562678,299.783645 C275.784569,300.461638 276.1461,301.085539 276.623932,301.61507 C277.084055,302.117258 277.651253,302.509387 278.283476,302.762383 C279.67797,303.294566 281.219466,303.294566 282.61396,302.762383 C283.24409,302.509318 283.808952,302.117122 284.266382,301.61507 C284.742002,301.08514 285.101124,300.461208 285.320513,299.783645 C285.589291,298.996971 285.724119,298.170723 285.719373,297.339369 L285.698006,297.339369 Z" id="Shape" fill="#FFFFFF" fill-rule="nonzero"></path>
                <path d="M296.851852,298.586449 L296.851852,304.771963 L294.871795,304.771963 L294.871795,289.949533 L299.059829,289.949533 C299.878597,289.93385 300.695689,290.029746 301.488604,290.234579 C302.100946,290.390555 302.675236,290.669363 303.176638,291.054089 C303.609989,291.396644 303.950412,291.842606 304.166667,292.351051 C304.386121,292.891655 304.495103,293.470768 304.487179,294.054206 C304.494391,294.554662 304.4099,295.052206 304.237892,295.522196 C304.079781,295.972013 303.838123,296.387878 303.525641,296.747897 C303.202539,297.123539 302.814008,297.437422 302.378917,297.674299 C301.898948,297.941177 301.383274,298.137954 300.847578,298.258645 C301.108345,298.420899 301.333652,298.634202 301.509972,298.885748 L305.826211,304.771963 L304.052707,304.771963 C303.724625,304.795432 303.411048,304.633059 303.240741,304.351519 L299.394587,299.056776 C299.298877,298.907776 299.169587,298.783301 299.017094,298.693341 C298.821078,298.611974 298.609368,298.575454 298.397436,298.586449 L296.851852,298.586449 Z M296.851852,297.161215 L298.988604,297.161215 C299.511335,297.171894 300.032604,297.102196 300.534188,296.954556 C300.942843,296.831004 301.322928,296.627542 301.652422,296.355958 C301.943726,296.101077 302.174834,295.784662 302.32906,295.429556 C302.483083,295.051891 302.560557,294.647366 302.55698,294.239486 C302.607902,293.469162 302.281109,292.722201 301.680912,292.237033 C300.910423,291.736336 299.997567,291.501123 299.081197,291.567173 L296.887464,291.567173 L296.851852,297.161215 Z" id="Shape" fill="#FFFFFF" fill-rule="nonzero"></path>
                <polygon id="Path" fill="#FFFFFF" points="321.225071 289.921028 321.225071 291.552921 314.102564 291.552921 314.102564 296.448598 319.85755 296.448598 319.85755 298.023481 314.102564 298.023481 314.102564 303.083061 321.225071 303.083061 321.225071 304.714953 312.108262 304.714953 312.108262 289.892523"></polygon>
            </g>
        </g>
    </g>
</svg>